<svg xmlns="http://www.w3.org/2000/svg" fill="none" viewBox="-0.5 -0.5 200 200" id="Charts-Pie-And-Bars--Streamline-Bangalore.svg"><desc>Charts Pie And Bars Streamline Illustration: https://streamlinehq.com</desc><g id="Business-Charts-pie-and-bars"><g id="color 2"><path id="Vector" fill="#191a23" d="m175.44337499999997 55.79164 -1.3989699999999998 17.355785c-6.376955 0.12805650000000002 -12.756895 -0.080197 -19.112955 -0.623865l-11.873334999999999 14.726 -6.2197450000000005 -16.97669c-14.560830000000001 -0.10547 -27.310760000000002 -2.7044099999999998 -41.4207555 -6.277455 -1.169921 1.728713 -1.9616425 3.685082 -2.3232255000000004 5.740951 -0.361583 2.055869 -0.284968 4.164871000000001 0.22477049999999998 6.189099000000001 11.1936505 2.753165 20.1695455 4.975 31.6657755 5.992884999999999l5.539165000000001 -1.66364c-0.6994849999999999 7.885574 -0.6049599999999999 15.8213955 0.28357499999999997 23.687965 7.543095 -0.7562 16.050345 0.24576499999999998 25.16355 2.3253150000000002 0.44775 -7.50031 0.995 -13.46434 2.968085 -20.209445 6.695355 0.5839655 13.425535 0.6725205 20.133824999999998 0.26467 1.8327900000000001 -0.1682545 3.54618 -0.980075 4.836695 -2.2914849999999998 1.29151 -1.31141 2.07557 -3.0376355 2.21487 -4.872515l1.720355 -22.3278c-4.02776 -1.143056 -8.239595000000001 -1.4961815 -12.40168 -1.039775Z" stroke-width="1"></path></g><g id="color 1"><path id="Vector_2" fill="#191a23" d="m146.06401 64.073025 -1.909405 1.81488 0.5482450000000001 -1.700455 1.3611600000000001 -0.114425Z" stroke-width="1"></path><path id="Vector_3" fill="#191a23" d="M124.984935 81.90044c1.71538 0.150245 3.52628 0.275615 5.373 0.369145 0.05373 -0.679585 0.116415 -1.354195 0.166165 -2.032785l-5.539165000000001 1.66364Z" stroke-width="1"></path><path id="Vector_4" fill="#191a23" d="M96.4384845 73.298665c-0.09532099999999999 -0.1139275 -0.22228299999999998 -0.19701000000000002 -0.36486650000000004 -0.23879999999999998 -0.142484 -0.04179 -0.294321 -0.0402975 -0.436009 0.004079500000000001 -0.14178749999999998 0.044476499999999995 -0.2671575 0.129947 -0.3602895 0.2456655 -0.09323150000000001 0.1157185 -0.1499465 0.25641149999999996 -0.16318000000000002 0.404368 -0.013233499999999999 0.1479565 0.017711 0.29651 0.08895299999999999 0.426855 0.071242 0.1304445 0.179498 0.2367105 0.311037 0.30556449999999996 0.1316385 0.068854 0.280789 0.09721149999999999 0.42844699999999997 0.08129149999999999 0.147658 -0.0158205 0.287356 -0.0751225 0.401383 -0.170344 0.0759185 -0.0631825 0.138504 -0.1407925 0.1843735 -0.22825299999999998s0.07392850000000001 -0.18308 0.0826845 -0.2814855c0.0088555 -0.098306 -0.0018905 -0.197408 -0.0315415 -0.2916345 -0.0295515 -0.0942265 -0.0775105 -0.18168700000000002 -0.1409915 -0.257307Z" stroke-width="1"></path><path id="Vector_5" fill="#191a23" d="M114.34142 70.25496c-0.09552000000000001 -0.11402699999999999 -0.221885 -0.1973085 -0.365165 -0.239198 -0.142285 -0.041889499999999996 -0.293525 -0.040596 -0.43581 0.003781 -0.142285 0.044377 -0.26765500000000003 0.1298475 -0.36019 0.24556599999999998 -0.09353 0.1157185 -0.150245 0.256511 -0.16318000000000002 0.4044675 -0.01393 0.148056 0.016915 0.296709 0.088555 0.42705400000000004 0.07164 0.1304445 0.17909999999999998 0.23681 0.311435 0.305664 0.13134 0.068854 0.28058999999999995 0.0970125 0.428845 0.0810925 0.14726 -0.0160195 0.28656 -0.075421 0.40098500000000004 -0.170742 0.07561999999999999 -0.0631825 0.138305 -0.14069299999999998 0.184075 -0.22805399999999998 0.04577 -0.08746050000000001 0.07363 -0.18298050000000002 0.082585 -0.281187 0.008955 -0.0982065 -0.00199 -0.197209 -0.03184 -0.291336 -0.028855000000000002 -0.094127 -0.076615 -0.181488 -0.14029499999999998 -0.257108Z" stroke-width="1"></path><path id="Vector_6" fill="#191a23" d="M128.554 79.007975c-0.062685 -0.075819 -0.14029499999999998 -0.138504 -0.227855 -0.1843735 -0.08756 -0.04577 -0.18308 -0.07392850000000001 -0.281585 -0.0826845 -0.09850500000000001 -0.008756 -0.19800500000000001 0.0018905 -0.291535 0.0315415 -0.094525 0.029651 -0.182085 0.0775105 -0.257705 0.1409915 -0.07761 0.062287 -0.14129 0.1393995 -0.188055 0.2269595 -0.046765 0.08746050000000001 -0.07561999999999999 0.183478 -0.08358 0.2822815 -0.008955 0.0988035 0.00199 0.198403 0.032835 0.2928285 0.029849999999999998 0.0944255 0.0796 0.18168700000000002 0.144275 0.2566105 0.06368 0.0757195 0.14129 0.1382055 0.22885 0.18397550000000001 0.08756 0.04577 0.18308 0.073829 0.28058999999999995 0.082585 0.09850500000000001 0.008756 0.19800500000000001 -0.0018905 0.291535 -0.031442000000000005 0.094525 -0.029452000000000002 0.182085 -0.0773115 0.257705 -0.1405935 0.07561999999999999 -0.063282 0.138305 -0.140892 0.184075 -0.2283525 0.04577 -0.08746050000000001 0.07363 -0.18308 0.082585 -0.28138599999999997 0.008955 -0.098306 -0.00199 -0.197408 -0.03184 -0.291535 -0.028855000000000002 -0.0942265 -0.076615 -0.18168700000000002 -0.14029499999999998 -0.2574065Z" stroke-width="1"></path><path id="Vector_7" fill="#191a23" d="M160.71638 82.77007c0.09552000000000001 0.1139275 0.221885 0.19701000000000002 0.365165 0.23879999999999998 0.142285 0.04179 0.29452 0.040396999999999995 0.43581 -0.004079500000000001 0.14129 -0.044476499999999995 0.26666 -0.129947 0.36019 -0.2456655 0.09353 -0.115619 0.150245 -0.25641149999999996 0.16318000000000002 -0.404368 0.012934999999999999 -0.1479565 -0.01791 -0.29651 -0.088555 -0.426855 -0.07164 -0.13034500000000002 -0.180095 -0.2367105 -0.311435 -0.30556449999999996 -0.13134 -0.068854 -0.28058999999999995 -0.09721149999999999 -0.428845 -0.08129149999999999 -0.14726 0.0158205 -0.28656 0.0751225 -0.40098500000000004 0.170344 -0.07561999999999999 0.0631825 -0.138305 0.1407925 -0.184075 0.22825299999999998 -0.04577 0.08746050000000001 -0.074625 0.18308 -0.082585 0.2814855 -0.008955 0.098306 0.00199 0.1975075 0.030845 0.2916345 0.029849999999999998 0.0942265 0.07761 0.18168700000000002 0.14129 0.257307Z" stroke-width="1"></path><path id="Vector_8" fill="#191a23" d="M183.13771 77.193095c0.09552000000000001 0.1139275 0.221885 0.19701000000000002 0.365165 0.23879999999999998 0.142285 0.04179 0.293525 0.0402975 0.43581 -0.004079500000000001 0.14129 -0.044476499999999995 0.26666 -0.129947 0.36019 -0.2456655 0.09353 -0.1157185 0.150245 -0.25641149999999996 0.16318000000000002 -0.404368 0.012934999999999999 -0.1479565 -0.01791 -0.29651 -0.088555 -0.426855 -0.07164 -0.1304445 -0.180095 -0.2367105 -0.311435 -0.30556449999999996 -0.13134 -0.068854 -0.28058999999999995 -0.09721149999999999 -0.428845 -0.08129149999999999 -0.14726 0.0158205 -0.28656 0.0751225 -0.40098500000000004 0.170344 -0.07561999999999999 0.0631825 -0.138305 0.1407925 -0.184075 0.22825299999999998 -0.04577 0.08746050000000001 -0.074625 0.18308 -0.082585 0.2814855 -0.008955 0.098306 0.00199 0.1975075 0.030845 0.2916345 0.029849999999999998 0.0942265 0.07761 0.18168700000000002 0.14129 0.257307Z" stroke-width="1"></path><path id="Vector_9" fill="#191a23" d="M141.05418500000002 87.47741500000001c-0.062685 -0.075819 -0.14029499999999998 -0.138504 -0.227855 -0.184274 -0.08756 -0.0458695 -0.18308 -0.07392850000000001 -0.281585 -0.082784 -0.09850500000000001 -0.008756 -0.19701000000000002 0.00199 -0.291535 0.0315415 -0.09353 0.029651 -0.18109 0.0775105 -0.25671 0.1409915 -0.07761 0.0621875 -0.14129 0.1393 -0.188055 0.2267605 -0.046765 0.08756 -0.07561999999999999 0.1835775 -0.08457500000000001 0.28248049999999997 -0.008955 0.0988035 0.00199 0.198403 0.032835 0.2928285 0.030845 0.0944255 0.080595 0.18168700000000002 0.14526999999999998 0.2566105 0.062685 0.076615 0.14029499999999998 0.1399965 0.227855 0.1865625 0.08756 0.0464665 0.184075 0.0751225 0.28258 0.084376 0.09850500000000001 0.0092535 0.199 -0.001194 0.293525 -0.0307455 0.094525 -0.029452000000000002 0.182085 -0.077411 0.2587 -0.14109100000000002 0.07561999999999999 -0.06368 0.138305 -0.14178749999999998 0.184075 -0.22984500000000002 0.04577 -0.08795800000000001 0.07363 -0.184274 0.082585 -0.2830775 0.00796 -0.098903 -0.0029850000000000002 -0.198403 -0.03383 -0.2928285 -0.029849999999999998 -0.094525 -0.078605 -0.1819855 -0.14328 -0.25750599999999996Z" stroke-width="1"></path><path id="Vector_10" fill="#191a23" d="M145.09985500000002 88.989815c0.09552000000000001 0.1139275 0.221885 0.19701000000000002 0.365165 0.23879999999999998 0.142285 0.04179 0.293525 0.0402975 0.43581 -0.004079500000000001 0.14129 -0.044476499999999995 0.26666 -0.129947 0.36019 -0.2456655 0.09353 -0.1157185 0.150245 -0.25641149999999996 0.16318000000000002 -0.404368 0.012934999999999999 -0.1479565 -0.01791 -0.29651 -0.088555 -0.426855 -0.07164 -0.1304445 -0.180095 -0.2367105 -0.311435 -0.30556449999999996 -0.13134 -0.068854 -0.28058999999999995 -0.09721149999999999 -0.428845 -0.08129149999999999 -0.14726 0.0158205 -0.28656 0.0751225 -0.40098500000000004 0.170344 -0.07561999999999999 0.0631825 -0.138305 0.1407925 -0.184075 0.22825299999999998 -0.04577 0.08746050000000001 -0.074625 0.18308 -0.082585 0.2814855 -0.008955 0.098306 0.00199 0.197408 0.030845 0.2916345 0.029849999999999998 0.0942265 0.07761 0.18168700000000002 0.14129 0.257307Z" stroke-width="1"></path><path id="Vector_11" fill="#191a23" d="M152.1355 101.63726c0.09552000000000001 0.11343 0.221885 0.19701000000000002 0.365165 0.23879999999999998 0.142285 0.04179 0.29452 0.040795000000000005 0.43581 -0.00398 0.14129 -0.044774999999999995 0.26666 -0.13034500000000002 0.36019 -0.24576499999999998 0.09353 -0.11542000000000001 0.150245 -0.25671 0.16318000000000002 -0.40397000000000005 0.012934999999999999 -0.148255 -0.01791 -0.29651 -0.088555 -0.426855 -0.07164 -0.13034500000000002 -0.180095 -0.23681 -0.311435 -0.30646 -0.13134 -0.06865500000000001 -0.28058999999999995 -0.096515 -0.428845 -0.080595 -0.14726 0.01592 -0.28656 0.074625 -0.40098500000000004 0.17014500000000002 -0.07561999999999999 0.06368 -0.138305 0.14029499999999998 -0.184075 0.227855 -0.04577 0.08756 -0.074625 0.18308 -0.082585 0.281585 -0.008955 0.09850500000000001 0.00199 0.19800500000000001 0.030845 0.291535 0.029849999999999998 0.094525 0.07761 0.182085 0.14129 0.257705Z" stroke-width="1"></path><path id="Vector_12" fill="#191a23" d="M132.8325 99.803475c0.09552000000000001 0.11343 0.22288 0.19701000000000002 0.365165 0.23879999999999998 0.142285 0.04179 0.29452 0.040795000000000005 0.43581 -0.00398 0.142285 -0.044774999999999995 0.26765500000000003 -0.13034500000000002 0.36019 -0.24576499999999998 0.09353 -0.11542000000000001 0.150245 -0.25671 0.16318000000000002 -0.404368 0.012934999999999999 -0.1479565 -0.01791 -0.29651 -0.088555 -0.426855 -0.07164 -0.1304445 -0.180095 -0.2367105 -0.311435 -0.30556449999999996 -0.13134 -0.068854 -0.28058999999999995 -0.09721149999999999 -0.42785 -0.08129149999999999 -0.148255 0.0158205 -0.287555 0.0751225 -0.40198 0.170344 -0.07561999999999999 0.0631825 -0.138305 0.1407925 -0.184075 0.22825299999999998 -0.04577 0.08746050000000001 -0.07363 0.18308 -0.082585 0.2814855 -0.008955 0.098306 0.00199 0.1975075 0.030845 0.2912365 0.029849999999999998 0.094525 0.07761 0.182085 0.14129 0.257705Z" stroke-width="1"></path><path id="Vector_13" fill="#191a23" d="M153.5285 58.419435c-0.71839 -3.590955 -1.3611600000000001 -7.316235 -4.1591 -9.679359999999999 -1.79697 1.4925 -5.01082 4.329245 -6.446605 8.016715 3.8367199999999997 -6.579935000000001 6.0117899999999995 -1.3999650000000001 5.632695 1.41688 -0.01791 0.51143 0.26566500000000004 0.6427700000000001 1.0945 0.114425 1.740255 -1.1342999999999999 2.798935 1.813885 -0.434815 3.0248 -0.414915 0.15123999999999999 -1.3790699999999998 2.30641 -1.133305 4.764060000000001 -0.35322499999999996 -3.403895 5.44663 -7.65752 5.44663 -7.65752Z" stroke-width="1"></path><path id="Vector_14" fill="#191a23" d="M178.07117 58.514955c-0.09552000000000001 -0.1139275 -0.221885 -0.19701000000000002 -0.365165 -0.23879999999999998 -0.142285 -0.04179 -0.293525 -0.0402975 -0.43581 0.004079500000000001 -0.14129 0.044476499999999995 -0.26666 0.129947 -0.36019 0.2456655 -0.09353 0.1157185 -0.150245 0.25641149999999996 -0.16318000000000002 0.404368 -0.012934999999999999 0.1479565 0.01791 0.29651 0.088555 0.426855 0.07164 0.1304445 0.180095 0.2367105 0.311435 0.30556449999999996 0.13134 0.068854 0.28058999999999995 0.09721149999999999 0.428845 0.08129149999999999 0.14726 -0.0158205 0.28656 -0.0751225 0.40098500000000004 -0.170344 0.07561999999999999 -0.063083 0.1393 -0.14069299999999998 0.18506999999999998 -0.2281535 0.04577 -0.08746050000000001 0.07363 -0.18317950000000002 0.082585 -0.2814855 0.008955 -0.0984055 -0.00199 -0.197607 -0.03184 -0.2918335s-0.07761 -0.18158749999999999 -0.14129 -0.25720750000000003Z" stroke-width="1"></path><path id="Vector_15" fill="#191a23" d="M64.186455 132.92503499999998c-3.28947 2.53327 -9.20773 6.920225 -11.286285 9.154 2.627795 0.58705 10.832565 -1.2855400000000001 15.558815000000001 -1.2855400000000001 1.512997 0.00199 3.019228 -0.20198500000000003 4.4775 -0.6049599999999999 0.90744 -1.001965 1.909405 -2.2487 2.94918 -3.4029 -4.100196 -0.57312 -8.0633805 -1.88055 -11.699209999999999 -3.8606Z" stroke-width="1"></path><path id="Vector_16" fill="#191a23" d="M103.735715 175.027465c-1.02087 4.026764999999999 -2.968085 11.135045 -3.232755 14.159845 2.4198399999999998 -1.153205 7.733140000000001 -7.712245 11.4425 -10.62461 1.189025 -0.9352999999999999 2.249695 -2.0228349999999997 3.1571350000000002 -3.232755 0.094525 -1.342255 0.11343 -2.94918 0.22686 -4.49939 -3.586975 2.07159 -7.51225 3.49245 -11.593739999999999 4.19691Z" stroke-width="1"></path><path id="Vector_17" fill="#191a23" d="m151.47084 134.34291 2.985 25.484935c3.9809950000000005 -0.44277500000000003 7.805775 -1.801945 11.174845 -3.97005 3.3680749999999997 -2.1681049999999997 6.188899999999999 -5.0864400000000005 8.24059 -8.52715l-22.400435 -12.987735Z" stroke-width="1"></path><path id="Vector_18" fill="#191a23" d="m155.782175 85.75706 3.17604 0.30247999999999997 -0.850725 3.119325 -2.3253150000000002 -3.421805Z" stroke-width="1"></path><path id="Vector_19" fill="#191a23" d="M81.2915 70.85594c0.091142 -0.114226 0.2231785 -0.188453 0.36815 -0.20695999999999998 -3.007885 -0.5572 -5.787915 -0.532325 -7.305289999999999 -0.995L41.839749999999995 67.62616999999999c-0.065869 -0.0016914999999999999 -0.129947 0.022089 -0.1788015 0.066267 -0.048954 0.0442775 -0.0789035 0.105669 -0.08377899999999999 0.17143850000000002 -0.0048755 0.06576950000000001 0.0158205 0.1308425 0.0576105 0.1817865 0.041889499999999996 0.0510435 0.101689 0.0838785 0.16716 0.09193799999999999L81.40095000000001 71.64c-0.2189 -0.355215 -0.27064 -0.580085 -0.10945 -0.78406Z" stroke-width="1"></path></g><g id="outlines"><path id="Vector_20" stroke="#191a23" stroke-linecap="round" stroke-linejoin="round" d="m170.88727 73.16633 -19.9995 -44.881465c-1.5979700000000001 -3.5868755 -4.554115 -6.3923775 -8.219695 -7.799805 -3.6655800000000003 -1.4074275 -7.740105 -1.30146 -11.328075 0.29452L30.61018 65.62323500000001c-3.5872735000000002 1.5974724999999999 -6.3931735 4.554314000000001 -7.8007005000000005 8.220291999999999 -1.4074275 3.6658785 -1.3011615 7.7408015 0.2954155 11.328473l33.48175 75.167275c1.597373 3.586975 4.554115 6.392875 8.2197945 7.799805 3.665779 1.407925 7.7404035 1.30146 11.327975499999999 -0.29452l28.50874 -12.685255" stroke-width="1"></path><path id="Vector_21" stroke="#191a23" stroke-linecap="round" stroke-linejoin="round" d="m123.18896000000001 146.89583 53.67229 -23.895919999999997c3.586975 -1.596975 6.392875 -4.554115 7.799805 -8.219695 1.407925 -3.6655800000000003 1.30146 -7.740105 -0.29452 -11.328075l-7.561999999999999 -16.97669" stroke-width="1"></path><path id="Vector_22" stroke="#191a23" stroke-linecap="round" stroke-linejoin="round" d="M75.62 121.0716 56.132925 77.306525c-0.2038755 -0.461481 -0.4968035 -0.8780874999999999 -0.8621675000000001 -1.2259395 -0.3654635 -0.347852 -0.7959005 -0.620084 -1.266834 -0.8010745 -0.4709335 -0.180891 -0.972911 -0.267058 -1.4772764999999999 -0.25332699999999997 -0.504266 0.0136315 -1.0008705 0.1268625 -1.4612569999999998 0.333126l-8.6963 3.85662c-0.4613815 0.203776 -0.8780874999999999 0.4966045 -1.2259395 0.8619684999999999 -0.347852 0.3652645 -0.6199844999999999 0.7956019999999999 -0.800975 1.266436 -0.1809905 0.47083400000000003 -0.267058 0.9728115 -0.2534265 1.4770774999999998 0.013731 0.5041665000000001 0.1268625 1.000771 0.333126 1.461058l22.195465 49.8495" stroke-width="1"></path><path id="Vector_23" stroke="#191a23" stroke-linecap="round" stroke-linejoin="round" d="m66.41724500000001 142.69892 2.779035 6.23865c0.20367649999999998 0.46168000000000003 0.4966045 0.87759 0.861869 1.22584s0.7957015 0.619885 1.2665354999999998 0.800975c0.47083400000000003 0.18109 0.9728115 0.26765500000000003 1.476978 0.253725 0.504266 -0.01393 1.000771 -0.12736 1.4611574999999999 -0.33332500000000004l8.6963 -3.8805c0.4613815 -0.203975 0.877988 -0.496505 1.22584 -0.8616699999999999s0.620084 -0.796 0.8010745 -1.266635c0.180891 -0.47063499999999997 0.267058 -0.97311 0.25332699999999997 -1.477575 -0.0136315 -0.50347 -0.1268625 -0.9999749999999998 -0.3330265 -1.46066l-3.0248 -6.824705" stroke-width="1"></path><path id="Vector_24" stroke="#191a23" stroke-linecap="round" stroke-linejoin="round" d="m92.10914 126.98886499999999 4.34815 9.79279c0.203776 0.46168000000000003 0.496704 0.87759 0.8619684999999999 1.22584s0.7957015 0.619885 1.2665354999999998 0.800975c0.47083400000000003 0.18109 0.972911 0.26765500000000003 1.4773759999999998 0.253725 0.50347 -0.01393 0.9999749999999998 -0.12736 1.46066 -0.33332500000000004l7.807765000000001 -3.459615" stroke-width="1"></path><path id="Vector_25" stroke="#191a23" stroke-linecap="round" stroke-linejoin="round" d="m107.28985499999999 118.821905 4.99092 11.191759999999999" stroke-width="1"></path><path id="Vector_26" stroke="#191a23" stroke-linecap="round" stroke-linejoin="round" d="m99.93581 102.31783999999999 -6.522225 -14.651375c-0.203776 -0.461481 -0.4966045 -0.8780874999999999 -0.8619684999999999 -1.2259395 -0.3652645 -0.347852 -0.7957015 -0.6199844999999999 -1.2665354999999998 -0.800975 -0.4707345 -0.1809905 -0.972712 -0.267058 -1.476978 -0.2534265 -0.5041665000000001 0.013731 -1.000771 0.1268625 -1.461058 0.333126l-8.6963 3.85662c-0.461481 0.203776 -0.8780874999999999 0.4966045 -1.2259395 0.8619684999999999 -0.347852 0.3652645 -0.6199844999999999 0.7956019999999999 -0.800975 1.266436 -0.1809905 0.47083400000000003 -0.267058 0.9728115 -0.2534265 1.4770774999999998 0.013731 0.5041665000000001 0.1268625 1.000771 0.333126 1.461058l8.01572 18.016465" stroke-width="1"></path><path id="Vector_27" stroke="#191a23" stroke-linecap="round" stroke-linejoin="round" d="m130.2455 96.98663 -5.217779999999999 -11.741000000000001c-0.203975 -0.461481 -0.496505 -0.8780874999999999 -0.8616699999999999 -1.2259395s-0.796 -0.620084 -1.266635 -0.800975c-0.47063499999999997 -0.1809905 -0.97311 -0.267058 -1.477575 -0.2534265 -0.50347 0.013731 -0.9999749999999998 0.1268625 -1.46066 0.333126l-8.6963 3.875525c-0.46168000000000003 0.20367649999999998 -0.878585 0.4966045 -1.22584 0.861869 -0.34825 0.3652645 -0.619885 0.7957015 -0.800975 1.2665354999999998 -0.18109 0.47083400000000003 -0.26765500000000003 0.9728115 -0.253725 1.476978 0.01393 0.504266 0.12736 1.000771 0.33332500000000004 1.4611574999999999l4.72625 10.6465" stroke-width="1"></path><path id="Vector_28" stroke="#191a23" stroke-linecap="round" stroke-linejoin="round" d="m157.44581499999998 113.84989 7.316235 -3.270565c0.46168000000000003 -0.203975 0.878585 -0.496505 1.22584 -0.8616699999999999 0.34825 -0.365165 0.619885 -0.796 0.800975 -1.266635 0.18109 -0.47063499999999997 0.26765500000000003 -0.97311 0.253725 -1.477575 -0.01393 -0.50347 -0.12736 -0.9999749999999998 -0.33332500000000004 -1.46066L158.603 87.288365" stroke-width="1"></path><path id="Vector_29" stroke="#191a23" stroke-linecap="round" stroke-linejoin="round" d="m148.333605 64.24317 3.4029 7.63762" stroke-width="1"></path><path id="Vector_30" stroke="#191a23" stroke-linecap="round" stroke-linejoin="round" d="m144.1357 54.8245 -6.20084 -13.95189c-0.203975 -0.461481 -0.496505 -0.8780874999999999 -0.8616699999999999 -1.2259395s-0.796 -0.620084 -1.266635 -0.800975c-0.47063499999999997 -0.1809905 -0.97311 -0.267058 -1.47658 -0.2534265 -0.504465 0.013731 -1.00097 0.1268625 -1.4616550000000001 0.333126l-8.6963 3.875525c-0.46168000000000003 0.20367649999999998 -0.87759 0.4966045 -1.22584 0.861869 -0.34825 0.365364 -0.619885 0.7957015 -0.800975 1.2665354999999998 -0.18109 0.47083400000000003 -0.26666 0.9728115 -0.253725 1.4770774999999998 0.01393 0.5041665000000001 0.12736 1.000771 0.33332500000000004 1.461058l9.887315 22.21437" stroke-width="1"></path><path id="Vector_31" stroke="#191a23" stroke-linecap="round" stroke-linejoin="round" d="M144.70285 64.18745c0.456705 0.00199 0.9124150000000001 -0.034626 1.36315 -0.10945l-1.909405 1.81488" stroke-width="1"></path><path id="Vector_32" stroke="#191a23" stroke-linecap="round" stroke-linejoin="round" d="m158.078635 89.23956 -2.2964599999999997 -3.4825 3.1571350000000002 0.313425" stroke-width="1"></path><path id="Vector_33" stroke="#191a23" stroke-linecap="round" stroke-linejoin="round" d="M82.8646945 68.058c-2.4539684999999998 -0.1674585 -4.9150015 -0.20526850000000002 -7.37295 -0.11343 -2.5531699999999997 0.166165 -3.6685649999999996 1.6099100000000002 0.90744 2.07955 3.346185 0.34228 6.84361 0.52934 9.90622 2.136265" stroke-width="1"></path><path id="Vector_34" stroke="#191a23" stroke-linecap="round" stroke-linejoin="round" d="M80.6715155 66.32272c0.32138500000000003 -1.4925 1.32335 -1.99 4.385960000000001 -1.70145" stroke-width="1"></path><path id="Vector_35" stroke="#191a23" stroke-linecap="round" stroke-linejoin="round" d="M79.4617945 67.891835c0.434815 -1.592 1.32335 -1.909405 4.23472 -1.644735" stroke-width="1"></path><path id="Vector_36" stroke="#191a23" stroke-linecap="round" stroke-linejoin="round" d="M81.9570555 64.7347c0.434815 -1.5124 1.43678 -1.7850300000000001 4.34815 -1.592 2.924902 0.339892 5.8283119999999995 0.8448545 8.6963 1.5124" stroke-width="1"></path><path id="Vector_37" stroke="#191a23" stroke-linecap="round" stroke-linejoin="round" d="M95.0225995 64.65907999999999c-1.78702 2.9584335 -2.483321 6.448694499999999 -1.96811 9.86642 -2.4819280000000004 0.5254595 -5.0562914999999995 0.4156115 -7.48439 -0.319395 -3.0845000000000002 -0.796 -5.61578 -3.734235 -3.4825 -3.4825 0.86764 0.16507049999999998 1.720952 0.3979005 2.552175 0.6965" stroke-width="1"></path><path id="Vector_38" stroke="#191a23" stroke-linecap="round" stroke-linejoin="round" d="M148.10575 66.05805c-0.37013999999999997 -3.35514 5.200865 -7.509265 5.419765 -7.67145 -0.715405 -3.582 -1.36315 -7.2903649999999995 -4.152135 -9.646525 -2.66262 2.2149695 -4.854604999999999 4.940772 -6.446605 8.016715" stroke-width="1"></path><path id="Vector_39" stroke="#191a23" stroke-linecap="round" stroke-linejoin="round" d="M104.58644 118.519425c5.889405 0.5492400000000001 11.710155 1.682545 17.375685 3.383 -2.637745 1.90045 -5.184945 3.9063700000000003 -7.63961 6.0167649999999995 -2.472575 2.1283049999999997 -4.277505000000001 4.924255 -5.198874999999999 8.053529999999999 -2.812865 9.817665000000002 -4.872515 19.835324999999997 -6.16303 29.965419999999998 5.1342 1.7760749999999998 10.507200000000001 2.76411 15.936914999999999 2.930275 1.105445 -9.549014999999999 3.181015 -18.960720000000002 6.192880000000001 -28.089845l24.131735 -11.460410000000001c12.96883 -6.766 6.749085 -23.045195 6.749085 -23.045195 0.510435 -8.488345 1.2099199999999999 -14.470284999999999 2.968085 -20.1985 6.695355 0.5895375 13.42454 0.6806795 20.133824999999998 0.27263000000000004 1.8327900000000001 -0.1682545 3.54618 -0.980075 4.836695 -2.2914849999999998 1.2905149999999999 -1.31141 2.07557 -3.0376355 2.21487 -4.872515l1.7183650000000001 -22.3278c-4.031739999999999 -1.1560905 -8.24855 -1.521952 -12.418595 -1.077585L174.0255 73.109615c-22.59247 0.3781 -24.70983 -1.720355 -25.333695 -3.346185 -1.34325 -3.535235 -0.057710000000000004 -8.243575 0.5482450000000001 -8.46944 3.2317600000000004 -1.21191 2.17109 -4.1640749999999995 0.434815 -3.025795 -0.64874 0.42586 -1.17211 0.582075 -1.085545 -0.18706 0.319395 -2.8347550000000004 -1.84871 -7.83264 -5.645630000000001 -1.32534 -3.84269 6.566999999999999 -0.365165 7.43265 1.758165 7.431655 0 0 -0.870625 2.49347 -1.3611600000000001 4.66854 -0.34029000000000004 1.5114049999999999 -2.07955 1.4417550000000001 -5.595879999999999 1.417875 -15.92 -0.10945 -26.99634 -2.514365 -42.3472995 -6.295365 -1.1604685 1.7329915 -1.9465184999999998 3.689062 -2.307803 5.74314 -0.36138400000000004 2.054078 -0.2900425 4.1609905 0.209348 6.185915 13.9161695 3.431755 23.3069795 5.6715 37.057879500000006 6.36203 -0.550235 7.928259499999999 -0.311435 15.891642500000001 0.71441 23.77254 -8.86744 -2.0626349999999998 -17.8702 -3.4964299999999997 -26.939625 -4.291435 -2.37208 -0.20895 -4.7390855 0.456705 -6.6546595 1.871595 -9.586825 7.047585 -18.811270999999998 14.57476 -27.638115000000003 22.553665000000002 2.55118 4.18298 5.8067205 7.89234 9.622644999999999 10.9649 7.8625894999999995 -6.870475 16.2645685 -13.097185 25.124844500000002 -18.621425v0Z" stroke-width="1"></path><path id="Vector_40" stroke="#191a23" stroke-linecap="round" stroke-linejoin="round" d="M136.08217 113.16931c-4.905349999999999 2.5760549999999998 -9.62364 5.493395 -14.120045000000001 8.729135" stroke-width="1"></path><path id="Vector_41" stroke="#191a23" stroke-linecap="round" stroke-linejoin="round" d="M155.99013 106.26599999999999c-9.113205 -2.07955 -17.620455 -3.0845000000000002 -25.16355 -2.3253150000000002" stroke-width="1"></path><path id="Vector_42" stroke="#191a23" stroke-linecap="round" stroke-linejoin="round" d="m136.819465 70.273865 6.2197450000000005 16.93888 11.873334999999999 -14.70809" stroke-width="1"></path><path id="Vector_43" stroke="#191a23" stroke-linecap="round" stroke-linejoin="round" d="M142.73673 69.80124c0.866645 0.693515 1.921345 1.109624 3.027785 1.1939005 1.10644 0.084376 2.21288 -0.1670605 3.17405 -0.7212755" stroke-width="1"></path><path id="Vector_44" stroke="#191a23" stroke-linecap="round" stroke-linejoin="round" d="m139.06916 70.29277 2.15517 5.52026 4.4426749999999995 -4.820774999999999 3.2715599999999996 5.2934 3.51633 -4.23472" stroke-width="1"></path><path id="Vector_45" stroke="#191a23" stroke-linecap="round" stroke-linejoin="round" d="M145.668 70.992255c-1.3044449999999999 5.02873 -4.1591 25.18146 -3.8805 32.951415" stroke-width="1"></path><path id="Vector_46" stroke="#191a23" stroke-linecap="round" stroke-linejoin="round" d="M150.643 105.15359000000001s-1.1342999999999999 8.258500000000002 5.33121 10.85147" stroke-width="1"></path><path id="Vector_47" stroke="#191a23" stroke-linecap="round" stroke-linejoin="round" d="M154.17524999999998 115.02199999999999c-10.551975 5.193899999999999 -20.668139999999998 11.23156 -30.247999999999998 18.054275 -3.087485 2.22681 -5.3431500000000005 5.419765 -6.408795 9.074399999999999 -2.41188 8.55899 -4.2188 17.27718 -5.40683 26.089895" stroke-width="1"></path><path id="Vector_48" stroke="#191a23" stroke-linecap="round" stroke-linejoin="round" d="M128.31221499999998 117.649795c-7.08639 -2.008905 -14.29019 -3.5750349999999997 -21.570604999999997 -4.68844 -2.418845 -0.36317499999999997 -4.886444999999999 0.18905 -6.91923 1.55021 -8.587646000000001 5.701350000000001 -16.796993 11.952935 -24.5765 18.71595" stroke-width="1"></path><path id="Vector_49" stroke="#191a23" stroke-linecap="round" stroke-linejoin="round" d="M77.382145 135.307065c-2.5416279999999998 -2.299445 -4.783761 -4.910324999999999 -6.673465 -7.769955 -1.5124 1.47459 -4.00786 3.459615 -6.522225 5.40683 3.642297 1.971095 7.6036905 3.2854900000000002 11.702195 3.8805 0.4639685 -0.5382950000000001 0.9628615 -1.04475 1.4934949999999998 -1.517375v0Z" stroke-width="1"></path><path id="Vector_50" stroke="#191a23" stroke-linecap="round" stroke-linejoin="round" d="M52.9002695 142.075055c-0.5482450000000001 0.6049599999999999 -0.838785 1.0427600000000001 -0.73829 1.2855400000000001 0.62486 1.51041 9.604735 -0.71839 14.406604999999999 -0.71839 1.4090194999999999 0.010945 2.8113725 -0.19303 4.1591 -0.6049599999999999 0.8490335 -0.460685 1.5940895000000002 -1.091515 2.189 -1.8526900000000002 -1.4581725 0.40397000000000005 -2.964503 0.60695 -4.4775 0.6049599999999999 -4.7063500000000005 0.0029850000000000002 -12.930024999999999 1.893485 -15.538915000000001 1.2855400000000001Z" stroke-width="1"></path><path id="Vector_51" stroke="#191a23" stroke-linecap="round" stroke-linejoin="round" d="M64.186455 132.92503499999998c-3.28947 2.53327 -9.206735 6.91923 -11.286285 9.154 2.627795 0.586055 10.832565 -1.2855400000000001 15.558815000000001 -1.2855400000000001 1.512997 0.000995 3.0191285 -0.20198500000000003 4.4775 -0.6049599999999999 0.90744 -1.001965 1.909405 -2.249695 2.94918 -3.4029 -4.100196 -0.57312 -8.0633805 -1.88055 -11.699209999999999 -3.8606v0Z" stroke-width="1"></path><path id="Vector_52" stroke="#191a23" stroke-linecap="round" stroke-linejoin="round" d="M115.570245 168.675385c-3.399915 -0.31044 -6.762020000000001 -0.9492299999999999 -10.038555 -1.909405 -0.28357499999999997 2.07955 -1.02087 5.17997 -1.791 8.258500000000002 4.0794999999999995 -0.7054549999999999 8.002785 -2.126315 11.588765 -4.19691 0.051739999999999994 -0.715405 0.12736 -1.49051 0.24079 -2.152185Z" stroke-width="1"></path><path id="Vector_53" stroke="#191a23" stroke-linecap="round" stroke-linejoin="round" d="M100.50296 189.18731c-0.07561999999999999 0.8129149999999999 -0.01791 1.340265 0.207955 1.4556850000000001 1.4616550000000001 0.745255 7.10032 -6.514265 10.889280000000001 -9.471405 1.113405 -0.8616699999999999 2.088505 -1.887515 2.892465 -3.043705 0.38904500000000003 -0.88754 0.58904 -1.847715 0.586055 -2.816845 -0.90147 1.214895 -1.96413 2.30243 -3.1571350000000002 3.232755 -3.7083649999999997 2.902415 -8.979875 9.490310000000001 -11.41862 10.643514999999999Z" stroke-width="1"></path><path id="Vector_54" stroke="#191a23" stroke-linecap="round" stroke-linejoin="round" d="M103.735715 175.027465c-1.02087 4.026764999999999 -2.968085 11.135045 -3.232755 14.159845 2.4198399999999998 -1.153205 7.733140000000001 -7.712245 11.4425 -10.62461 1.189025 -0.9352999999999999 2.249695 -2.0228349999999997 3.1571350000000002 -3.232755 0.094525 -1.342255 0.11343 -2.94918 0.22686 -4.49939 -3.586975 2.07159 -7.51225 3.49245 -11.593739999999999 4.19691v0Z" stroke-width="1"></path><path id="Vector_55" stroke="#191a23" stroke-linecap="round" stroke-linejoin="round" d="M18.303024999999998 109.066925 9.077434749999998 88.04456499999999" stroke-width="1"></path><path id="Vector_56" stroke="#191a23" stroke-linecap="round" stroke-linejoin="round" d="m4.975 98.593555 4.102385 -10.54899 10.54899 4.12129" stroke-width="1"></path><path id="Vector_57" stroke="#191a23" stroke-linecap="round" stroke-linejoin="round" d="M185.44412 148.502755c0.19701000000000002 0.450735 0.255715 0.950225 0.16915000000000002 1.43479s-0.315415 0.932315 -0.6567000000000001 1.286535c-0.341285 0.355215 -0.7810750000000001 0.599985 -1.26166 0.7054549999999999 -0.480585 0.104475 -0.982065 0.064675 -1.439765 -0.11542000000000001 -0.458695 -0.180095 -0.852715 -0.492525 -1.133305 -0.896495 -0.28058999999999995 -0.40397000000000005 -0.43581 -0.882565 -0.44377 -1.37509 -0.008955 -0.49152999999999997 0.128355 -0.9760949999999999 0.395015 -1.390015 0.26566500000000004 -0.41391999999999995 0.64874 -0.739285 1.10047 -0.9352999999999999 0.6049599999999999 -0.259695 1.28753 -0.269645 1.8994550000000001 -0.028855000000000002 0.6119249999999999 0.24079 1.1044500000000002 0.7124199999999999 1.3711099999999998 1.314395v0Z" stroke-width="1"></path><path id="Vector_58" stroke="#191a23" stroke-linecap="round" stroke-linejoin="round" d="M193.819035 151.7375c0.19701000000000002 0.450735 0.255715 0.950225 0.16915000000000002 1.43479s-0.315415 0.932315 -0.6567000000000001 1.286535c-0.341285 0.355215 -0.7810750000000001 0.599985 -1.26166 0.7054549999999999 -0.480585 0.104475 -0.982065 0.064675 -1.439765 -0.11542000000000001 -0.458695 -0.180095 -0.852715 -0.492525 -1.133305 -0.896495 -0.28058999999999995 -0.40397000000000005 -0.43581 -0.882565 -0.44377 -1.37509 -0.008955 -0.49152999999999997 0.128355 -0.9760949999999999 0.395015 -1.390015 0.26566500000000004 -0.41391999999999995 0.64874 -0.739285 1.10047 -0.9352999999999999 0.6049599999999999 -0.2587 1.28753 -0.269645 1.8994550000000001 -0.028855000000000002 0.6119249999999999 0.24079 1.1044500000000002 0.713415 1.3711099999999998 1.314395v0Z" stroke-width="1"></path><path id="Vector_59" stroke="#191a23" stroke-linecap="round" stroke-linejoin="round" d="m184.38544000000002 158.52339999999998 5.89836 -14.954849999999999" stroke-width="1"></path><path id="Vector_60" stroke="#191a23" stroke-linecap="round" stroke-linejoin="round" d="M185.198355 56.207550000000005c0.026865 -2.154772 0.26666 -4.301584 0.71839 -6.408795 0.422875 -1.7218475 1.037785 -3.3906615 1.833785 -4.975 1.1741 -2.3243199999999997 1.01092 -2.711375 -1.115395 -0.83182 -0.818885 0.7137135 -1.5611549999999998 1.5121015 -2.2118849999999997 2.3820300000000003 -2.217855 2.8356505 -4.088455 5.926518499999999 -5.572 9.206735" stroke-width="1"></path><path id="Vector_61" stroke="#191a23" stroke-linecap="round" stroke-linejoin="round" d="M182.816325 48.588834999999996c-1.24773 1.47459 -1.73926 -2.3820300000000003 -2.4009349999999996 -4.026764999999999 -0.5482450000000001 -1.3611600000000001 -1.563145 -2.5710800000000003 -1.4925 1.4925 -0.09552000000000001 3.190766 -0.38606 6.372776 -0.86963 9.528120000000001" stroke-width="1"></path><path id="Vector_62" stroke="#191a23" stroke-linecap="round" stroke-linejoin="round" d="M187.37242999999998 45.601845000000004c0.8477399999999999 -1.0780824999999998 1.79697 -2.0719879999999997 2.83575 -2.968085 2.032785 -1.666625 2.34621 -1.01888 2.11736 -0.661675 -0.8955 1.4049399999999999 -2.587 3.51633 -3.383 4.8396799999999995 -1.360165 2.2930770000000003 -2.5661050000000003 4.674112 -3.610855 7.127185" stroke-width="1"></path><path id="Vector_63" stroke="#191a23" stroke-linecap="round" stroke-linejoin="round" d="M190.32161 44.78893c0.359195 -0.26467 0.41690499999999997 -0.2985 0.586055 -0.41591 2.193975 -1.503445 2.458645 -0.81192 2.189 -0.47262499999999996 -1.03679 1.326335 -2.77804 3.12032 -3.81881 4.291435 -1.320365 1.2603665 -2.4427250000000003 2.7136635 -3.32728 4.31034" stroke-width="1"></path><path id="Vector_64" stroke="#191a23" stroke-linecap="round" stroke-linejoin="round" d="m63.1656845 40.554210000000005 -8.50725 14.329989999999999 -16.240389999999998 -3.7053800000000003" stroke-width="1"></path><path id="Vector_65" stroke="#191a23" stroke-linecap="round" stroke-linejoin="round" d="M69.8578555 48.040589999999995c-1.827815 -3.9915419999999995 -5.1565875 -7.1008175 -9.263250999999999 -8.652719 -4.106763 -1.5518020000000001 -8.659883 -1.4209595 -12.670728 0.36426949999999997 -4.0107455 1.785229 -7.1553435 5.080569499999999 -8.7509255 9.170517 -1.5955819999999998 4.0899475 -1.5132955 8.644162 0.2289495 12.6738125" stroke-width="1"></path><path id="Vector_66" stroke="#191a23" stroke-linecap="round" stroke-linejoin="round" d="m170.66041 43.389959999999995 1.8904999999999998 -4.87749 -4.858585 -1.833785 1.8904999999999998 -4.896395 -4.9153 -1.985025 1.8904999999999998 -4.87749 -5.009825 -1.9661199999999999" stroke-width="1"></path><path id="Vector_67" stroke="#191a23" stroke-linecap="round" stroke-linejoin="round" d="m172.721055 35.166285 1.8904999999999998 -4.87749 -4.8396799999999995 -1.833785 1.8904999999999998 -4.896395 -4.9342049999999995 -1.985025 1.909405 -4.87749 -5.02873 -1.9472150000000001" stroke-width="1"></path><path id="Vector_68" stroke="#191a23" stroke-linecap="round" stroke-linejoin="round" d="M175.12 123.778c1.6158800000000002 3.51832 2.404915 7.35902 2.30641 11.229569999999999 -0.235815 5.839655 -2.428795 11.429565 -6.227705 15.871245 -3.7989100000000002 4.440685 -8.981864999999999 7.4744399999999995 -14.71406 8.611725 -5.73319 1.137285 -11.6813 0.31243 -16.888135 -2.3422300000000003 -5.206835 -2.6536649999999997 -9.367925 -6.9829099999999995 -11.815625 -12.29024" stroke-width="1"></path><path id="Vector_69" stroke="#191a23" stroke-linecap="round" stroke-linejoin="round" d="m173.87426 147.330645 -22.402425 -12.96883 2.9869899999999996 25.46603" stroke-width="1"></path><path id="Vector_70" stroke="#191a23" stroke-linecap="round" stroke-linejoin="round" d="m151.471835 134.361815 -19.6811 16.693115000000002" stroke-width="1"></path><path id="Vector_71" stroke="#191a23" stroke-linecap="round" stroke-linejoin="round" d="m95.85233000000001 8.30227005 5.973979999999999 12.87431495" stroke-width="1"></path><path id="Vector_72" stroke="#191a23" stroke-linecap="round" stroke-linejoin="round" d="m105.28592499999999 11.742989999999999 -12.893309499999999 5.992884999999999" stroke-width="1"></path><path id="Vector_73" stroke="#191a23" stroke-linecap="round" stroke-linejoin="round" d="m43.2388195 149.69377 -3.686475 5.162059999999999 -2.627795 -5.785925000000001 6.3142700000000005 0.623865Z" stroke-width="1"></path><path id="Vector_74" stroke="#191a23" stroke-linecap="round" stroke-linejoin="round" d="m131.07234499999998 106.042125 1.58802 0.34029000000000004" stroke-width="1"></path></g></g></svg>