<svg xmlns="http://www.w3.org/2000/svg" fill="none" viewBox="-0.5 -0.5 200 200" id="Video-Conference--Streamline-Bangalore.svg"><desc>Video Conference Streamline Illustration: https://streamlinehq.com</desc><g id="Work-Video-conference-01"><g id="color 2"><path id="Vector" fill="#b9ff66" d="M94.5647005 17.575680000000002c-7.419715 0.20695999999999998 -13.27131 5.870500000000001 -13.064350000000001 12.648439999999999 0.22686 7.89035 8.344069999999999 13.30912 16.48118 11.534040000000001l-0.434815 -5.11629c-0.0946245 -0.847939 -0.0211935 -1.706226 0.216114 -2.5258075 0.23730749999999998 -0.819482 0.6337155 -1.584239 1.1667370000000001 -2.2504910000000002 0.5330214999999999 -0.666252 1.1923085 -1.2209645 1.9395535 -1.632397 0.747245 -0.411333 1.569115 -0.671426 2.416855 -0.7652545l5.0406699999999995 -0.43382c-0.414915 -6.56899 -6.494365 -11.666375 -13.761944499999998 -11.45842Z" stroke-width="1"></path><path id="Subtract" fill="#b9ff66" fill-rule="evenodd" d="m87.5419905 150.08182000000002 60.4851545 -5.097385c1.6517 -0.14129 3.1800200000000003 -0.932315 4.24865 -2.199945 1.069625 -1.26763 1.592 -2.90739 1.4526999999999999 -4.559089999999999l-3.511355 -41.248720000000006c-0.14129 -1.6517 -0.932315 -3.179622 -2.199945 -4.2485504999999995 -1.266635 -1.0689285 -2.906395 -1.591403 -4.558095000000001 -1.4527995l-32.3176 2.719335c-0.5711299999999999 0.8709235 -0.94326 1.3246434999999999 -1.80095 1.9988555000000001 -0.920375 0.7037635 -1.99398 1.1785775 -3.1342499999999998 1.385239 -1.139275 0.206562 -2.3123799999999997 0.138902 -3.4208100000000004 -0.197209 -1.10843 -0.33621049999999997 -2.12134 -0.93132 -2.9541549999999996 -1.7361754999999999 -0.14726 -0.1451705 -0.29452 -0.2908385 -0.44148149999999997 -0.4369045l-10.082136 0.8469439999999999c3.3444935 11.869255500000001 3.6957285 20.103875499999997 3.941394 31.863780499999997 0.20347749999999998 3.45663 -0.2697445 6.920225 -1.393 10.19477l-4.314121 12.167855Zm35.2260845 -26.8451 6.098355 2.8506750000000003 -1.0954949999999999 -12.95092 -5.531205 3.85065c-0.194025 -1.21987 -0.84376 -2.32034 -1.8178649999999998 -3.08052 -0.974105 -0.76018 -2.19895 -1.1223599999999998 -3.429765 -1.0149l-11.799705 1.0198749999999999c-0.641775 0.052735 -1.266635 0.23283 -1.839755 0.5283450000000001 -0.572125 0.29551499999999997 -1.079575 0.7024699999999999 -1.4934949999999998 1.1959899999999999 -0.414915 0.492525 -0.7263499999999999 1.063655 -0.9193800000000001 1.678565 -0.192035 0.613915 -0.26069000000000003 1.260665 -0.20198500000000003 1.90244l0.47163 5.4725c0.052735 0.641775 0.23283 1.266635 0.5283450000000001 1.8387600000000002 0.29551499999999997 0.572125 0.7024699999999999 1.08057 1.1959899999999999 1.49449 0.492525 0.41391999999999995 1.063655 0.7263499999999999 1.67757 0.9193800000000001 0.61491 0.192035 1.26166 0.26069000000000003 1.903435 0.20198500000000003l11.779805 -0.98107c0.64078 -0.054725 1.26564 -0.235815 1.83677 -0.532325 0.5711299999999999 -0.29651 1.077585 -0.703465 1.491505 -1.1959899999999999 0.41391999999999995 -0.492525 0.7263499999999999 -1.0626600000000002 0.9193800000000001 -1.6765750000000001 0.15522 -0.49352 0.231835 -1.0079349999999998 0.225865 -1.523345l0 0.00199Z" clip-rule="evenodd" stroke-width="1"></path><path id="Vector_2" fill="#b9ff66" d="M167.09432999999999 97.146825c0.051739999999999994 0.450735 0.012934999999999999 0.9072410000000001 -0.11343 1.343051 -0.126365 0.43581 -0.337305 0.842367 -0.62088 1.196189 -0.28457 0.35422 -0.6358050000000001 0.647745 -1.0338049999999999 0.864655 -0.398 0.217905 -0.8358 0.35422 -1.286535 0.40098500000000004 -0.45173 0.047760000000000004 -0.90744 0.004975 -1.342255 -0.124375 -0.434815 -0.13034500000000002 -0.83978 -0.34426999999999996 -1.1910150000000002 -0.631825 -0.35123499999999996 -0.287555 -0.641775 -0.64078 -0.8557 -1.0410685 -0.213925 -0.4000895 -0.34625999999999996 -0.8385859999999999 -0.39004 -1.2902164999999999l-0.54725 -5.174c-0.08656499999999999 -0.901868 0.186065 -1.801547 0.759185 -2.503221 0.5741149999999999 -0.7015745 1.40096 -1.1483295 2.30243 -1.2428545000000002 0.900475 -0.0946245 1.80294 0.170543 2.50939 0.7377925000000001 0.7064499999999999 0.5672495000000001 1.16017 1.390612 1.2626549999999999 2.290888l0.54725 5.174Z" stroke-width="1"></path></g><g id="color 1"><path id="Vector_3" fill="#191a23" d="M129.22463 34.792165c0.29252999999999996 0.68655 0.5144150000000001 1.4014575 0.66068 2.13328 0.566155 -1.1891245000000001 0.900475 -2.4754604999999996 0.984055 -3.789955 -0.586055 0.641775 -1.1342999999999999 1.1850450000000001 -1.644735 1.6566750000000001Z" stroke-width="1"></path><path id="Vector_4" fill="#191a23" d="M77.8944705 60.749725c0.162384 0.8928135 0.4685455 1.753389 0.9064450000000001 2.5481949999999998 1.453695 0 3.05863 -0.188055 3.45464 -0.773115 0.056715 -0.0995 0.11343 -0.207955 0.17014500000000002 -0.32138500000000003 -0.54725 1.07858 -2.5273 -0.01592 -4.53123 -1.453695Z" stroke-width="1"></path><path id="Vector_5" fill="#191a23" d="M27.924575500000003 102.734745c-3.511355 -5.0406699999999995 -25.8440902 13.365835 -22.6352152 18.009500000000003l0.54725 0.490535c4.6446202 2.587 24.8252102 -14.53496 22.0879652 -18.500035Z" stroke-width="1"></path><path id="Vector_6" fill="#191a23" d="M66.13367 167.71322c-4.58894 2.182035 9.602745 27.78239 13.93 24.145665 2.58899 -3.7571199999999996 -10.305214999999999 -25.88194 -13.93 -24.145665Z" stroke-width="1"></path><path id="Vector_7" fill="#191a23" d="M22.959525499999998 118.7433c-0.0884555 0.325365 -0.113828 0.665655 -0.074625 1.00097 0.18905 1.20793 1.736275 1.2646449999999998 2.775055 0.98107 -0.7274444999999999 -0.868635 -1.653889 -1.5482200000000002 -2.70043 -1.98204Z" stroke-width="1"></path><path id="Vector_8" fill="#191a23" d="M32.983155499999995 108.88882000000001c0.717395 0.88754 1.453695 1.774085 2.114375 2.587 0.11064399999999999 -0.31641 0.18049300000000001 -0.64675 0.207955 -0.98107 0.018904999999999998 -0.28357499999999997 -0.036218 -0.5681449999999999 -0.1598965 -0.8238599999999999 -0.1236785 -0.25671 -0.3117335 -0.47561 -0.5457575 -0.637795 -0.2339245 -0.162185 -0.5059575 -0.259695 -0.789234 -0.28556499999999996 -0.283376 -0.024875 -0.5684435 0.023880000000000002 -0.827442 0.14129Z" stroke-width="1"></path><path id="Vector_9" fill="#191a23" d="M67.34150050000001 70.645c-0.209149 0.022487 -0.40695499999999996 0.10636549999999999 -0.5684435 0.2412875 -0.161389 0.1348225 -0.27919700000000003 0.3145195 -0.33859849999999997 0.516405 -0.059302 0.20178600000000002 -0.057411500000000004 0.416706 0.005373 0.6174970000000001 0.06288400000000001 0.2006915 0.1837765 0.3783985 0.3475535 0.510435 0.163777 0.1320365 0.362976 0.212532 0.572523 0.2313375s0.41989 -0.0249745 0.604562 -0.1256685c0.18467199999999998 -0.1007935 0.33531500000000003 -0.2540235 0.432825 -0.440387 0.0976095 -0.1863635 0.137708 -0.39750250000000004 0.1153205 -0.6066515 -0.012934999999999999 -0.139698 -0.0538295 -0.2753165 -0.1200965 -0.39889549999999996 -0.066267 -0.1236785 -0.1567125 -0.2327305 -0.265864 -0.320788 -0.109251 -0.08795800000000001 -0.235019 -0.15323 -0.3698415 -0.191836 -0.1348225 -0.038606 -0.27611250000000004 -0.04975 -0.415313 -0.0327355Z" stroke-width="1"></path><path id="Vector_10" fill="#191a23" d="M59.7904455 79.419905c-0.209149 0.022487 -0.40695499999999996 0.10636549999999999 -0.5684435 0.2412875 -0.161389 0.1348225 -0.27919700000000003 0.3145195 -0.338499 0.516405 -0.0594015 0.20178600000000002 -0.057511 0.416706 0.0052735 0.6174970000000001 0.06288400000000001 0.2006915 0.1837765 0.3783985 0.3475535 0.510435 0.163777 0.1320365 0.362976 0.212532 0.572523 0.2313375s0.41989 -0.0249745 0.604562 -0.1256685c0.18467199999999998 -0.1007935 0.33531500000000003 -0.2540235 0.4329245 -0.440387 0.09751 -0.1863635 0.1376085 -0.39750250000000004 0.115221 -0.6066515 -0.014626499999999999 -0.1390015 -0.056516000000000004 -0.27372450000000004 -0.12338 -0.3965075 -0.06686399999999999 -0.12278299999999999 -0.1573095 -0.2311385 -0.26606300000000005 -0.3188975 -0.10885299999999999 -0.0876595 -0.2339245 -0.153031 -0.3680505 -0.1923335 -0.134126 -0.0393025 -0.2747195 -0.051739999999999994 -0.41362150000000003 -0.0365165Z" stroke-width="1"></path><path id="Vector_11" fill="#191a23" d="M64.26505999999999 91.01165499999999c-0.20924849999999998 0.022288 -0.407154 0.106067 -0.568742 0.24079 -0.16158799999999998 0.1348225 -0.27959500000000004 0.3145195 -0.3389965 0.5163055 -0.059501 0.20178600000000002 -0.0578095 0.4168055 0.004975 0.6175965 0.062685 0.2008905 0.1835775 0.3785975 0.347255 0.5107335 0.163777 0.132136 0.3630755 0.21273099999999998 0.5726225 0.231636 0.209547 0.0188055 0.41998949999999996 -0.024875 0.604761 -0.12556900000000001 0.18467199999999998 -0.1007935 0.33531500000000003 -0.2540235 0.4329245 -0.4404865 0.0976095 -0.1863635 0.137708 -0.39750250000000004 0.1153205 -0.606751 -0.0148255 -0.138902 -0.056715 -0.273426 -0.12357900000000001 -0.3961095 -0.0667645 -0.122584 -0.15711050000000001 -0.23084000000000002 -0.2657645 -0.3184995 -0.108654 -0.087759 -0.233626 -0.1531305 -0.367553 -0.1925325 -0.133927 -0.039402000000000006 -0.27442099999999997 -0.0520385 -0.4132235 -0.0371135Z" stroke-width="1"></path><path id="Vector_12" fill="#191a23" d="M54.4482905 77.41896000000001c-0.20924849999999998 0.022288 -0.407154 0.106067 -0.568742 0.2408895 -0.16158799999999998 0.13472299999999998 -0.27959500000000004 0.31442 -0.3389965 0.516206 -0.059501 0.2018855 -0.057710000000000004 0.4168055 0.004975 0.6175965 0.062685 0.2008905 0.1835775 0.3785975 0.3473545 0.5107335 0.1636775 0.132136 0.362976 0.21273099999999998 0.572523 0.231636 0.209547 0.018904999999999998 0.41998949999999996 -0.024875 0.604761 -0.12556900000000001 0.18467199999999998 -0.1007935 0.3354145 -0.2540235 0.4329245 -0.4404865 0.0976095 -0.1863635 0.137708 -0.39750250000000004 0.1153205 -0.606751 -0.014726000000000001 -0.13880250000000002 -0.056715 -0.273426 -0.12357900000000001 -0.39601000000000003 -0.0667645 -0.1226835 -0.15711050000000001 -0.2309395 -0.2657645 -0.31859899999999997 -0.108654 -0.087759 -0.233626 -0.1531305 -0.367553 -0.1925325 -0.133927 -0.039402000000000006 -0.27442099999999997 -0.0520385 -0.4132235 -0.0371135Z" stroke-width="1"></path><path id="Vector_13" fill="#191a23" d="M76.3283405 74.795145c-0.20924849999999998 0.022288 -0.4072535 0.1061665 -0.5688415 0.240989s-0.2794955 0.3145195 -0.338897 0.516405c-0.0594015 0.2018855 -0.0576105 0.41690499999999997 0.005174 0.617696 0.06278450000000001 0.2008905 0.1837765 0.3785975 0.347653 0.510634 0.1638765 0.132136 0.36317499999999997 0.2126315 0.5728215 0.2313375 0.209547 0.0188055 0.420089 -0.025074 0.604761 -0.125967 0.18467199999999998 -0.10089300000000001 0.3352155 -0.254322 0.4327255 -0.4408845 0.0974105 -0.18646300000000002 0.1374095 -0.3977015 0.1147235 -0.60695 -0.014924999999999999 -0.13880250000000002 -0.056914 -0.273227 -0.123778 -0.3957115 -0.06686399999999999 -0.122584 -0.15721 -0.2307405 -0.265864 -0.31830050000000004 -0.108654 -0.08756 -0.2335265 -0.1529315 -0.3674535 -0.19223400000000002 -0.133927 -0.039402000000000006 -0.274222 -0.051939000000000006 -0.4130245 -0.037014Z" stroke-width="1"></path><path id="Vector_14" fill="#191a23" d="M70.17336999999999 83.40388499999999c-0.20924849999999998 0.022487 -0.40705450000000004 0.106465 -0.5684435 0.24138700000000002 -0.1614885 0.134922 -0.2792965 0.3147185 -0.33859849999999997 0.516604 -0.0592025 0.2018855 -0.057311999999999995 0.4168055 0.0056715 0.6175965 0.06288400000000001 0.200791 0.18387599999999998 0.3783985 0.34775249999999996 0.5103355 0.1638765 0.1320365 0.36317499999999997 0.2124325 0.572722 0.2311385 0.20964649999999999 0.0186065 0.41998949999999996 -0.025273 0.6046615 -0.126166 0.1845725 -0.10089300000000001 0.33511599999999997 -0.254322 0.4325265 -0.440785 0.09751 -0.18646300000000002 0.1374095 -0.3977015 0.11482300000000001 -0.6068505 -0.014726000000000001 -0.138902 -0.0568145 -0.2735255 -0.1236785 -0.396209 -0.06686399999999999 -0.122584 -0.1573095 -0.23084000000000002 -0.2661625 -0.3184995 -0.10875349999999999 -0.0876595 -0.2337255 -0.1529315 -0.3678515 -0.19213449999999999 -0.1340265 -0.039202999999999995 -0.27462000000000003 -0.0516405 -0.41342249999999997 -0.036417Z" stroke-width="1"></path><path id="Vector_15" fill="#191a23" d="M81.2177705 87.405775c-0.209149 0.022288 -0.407154 0.106067 -0.568742 0.24079 -0.16158799999999998 0.1348225 -0.2794955 0.3145195 -0.3389965 0.5163055 -0.0594015 0.2018855 -0.057710000000000004 0.4168055 0.004975 0.6175965 0.06278450000000001 0.2008905 0.1835775 0.3785975 0.3473545 0.5107335 0.163777 0.132136 0.362976 0.21273099999999998 0.572523 0.231636 0.20964649999999999 0.018904999999999998 0.420089 -0.024875 0.604761 -0.12556900000000001 0.1847715 -0.1007935 0.3354145 -0.2540235 0.43302399999999996 -0.4404865 0.0976095 -0.1863635 0.137708 -0.39750250000000004 0.115221 -0.606751 -0.014726000000000001 -0.138902 -0.056715 -0.273426 -0.1234795 -0.3961095 -0.06686399999999999 -0.122584 -0.15721 -0.23084000000000002 -0.265864 -0.3184995 -0.108654 -0.087759 -0.2335265 -0.1531305 -0.3674535 -0.1925325 -0.1340265 -0.039402000000000006 -0.27442099999999997 -0.0520385 -0.413323 -0.0371135Z" stroke-width="1"></path><path id="Vector_16" fill="#191a23" d="M85.8047205 69.093795c-0.209149 0.022288 -0.407154 0.106067 -0.568742 0.24079 -0.16158799999999998 0.1348225 -0.2794955 0.3145195 -0.3389965 0.5163055 -0.059501 0.2018855 -0.057710000000000004 0.4168055 0.004975 0.6175965 0.06278450000000001 0.2008905 0.1835775 0.3785975 0.3473545 0.5107335 0.163777 0.132136 0.362976 0.21273099999999998 0.572523 0.231636 0.209547 0.018904999999999998 0.420089 -0.024875 0.604761 -0.12556900000000001 0.1847715 -0.1007935 0.3354145 -0.2540235 0.43302399999999996 -0.4404865 0.0976095 -0.1863635 0.137708 -0.39750250000000004 0.115221 -0.606751 -0.012934999999999999 -0.13959850000000001 -0.05373 -0.2751175 -0.11999699999999999 -0.3986965 -0.0661675 -0.1234795 -0.1565135 -0.2325315 -0.2655655 -0.32058899999999996 -0.1091515 -0.08795800000000001 -0.2347205 -0.15323 -0.369543 -0.19193549999999998 -0.13472299999999998 -0.038606 -0.275814 -0.0498495 -0.4150145 -0.033034Z" stroke-width="1"></path><path id="Vector_17" fill="#191a23" d="M95.69711 86.952055c-0.20924849999999998 0.022288 -0.4072535 0.106067 -0.5688415 0.24079 -0.1614885 0.1348225 -0.2794955 0.3145195 -0.3389965 0.5163055 -0.0594015 0.2018855 -0.057710000000000004 0.4168055 0.004975 0.6175965 0.06278450000000001 0.2008905 0.1835775 0.3785975 0.3473545 0.5107335 0.163777 0.132136 0.362976 0.21273099999999998 0.5726225 0.231636 0.209547 0.018904999999999998 0.41998949999999996 -0.024875 0.6046615 -0.12556900000000001 0.1847715 -0.1007935 0.3354145 -0.2540235 0.43302399999999996 -0.4404865 0.0976095 -0.1863635 0.137708 -0.39750250000000004 0.115221 -0.606751 -0.030049 -0.2802915 -0.17014500000000002 -0.5373 -0.3895425 -0.7143105 -0.2193975 -0.17711 -0.5001865 -0.2597945 -0.780478 -0.2299445Z" stroke-width="1"></path><path id="Vector_18" fill="#191a23" d="M95.73491999999999 77.04086c0.138902 -0.014626499999999999 0.2735255 -0.056516000000000004 0.396209 -0.1232805 0.1226835 -0.0667645 0.231039 -0.15711050000000001 0.318798 -0.2657645 0.0876595 -0.10875349999999999 0.153031 -0.2337255 0.192433 -0.36775199999999997 0.0393025 -0.1340265 0.051839500000000004 -0.27442099999999997 0.036815 -0.413323 -0.0371135 -0.2745205 -0.179896 -0.523768 -0.3979005 -0.694709 -0.2180045 -0.170941 -0.49421649999999995 -0.25004350000000003 -0.7696324999999999 -0.220492 -0.27551549999999997 0.0295515 -0.528544 0.1654685 -0.7053555 0.3787965 -0.17681149999999998 0.2132285 -0.263476 0.4870525 -0.2414865 0.7632645 0.014626499999999999 0.138902 0.056516000000000004 0.2735255 0.1232805 0.3961095 0.06686399999999999 0.1226835 0.15711050000000001 0.2309395 0.265864 0.3184995 0.10875349999999999 0.0876595 0.233626 0.153031 0.3676525 0.19223400000000002 0.1340265 0.039202999999999995 0.2745205 0.0516405 0.413323 0.036417Z" stroke-width="1"></path><path id="Vector_19" fill="#191a23" d="M107.269955 89.19876500000001c-0.20895 0.022288 -0.40695499999999996 0.106067 -0.56914 0.2408895 -0.16119 0.13472299999999998 -0.27959500000000004 0.31442 -0.33830000000000005 0.516206 -0.059699999999999996 0.2018855 -0.057710000000000004 0.4168055 0.004975 0.6175965 0.062685 0.2008905 0.18308 0.3785975 0.347255 0.5107335 0.16318000000000002 0.132136 0.36317499999999997 0.21273099999999998 0.572125 0.231636 0.209945 0.018904999999999998 0.41989 -0.024875 0.6049599999999999 -0.12556900000000001 0.18506999999999998 -0.1007935 0.33531500000000003 -0.2540235 0.432825 -0.4404865 0.09751 -0.1863635 0.13731000000000002 -0.39750250000000004 0.11542000000000001 -0.606751 -0.014924999999999999 -0.138902 -0.056715 -0.273426 -0.12338 -0.3961095 -0.066665 -0.122584 -0.15721 -0.23084000000000002 -0.26566500000000004 -0.3184995 -0.10945 -0.087759 -0.23382499999999998 -0.1531305 -0.36815 -0.1925325 -0.13333 -0.039402000000000006 -0.27462000000000003 -0.0520385 -0.412925 -0.0371135Z" stroke-width="1"></path><path id="Vector_20" fill="#191a23" d="M108.591315 77.9483c-0.20895 0.022288 -0.40695499999999996 0.1061665 -0.56914 0.240989 -0.16119 0.1348225 -0.27959500000000004 0.3145195 -0.33830000000000005 0.516405 -0.059699999999999996 0.2018855 -0.057710000000000004 0.41690499999999997 0.004975 0.6177955 0.062685 0.200791 0.184075 0.378498 0.347255 0.510634 0.16417500000000002 0.1320365 0.36317499999999997 0.212532 0.57312 0.2313375 0.209945 0.018706 0.41989 -0.025173499999999998 0.6049599999999999 -0.1260665 0.184075 -0.10089300000000001 0.33531500000000003 -0.254322 0.432825 -0.440785 0.09751 -0.1865625 0.13731000000000002 -0.39780099999999996 0.114425 -0.6070495 -0.014924999999999999 -0.13880250000000002 -0.056715 -0.2733265 -0.12338 -0.3959105 -0.066665 -0.122584 -0.15721 -0.2307405 -0.26566500000000004 -0.3184 -0.10945 -0.0876595 -0.23382499999999998 -0.1529315 -0.36815 -0.19223400000000002 -0.13333 -0.0393025 -0.27462000000000003 -0.051739999999999994 -0.412925 -0.036715500000000005Z" stroke-width="1"></path><path id="Vector_21" fill="#191a23" d="M118.02988500000001 74.172275c-0.02189 -0.20924849999999998 -0.106465 -0.407154 -0.24079 -0.568742 -0.13532 -0.16158799999999998 -0.31442 -0.27959500000000004 -0.516405 -0.3389965 -0.20198500000000003 -0.059501 -0.41690499999999997 -0.057710000000000004 -0.617895 0.004975s-0.3781 0.1835775 -0.510435 0.3473545c-0.132335 0.1636775 -0.21293 0.362976 -0.231835 0.572523 -0.018904999999999998 0.209547 0.024875 0.41998949999999996 0.12537 0.604761 0.10149 0.18467199999999998 0.25472 0.3354145 0.440785 0.43302399999999996 0.186065 0.09751 0.398 0.137708 0.60695 0.115221 0.1393 -0.014726000000000001 0.273625 -0.056715 0.39601000000000003 -0.12357900000000001 0.122385 -0.0667645 0.23084000000000002 -0.15711050000000001 0.3184 -0.2657645 0.08756 -0.108654 0.15323 -0.2335265 0.19303 -0.367553 0.038805 -0.133927 0.051739999999999994 -0.2743215 0.036815 -0.4132235Z" stroke-width="1"></path><path id="Vector_22" fill="#191a23" d="M149.537555 15.102110000000001c-0.11542000000000001 -1.4637445 -0.74824 -2.838536 -1.786025 -3.8771169999999997 -1.03878 -1.038581 -2.4128749999999997 -1.6728935 -3.8765199999999997 -1.7889503 -1.463645 -0.11606675 -2.920325 0.29375385 -4.10935 1.1558318 -1.189025 0.8619684999999999 -2.030795 2.119748 -2.375065 3.5470755 -1.70543 -0.7937115 -3.586975 -1.134897 -5.46255 -0.990622 -1.875575 0.144275 -3.6815 0.769135 -5.24564 1.8143824999999998s-2.8327649999999998 2.4755599999999998 -3.68349 4.153329 -1.254695 3.5462795 -1.1741 5.425635499999999c2.273575 -0.6163029999999999 4.61083 -0.9712195 6.965 -1.057685 0.12736 0.773314 0.303475 1.537673 0.5283450000000001 2.2885 0.207955 0.47163 0.5283450000000001 0.50944 1.0945 -0.359195 1.26564 -1.8308 3.83274 1.00097 0.8308249999999999 3.190965 1.29549 2.242332 2.94122 4.2628785 4.875500000000001 5.984925 2.371085 -0.7637619999999999 4.412825 -2.3092955 5.791894999999999 -4.384069500000001 1.378075 -2.0746745 2.0118899999999997 -4.555707 1.797965 -7.0375355 -0.038805 -0.45541149999999997 -0.10547 -0.9079375 -0.199 -1.3551900000000001 0.13631500000000002 0.0006965 0.271635 -0.006965 0.40695499999999996 -0.022885 0.8079400000000001 -0.070048 1.5949849999999999 -0.2985 2.3143700000000003 -0.6725205 0.72038 -0.373921 1.35917 -0.8860475 1.88055 -1.507027 0.522375 -0.6209795 0.91739 -1.338673 1.161165 -2.112186 0.24477 -0.7734135 0.33432 -1.5875225 0.26467 -2.3956615Z" stroke-width="1"></path><path id="Vector_23" fill="#191a23" d="m69.531595 114.57126500000001 0.207955 7.6615 2.69645 -2.434765c-1.175891 -1.618865 -2.1511899999999997 -3.37305 -2.904405 -5.226735Z" stroke-width="1"></path><path id="Vector_24" fill="#191a23" d="m86.86250500000001 79.59004999999999 2.6804305000000004 3.813835 0.15123999999999999 4.88943 -2.8316705 -8.703265Z" stroke-width="1"></path><path id="Vector_25" fill="#191a23" d="M82.2366505 53.74592c0.3284495 -0.060098 0.624661 -0.235218 0.8358 -0.4938185 0.211139 -0.2587 0.323375 -0.5839655 0.3165095 -0.917788 -0.0067659999999999994 -0.3338225 -0.132136 -0.654312 -0.3537225 -0.9041564999999999 -0.221487 -0.249745 -0.5246635 -0.4126265 -0.855302 -0.45929200000000003 0.255715 -0.186861 0.4410835 -0.4544165 0.5262555 -0.7594835 0.085172 -0.305067 0.065073 -0.6299345 -0.057013499999999995 -0.9222655 -0.1220865 -0.29223150000000003 -0.3389965 -0.5349119999999999 -0.6158055 -0.6888385 -0.276809 -0.1539265 -0.5973980000000001 -0.2102435 -0.9101265 -0.1596975 0.160195 -0.26596349999999996 0.2281535 -0.5773985 0.193428 -0.885948 -0.034825 -0.3085495 -0.170344 -0.597 -0.3857615 -0.820676s-0.4985945 -0.3700405 -0.8055519999999999 -0.4164075c-0.30705699999999997 -0.046367000000000005 -0.6207805 0.009850500000000002 -0.8926145 0.1598965 0.0649735 -0.3167085 0.019502 -0.6460535 -0.12895199999999998 -0.93331 -0.1483545 -0.287157 -0.3907365 -0.5149125 -0.6866495 -0.6450585 -0.295913 -0.1302455 -0.6274470000000001 -0.15512050000000002 -0.9394790000000001 -0.070446 -0.312032 0.08457500000000001 -0.585657 0.2735255 -0.7752045 0.5354095 -0.0305465 -0.34029000000000004 -0.1788015 -0.659287 -0.41929299999999997 -0.9019674999999999s-0.5580955 -0.393821 -0.8981864999999999 -0.427452c-0.3399915 -0.0335315 -0.6810775 0.052536 -0.9643539999999999 0.243377 -0.283376 0.19094049999999999 -0.49123150000000004 0.47471450000000004 -0.5877465 0.8024675 -0.133529 -0.29402249999999996 -0.3636725 -0.5334195 -0.6522224999999999 -0.678391 -0.28855 -0.1449715 -0.6179945 -0.1867615 -0.9336085000000001 -0.118405 -0.315614 0.068456 -0.598194 0.2428795 -0.8008755 0.49431600000000003 -0.202582 0.25143649999999995 -0.3129275 0.5646625 -0.3127285 0.88754 -0.23561600000000002 -0.202582 -0.5312305 -0.32208149999999997 -0.841372 -0.340091 -0.31014149999999996 -0.018109 -0.6175965 0.066267 -0.8751024999999999 0.2400935 -0.25750599999999996 0.1738265 -0.450735 0.427452 -0.550036 0.7218725 -0.0992015 0.2944205 -0.098903 0.6132185 0.0008954999999999999 0.90744 -0.29362449999999995 -0.109251 -0.615308 -0.1175095 -0.9141064999999999 -0.023283 -0.2987985 0.0942265 -0.557598 0.2854655 -0.735305 0.543469 -0.1778065 0.2580035 -0.2643715 0.567946 -0.2460635 0.8806745 0.0184075 0.3127285 0.1405935 0.6104325 0.347255 0.8458494999999999 -0.333126 -0.018307999999999998 -0.662073 0.081789 -0.9286335 0.28248049999999997 -0.266461 0.2006915 -0.453521 0.4890425 -0.5280465 0.814308 -0.0745255 0.32516599999999996 -0.0317405 0.666252 0.1208925 0.962961 0.1525335 0.29680850000000003 0.4050645 0.5300364999999999 0.7129175 0.6585905000000001 -0.32725550000000003 0.06338150000000001 -0.6213775 0.2408895 -0.8299295 0.500883 -0.20855200000000002 0.2599935 -0.3181015 0.5855575000000001 -0.30904699999999996 0.9186835 0.009153999999999999 0.33322549999999995 0.1362155 0.6524215 0.358598 0.9005745000000001 0.22248199999999999 0.2482525 0.525758 0.4094425 0.8559985 0.454914 -0.250342 0.1899455 -0.4299395 0.45809799999999995 -0.510236 0.7618715 -0.08029649999999999 0.303873 -0.0566155 0.6257555 0.0671625 0.9145045 0.123778 0.2888485 0.340688 0.5279469999999999 0.6160045 0.679187 0.275416 0.15133950000000002 0.5935175 0.206164 0.903659 0.15581699999999998 -0.1565135 0.267257 -0.220691 0.5785925000000001 -0.182682 0.885948 0.0379095 0.3073555 0.1760155 0.5937165 0.392826 0.8148055 0.21681050000000002 0.221089 0.5003855 0.36476699999999995 0.806945 0.408746 0.3065595 0.0440785 0.619089 -0.0140295 0.889331 -0.16526949999999999 -0.06248599999999999 0.316012 -0.0148255 0.6438645 0.134922 0.9290315 0.1497475 0.285167 0.3927265 0.510435 0.6882415 0.6382924999999999 0.29561449999999995 0.127957 0.6261534999999999 0.150842 0.9365935 0.0647745 0.3103405 -0.08606749999999999 0.5819755 -0.27571450000000003 0.769533 -0.5375985 0.0164175 0.2357155 0.0910425 0.46367 0.2172085 0.663466 0.126166 0.199796 0.2999925 0.3650655 0.5057585 0.481182 0.2058655 0.116017 0.437203 0.1791995 0.6734159999999999 0.18387599999999998 0.23631249999999998 0.0045769999999999995 0.4699385 -0.0494515 0.680182 -0.157409 0.17014500000000002 -0.207955 2.4875 -3.05863 3.304395 -4.09741 -2.000945 -2.26462 -0.34029000000000004 -3.7372199999999998 0.7363 -2.245715 0.566155 0.81192 1.393 0.5850599999999999 0.90545 -1.831795 0.6255565000000001 -0.27203299999999997 1.2249445 -0.600383 1.791 -0.98107 0.398 1.5283200000000001 0.6965 2.83177 0.94326 3.92627 0.2866595 -0.07502299999999999 0.5425735 -0.23790450000000002 0.7320215 -0.4657595s0.302878 -0.509241 0.32437 -0.8047559999999999c0.021492 -0.29551499999999997 -0.050048499999999996 -0.5903335000000001 -0.20447249999999997 -0.843163s-0.3841695 -0.4510335 -0.656899 -0.5668515Z" stroke-width="1"></path></g><g id="outlines"><path id="Vector_26" stroke="#191a23" stroke-linecap="round" stroke-linejoin="round" d="M82.04769999999999 56.42645c-0.24477 -1.0945 -0.54725 -2.3969549999999997 -0.94326 -3.92627 -0.5660554999999999 0.380687 -1.1654435 0.709037 -1.791 0.98107 0.49152999999999997 2.416855 -0.33332500000000004 2.6387400000000003 -0.90545 1.831795 -1.06465 -1.50046 -2.7372449999999997 -0.018904999999999998 -0.7363 2.245715 -0.81192 1.03878 -3.1342499999999998 3.889455 -3.304395 4.09741 -0.2102435 0.1079575 -0.4438695 0.161986 -0.680182 0.157409 -0.236213 -0.0046765 -0.4675505 -0.067859 -0.6734159999999999 -0.18387599999999998 -0.205766 -0.1161165 -0.3795925 -0.2814855 -0.5057585 -0.481182 -0.126166 -0.199796 -0.200791 -0.4277505 -0.2172085 -0.663466 -0.1875575 0.2617845 -0.4591925 0.45153099999999996 -0.769533 0.5375985 -0.31044 0.085968 -0.640979 0.0631825 -0.936494 -0.0647745 -0.29561449999999995 -0.127957 -0.5385935 -0.35322499999999996 -0.688341 -0.638392 -0.1497475 -0.2850675 -0.197408 -0.61292 -0.134922 -0.928932 -0.270242 0.15123999999999999 -0.5827715 0.20924849999999998 -0.889331 0.16526949999999999 -0.3065595 -0.043979000000000004 -0.5901345 -0.187657 -0.806945 -0.408746 -0.21681050000000002 -0.2211885 -0.3549165 -0.50745 -0.392826 -0.8148055 -0.038009 -0.3073555 0.0261685 -0.618691 0.182682 -0.885948 -0.31014149999999996 0.050346999999999996 -0.628243 -0.0044775 -0.903659 -0.15581699999999998 -0.2753165 -0.15133950000000002 -0.49222649999999996 -0.390438 -0.6160045 -0.679187 -0.123778 -0.28874900000000003 -0.147459 -0.610731 -0.0671625 -0.9145045s0.259894 -0.5719259999999999 0.510236 -0.7618715c-0.3302405 -0.0454715 -0.6335165 -0.2066615 -0.8559985 -0.454914 -0.2223825 -0.2482525 -0.34944400000000003 -0.567349 -0.358598 -0.9005745000000001 -0.0090545 -0.333126 0.100495 -0.6587895 0.30904699999999996 -0.918783 0.20855200000000002 -0.259894 0.502674 -0.437402 0.8299295 -0.5007834999999999 -0.307853 -0.128554 -0.560384 -0.3618815 -0.713017 -0.6585905000000001 -0.1525335 -0.296709 -0.1953185 -0.637795 -0.120793 -0.962961 0.0745255 -0.32526550000000004 0.2615855 -0.613716 0.5280465 -0.8144075 0.26656050000000003 -0.200592 0.5955075000000001 -0.30068900000000004 0.9286335 -0.282381 -0.2066615 -0.23541700000000002 -0.328947 -0.5331210000000001 -0.347255 -0.8458494999999999 -0.018307999999999998 -0.312828 0.068257 -0.6227705 0.2460635 -0.8806745 0.177707 -0.2580035 0.43650649999999996 -0.4492425 0.735305 -0.543469s0.6204820000000001 -0.08606749999999999 0.9141064999999999 0.023283c-0.096913 -0.2934255 -0.09532099999999999 -0.6104325 0.0046765 -0.902863 0.0999975 -0.292331 0.292729 -0.5440659999999999 0.549041 -0.7166985 0.2562125 -0.1726325 0.5618765 -0.25671 0.870426 -0.23959599999999998 0.3085495 0.0172135 0.60297 0.1348225 0.8384865 0.33481750000000005 -0.000199 -0.3228775 0.11014650000000001 -0.636203 0.3127285 -0.8876395 0.2026815 -0.251337 0.4852615 -0.42586 0.8008755 -0.49421649999999995 0.315614 -0.0683565 0.6450585 -0.026666000000000002 0.9336085000000001 0.11830550000000001 0.28855 0.1449715 0.5186935 0.38446800000000003 0.6522224999999999 0.6784905 0.096515 -0.327753 0.3043705 -0.611527 0.5877465 -0.8024675 0.2832765 -0.19094049999999999 0.6243624999999999 -0.277008 0.9643539999999999 -0.243377 0.340091 0.033630999999999994 0.657695 0.1847715 0.8981864999999999 0.427452 0.2404915 0.2426805 0.3887465 0.5616775 0.41929299999999997 0.9019674999999999 0.1895475 -0.261884 0.46317250000000004 -0.4508345 0.7752045 -0.535509 0.312032 -0.08457500000000001 0.6435660000000001 -0.059699999999999996 0.9394790000000001 0.07054550000000001 0.295913 0.130146 0.5382950000000001 0.35780199999999995 0.6866495 0.6450585 0.148454 0.2872565 0.1939255 0.6166015 0.12895199999999998 0.93331 0.271834 -0.15004599999999998 0.5855575000000001 -0.20626350000000002 0.8926145 -0.1598965 0.3069575 0.046367000000000005 0.5901345 0.1927315 0.8055519999999999 0.4164075 0.21541749999999998 0.22367599999999999 0.3509365 0.5121265 0.3857615 0.820676 0.0347255 0.3085495 -0.033233 0.6199844999999999 -0.193428 0.885948 0.3127285 -0.050546 0.6333175 0.0056715 0.9101265 0.159598 0.276809 0.1539265 0.49371899999999996 0.396607 0.6158055 0.688938 0.1220865 0.29223150000000003 0.1421855 0.617099 0.057013499999999995 0.9222655 -0.08507250000000001 0.305067 -0.27054049999999996 0.5726225 -0.5262555 0.7594835 0.3306385 0.0466655 0.633815 0.20944749999999998 0.855302 0.45929200000000003 0.221487 0.2498445 0.3469565 0.570334 0.3537225 0.904057 0.0068655 0.3338225 -0.10537049999999999 0.6591874999999999 -0.3165095 0.9178875 -0.211139 0.2586005 -0.5073505 0.43362100000000003 -0.8358 0.4938185 0.27093849999999997 0.1165145 0.498893 0.3145195 0.6522224999999999 0.5664535 0.15323 0.251934 0.224273 0.545459 0.203179 0.839581 -0.021094 0.2942215 -0.13333 0.574513 -0.320987 0.8019700000000001 -0.1877565 0.2275565 -0.44168050000000003 0.39093550000000005 -0.7264495 0.4675505Z" stroke-width="1"></path><path id="Vector_27" stroke="#191a23" stroke-linecap="round" stroke-linejoin="round" d="m82.27456000000001 48.686344999999996 5.059575 -0.414915c0.6040645 -0.052735 1.212507 0.014427500000000001 1.7905025 0.197806 0.5779955 0.183279 1.114002 0.4790925 1.5771745 0.8703265 0.46317250000000004 0.3913335 0.8444565 0.8703265 1.1218625 1.4094175 0.277406 0.5391905 0.445362 1.127932 0.4944155 1.7322950000000001l1.378075 16.555805" stroke-width="1"></path><path id="Vector_28" stroke="#191a23" stroke-linecap="round" stroke-linejoin="round" d="m89.88233 88.028645 0.7741100000000001 -0.056715c0.6758040000000001 -0.007562 1.3359865 -0.20367649999999998 1.90642 -0.566155" stroke-width="1"></path><path id="Vector_29" stroke="#191a23" stroke-linecap="round" stroke-linejoin="round" d="m54.8444 90.96986500000001 -10.155965 0.868635c-1.2187755 0.1019875 -2.4280985 -0.28407249999999995 -3.362503 -1.073207 -0.9343049999999999 -0.789234 -1.5170765 -1.916967 -1.620457 -3.1356430000000004l-2.587 -30.507695000000002c-0.10248499999999999 -1.2191735000000001 0.2834755 -2.4290935 1.0729085 -3.3636969999999997 0.7894329999999999 -0.9346035 1.9178625 -1.5174744999999998 3.1369365 -1.620258l24.8327125 -2.0921865" stroke-width="1"></path><path id="Vector_30" stroke="#191a23" stroke-linecap="round" stroke-linejoin="round" d="m87.5419905 150.08182000000002 60.4851545 -5.097385c1.6517 -0.14129 3.1800200000000003 -0.932315 4.24865 -2.199945 1.069625 -1.26763 1.592 -2.90739 1.4526999999999999 -4.559089999999999l-3.511355 -41.248720000000006c-0.14129 -1.6517 -0.932315 -3.179622 -2.199945 -4.2485504999999995 -1.266635 -1.0689285 -2.906395 -1.591403 -4.558095000000001 -1.4527995l-32.3176 2.719335" stroke-width="1"></path><path id="Vector_31" stroke="#191a23" stroke-linecap="round" stroke-linejoin="round" d="m89.3349805 95.84437 10.043529999999999 -0.84973" stroke-width="1"></path><path id="Vector_32" stroke="#191a23" stroke-linecap="round" stroke-linejoin="round" d="m121.91933999999999 27.86 -18.652269999999998 1.604935c-1.708415 0.19064199999999998 -3.2715599999999996 1.0506205 -4.3474535 2.3914825000000004 -1.0756945 1.3409615 -1.5761795 3.053456 -1.391806 4.7625675l3.7383145 43.0238" stroke-width="1"></path><path id="Vector_33" stroke="#191a23" stroke-linecap="round" stroke-linejoin="round" d="m114.74539 85.95208 56.577690000000004 -4.88943c1.25569 -0.11343 2.448695 -0.6028705 3.421805 -1.404542 0.97311 -0.801572 1.6815499999999999 -1.8780625 2.03378 -3.0888780000000002" stroke-width="1"></path><path id="Vector_34" stroke="#191a23" stroke-linecap="round" stroke-linejoin="round" d="m174.96677 49.611695 -1.680555 -19.538815c-0.11243500000000001 -1.716574 -0.900475 -3.318524 -2.191985 -4.454615 -1.292505 -1.136091 -2.982015 -1.7136885 -4.698390000000001 -1.60593l-22.7855 1.96413" stroke-width="1"></path><path id="Vector_35" stroke="#191a23" stroke-linecap="round" stroke-linejoin="round" d="M154.25684 55.294140000000006c-1.94423 3.057635 -6.040645 11.98776 -8.41969 17.78264 4.56705 1.785229 8.41571 5.0310185 10.945 9.23161" stroke-width="1"></path><path id="Vector_36" stroke="#191a23" stroke-linecap="round" stroke-linejoin="round" d="M123.84466499999999 65.07300000000001c0.69053 3.5554335 1.592 7.066689 2.6994350000000003 10.51516 -1.03878 3.907365 -1.453695 7.38091 -1.94423 9.51419" stroke-width="1"></path><path id="Vector_37" stroke="#191a23" stroke-linecap="round" stroke-linejoin="round" d="M125.65656 50.537045c-1.425835 2.1980545 -2.257655 4.727842 -2.41586 7.3431" stroke-width="1"></path><path id="Vector_38" stroke="#191a23" stroke-linecap="round" stroke-linejoin="round" d="M145.818245 73.09568499999999c-5.32325 3.83274 -15.385684999999999 5.870500000000001 -19.274144999999997 2.4924749999999998" stroke-width="1"></path><path id="Vector_39" stroke="#191a23" stroke-linecap="round" stroke-linejoin="round" d="M143.40238499999998 74.54938c2.83973 2.2207405 5.115295 5.079375499999999 6.643615 8.344069999999999" stroke-width="1"></path><path id="Vector_40" stroke="#191a23" stroke-linecap="round" stroke-linejoin="round" d="M129.89824499999997 36.903555c0.5572 -1.1841495 0.886545 -2.4623265 0.97112 -3.768065 -0.5850599999999999 0.641775 -1.1342999999999999 1.1850450000000001 -1.644735 1.6566750000000001" stroke-width="1"></path><path id="Vector_41" stroke="#191a23" stroke-linecap="round" stroke-linejoin="round" d="m151.557405 60.353714999999994 6.759035 11.42061c5.228725 9.477375 16.119 12.458395000000001 22.955645 -1.6984650000000001 3.226785 -6.683414999999999 4.757095 -11.175839999999999 7.588864999999999 -15.820500000000001 -4.63073 -1.320166 -8.847539999999999 -3.8023925 -12.24845 -7.210764999999999 -3.1432049999999996 4.730628 -5.93816 9.683140999999999 -8.36397 14.818535 -13.686225 -29.090815 -15.36678 -23.96159 -24.48496 -24.466054999999997 -2.7820199999999997 -0.0767145 -5.461555 -1.065048 -7.626675 -2.812865" stroke-width="1"></path><path id="Vector_42" stroke="#191a23" stroke-linecap="round" stroke-linejoin="round" d="M116.199085 60.57958c2.6994350000000003 -9.174895 8.747045 -13.415585 11.401705 -16.31004 1.2487249999999999 -1.19798 2.08154 -2.7652045000000003 2.3730749999999996 -4.471132 0.29252999999999996 -1.706027 0.029849999999999998 -3.4607095 -0.749235 -5.0062429999999996 -4.757095 4.190939999999999 -7.38091 0.84973 -7.38091 -10.2485" stroke-width="1"></path><path id="Vector_43" stroke="#191a23" stroke-linecap="round" stroke-linejoin="round" d="M144.912795 37.434884999999994c-3.783985 3.040919 -7.198825 6.513866999999999 -10.175865 10.348 -0.466655 0.5807815 -1.0755949999999999 1.0307205 -1.7681149999999999 1.305639s-1.44474 0.365563 -2.18303 0.2629785c-0.737295 -0.1025845 -1.43678 -0.394816 -2.0278099999999997 -0.8481380000000001 -0.5910299999999999 -0.453322 -1.0547 -1.0523120000000001 -1.34524 -1.7383645 -0.24278 -0.5671499999999999 -0.45372 -1.0945 -0.641775 -1.604935" stroke-width="1"></path><path id="Vector_44" stroke="#191a23" stroke-linecap="round" stroke-linejoin="round" d="m168.24554500000002 61.86313 -2.245715 5.059575" stroke-width="1"></path><path id="Vector_45" stroke="#191a23" stroke-linecap="round" stroke-linejoin="round" d="M74.36431 61.65617c-2.6387400000000003 3.383 -4.506355 3.161115 -9.476379999999999 5.379965 -10.11915 4.512325 -6.645605000000001 22.597444999999997 -6.645605000000001 22.597444999999997" stroke-width="1"></path><path id="Vector_46" stroke="#191a23" stroke-linecap="round" stroke-linejoin="round" d="M82.04769999999999 56.42645c0.824855 3.823785 0.75023 5.28743 0.207955 6.078455 -0.398 0.586055 -2.000945 0.7741100000000001 -3.45464 0.7741100000000001" stroke-width="1"></path><path id="Vector_47" stroke="#191a23" stroke-linecap="round" stroke-linejoin="round" d="M82.428785 62.1875c-0.5283450000000001 1.0945 -2.532275 0 -4.5342150000000006 -1.453695 0.3781 1.73727 0.641775 3.81881 2.0576600000000003 3.907365 12.550930000000001 0.787045 13.87627 2.2089000000000003 24.768535 20.895" stroke-width="1"></path><path id="Vector_48" stroke="#191a23" stroke-linecap="round" stroke-linejoin="round" d="M103.38050000000001 83.214835c0.47163 -1.32136 3.397925 -7.344095 5.097385 -12.780775 3.7213000000000003 -0.400587 7.461505 0.572921 10.51516 2.7372449999999997 -1.1711150000000001 5.55011 -4.568045000000001 13.970795 -7.495335000000001 20.159695 -0.4975 1.0460435 -1.236785 1.9586575 -2.15716 2.6625205 -0.920375 0.7037635 -1.99398 1.1785775 -3.1342499999999998 1.3851395 -1.139275 0.2066615 -2.3123799999999997 0.1390015 -3.4208100000000004 -0.1971095 -1.10843 -0.33621049999999997 -2.12134 -0.93132 -2.9541549999999996 -1.7361754999999999 -4.8875395 -4.8057505 -9.230416 -10.1355675 -12.949925 -15.893135000000001" stroke-width="1"></path><path id="Vector_49" stroke="#191a23" stroke-linecap="round" stroke-linejoin="round" d="m86.9002155 79.55224 2.7939599999999998 8.741075" stroke-width="1"></path><path id="Vector_50" stroke="#191a23" stroke-linecap="round" stroke-linejoin="round" d="M66.267 95.429455c5.606825 1.791 15.196634999999999 1.113405 22.69197 -0.92535 1.13231 -2.227805 0.66068 -11.0246 0.66068 -11.0246" stroke-width="1"></path><path id="Vector_51" stroke="#191a23" stroke-linecap="round" stroke-linejoin="round" d="M66.20929 94.99463999999999c-2.41586 3.473545 -7.164 3.6019 -9.34504 -0.018904999999999998 -2.74819 -4.577 -3.92627 -11.10022 -4.51133 -18.34979 0 0 4.2785 -1.36912 6.0695 -0.832815" stroke-width="1"></path><path id="Vector_52" stroke="#191a23" stroke-linecap="round" stroke-linejoin="round" d="m72.43599999999999 119.798 -19.934825 17.6513c-1.3186734999999998 1.16017 -3.0129594999999996 1.80294 -4.7691345 1.8099049999999999 -1.7561749999999998 0.0059700000000000005 -3.4553365 -0.623865 -4.7828655 -1.77309l-19.612444999999997 -16.967735" stroke-width="1"></path><path id="Vector_53" stroke="#191a23" stroke-linecap="round" stroke-linejoin="round" d="m49.691295000000004 123.217815 -14.838435 -13.988705" stroke-width="1"></path><path id="Vector_54" stroke="#191a23" stroke-linecap="round" stroke-linejoin="round" d="M63.169565 76.494605s3.2834999999999996 13.233500000000001 3.077535 19.274144999999997c-3.9943280000000003 2.270391 -7.080818 5.852589999999999 -8.736099999999999 10.138055 -2.410885 6.514265 -10.760925 14.441429999999999 -10.760925 14.441429999999999" stroke-width="1"></path><path id="Vector_55" stroke="#191a23" stroke-linecap="round" stroke-linejoin="round" d="M88.957975 94.504105c3.69941 12.591724999999999 4.06756 20.994500000000002 4.32228 33.18723 0.203378 3.45663 -0.2697445 6.91923 -1.393 10.19477l-8.645555 24.314815c-5.287629 -0.5552100000000001 -10.3705865 -2.34621 -14.838435 -5.228725l8.64655 -24.768535c0.166563 -4.23074 -1.2528045 -8.370935 -3.98 -11.60966 -2.699833 -3.288475 -4.391233499999999 -7.288375 -4.870525 -11.51613" stroke-width="1"></path><path id="Vector_56" stroke="#191a23" stroke-linecap="round" stroke-linejoin="round" d="M70.023125 65.016285s3.019825 3.322305 10.193774999999999 -0.359195" stroke-width="1"></path><path id="Vector_57" stroke="#191a23" stroke-linecap="round" stroke-linejoin="round" d="M53.844425 76.192125c-0.0590035 -2.8804255 -0.3813835 -5.749309 -0.96316 -8.57093 -0.556802 -2.171687 -1.3546924999999999 -4.2742215 -2.379045 -6.2684999999999995 -1.50245 -2.92928 -1.0149 -3.722295 1.397975 -1.0566900000000001 2.3827265 2.9910695 4.3450655000000005 6.2938725 5.83269 9.81667" stroke-width="1"></path><path id="Vector_58" stroke="#191a23" stroke-linecap="round" stroke-linejoin="round" d="M56.895095 68.24705c1.1989750000000001 1.35917 1.91637 -2.786 2.367105 -3.7033899999999997 0.62287 -1.2646449999999998 1.393 -2.6417249999999997 1.340265 1.246735 -0.014924999999999999 1.0755949999999999 0.11343 2.7939599999999998 0.28357499999999997 4.492425" stroke-width="1"></path><path id="Vector_59" stroke="#191a23" stroke-linecap="round" stroke-linejoin="round" d="M51.7488555 64.128745c-0.54725 -0.603965 -1.791 -1.8109 -2.152185 -2.152185 -1.64971 -1.57807 -1.97806 -1.0218649999999998 -1.791 -0.6965 0.7163999999999999 1.25569 2.05965 3.1899699999999998 2.6865 4.378 1.00296 1.9243299999999999 3.0387299999999997 5.5879199999999996 3.1521600000000003 7.475435" stroke-width="1"></path><path id="Vector_60" stroke="#191a23" stroke-linecap="round" stroke-linejoin="round" d="M50.427595 65.54463c-0.32138500000000003 -0.225865 -0.58705 -0.41192999999999996 -0.7363 -0.50944 -1.9123899999999998 -1.246735 -2.114375 -0.679585 -1.8904999999999998 -0.398 0.9064450000000001 1.13231 2.552175 2.8098799999999997 3.36111 3.88846 0.9497275000000001 1.3288224999999998 1.771299 2.7447075 2.4536700000000002 4.22875" stroke-width="1"></path><path id="Vector_61" stroke="#191a23" stroke-linecap="round" stroke-linejoin="round" d="M118.1065 72.548435c1.01291 -3.0194270000000003 2.2885 -5.94413 3.813835 -8.74008 1.2905149999999999 -2.110196 2.816845 -4.0672615 4.54914 -5.833685 2.5432200000000003 -2.587 2.2885 -3.60588 -1.13231 -1.58603 -3.489465 2.3831244999999996 -6.639635 5.228128000000001 -9.363945 8.4575" stroke-width="1"></path><path id="Vector_62" stroke="#191a23" stroke-linecap="round" stroke-linejoin="round" d="M117.560245 63.05514c-1.9044299999999998 1.419865 -1.20196 -3.429765 -1.380065 -4.57103 -0.23979499999999998 -1.53031 -0.5850599999999999 -3.246685 -1.8128900000000001 0.88754 -0.339295 1.131315 -1.7183650000000001 4.637695 -4.3183 10.96689" stroke-width="1"></path><path id="Vector_63" stroke="#191a23" stroke-linecap="round" stroke-linejoin="round" d="M124.240675 60.485055c0.7741100000000001 -0.47163 2.47357 -1.32136 2.964105 -1.56613 2.265615 -1.133305 2.41387 -0.4179 2.13328 -0.15123999999999999 -1.161165 1.103455 -3.2078800000000003 2.701425 -4.247655 3.756125 -1.67757 1.702445 -5.021764999999999 4.908335 -5.77697 6.872465" stroke-width="1"></path><path id="Vector_64" stroke="#191a23" stroke-linecap="round" stroke-linejoin="round" d="M125.18493 62.430279999999996c0.414915 -0.132335 0.755205 -0.24477 0.944255 -0.2985 2.4198399999999998 -0.741275 2.4526749999999997 -0.020895 2.114375 0.207955 -1.3273300000000001 0.8955 -3.60389 2.136265 -4.814805000000001 3.019825 -1.4327999999999999 1.0949975 -2.759135 2.321136 -3.96408 3.662595" stroke-width="1"></path><path id="Vector_65" stroke="#191a23" stroke-linecap="round" stroke-linejoin="round" d="M27.924675 102.734745C24.56456 97.908 3.96703515 114.559325 5.01377515 120.071625c0.162185 0.85371 0.900475 1.61787 2.62282 1.384045C14.256359999999999 120.55917500000001 30.4072 106.306795 27.924675 102.734745Z" stroke-width="1"></path><path id="Vector_66" stroke="#191a23" stroke-linecap="round" stroke-linejoin="round" d="M27.924575500000003 102.734745c1.037785 1.32136 4.605854999999999 5.5879199999999996 7.155044999999999 8.756" stroke-width="1"></path><path id="Vector_67" stroke="#191a23" stroke-linecap="round" stroke-linejoin="round" d="M81.16115500000001 161.937245c-0.796 3.00092 -5.26355 9.587819999999999 -1.831795 18.028405 1.758165 4.32228 2.775055 10.625605 0.398 12.211635" stroke-width="1"></path><path id="Vector_68" stroke="#191a23" stroke-linecap="round" stroke-linejoin="round" d="M65.52970499999999 168.28037c0.56516 -1.2736 2.619835 -5.92025 4.45561 -10.2485" stroke-width="1"></path><path id="Vector_69" stroke="#191a23" stroke-linecap="round" stroke-linejoin="round" d="M66.1335705 167.71322c-4.22079 2.006915 7.04659 22.641225 12.21462 24.523764999999997 1.4278250000000001 0.520385 2.110395 -0.4975 2.05368 -2.0128850000000003 -0.23481999999999997 -6.304320000000001 -11.005695 -24.0591 -14.2683 -22.51088Z" stroke-width="1"></path><path id="Vector_70" stroke="#191a23" stroke-linecap="round" stroke-linejoin="round" d="M32.965345 108.88882000000001c0.2587995 -0.11740999999999999 0.543668 -0.166165 0.8269445 -0.14129 0.2832765 0.024875 0.5551105 0.12338 0.789035 0.28556499999999996 0.2339245 0.16119 0.42188 0.381085 0.545459 0.6368 0.1236785 0.25671 0.178702 0.540285 0.1598965 0.8238599999999999 -0.31243 3.98 -7.706275 10.797740000000001 -11.03057 10.395760000000001 -0.995 -0.12139 -1.6258299999999999 -0.824855 -1.2935 -2.164125" stroke-width="1"></path><path id="Vector_71" stroke="#191a23" stroke-linecap="round" stroke-linejoin="round" d="m82.0645155 155.17224 5.793885 -18.324915c1.0054475 -2.86361 1.4290189999999998 -5.899355 1.24574 -8.92913 -0.802965 -13.119075 -1.774085 -23.258125 -4.134225 -32.48874" stroke-width="1"></path><path id="Vector_72" stroke="#191a23" stroke-linecap="round" stroke-linejoin="round" d="M70.75843 150.21316c4.285465 3.260615 9.475783 5.1143 14.85734 5.30534" stroke-width="1"></path><path id="Vector_73" stroke="#191a23" stroke-linecap="round" stroke-linejoin="round" d="M28.9245505 125.351095c5.720255 -1.831795 8.930125 -5.97 10.85545 -11.36489" stroke-width="1"></path><path id="Vector_74" stroke="#191a23" stroke-linecap="round" stroke-linejoin="round" d="m69.531595 114.57126500000001 -16.06527 14.23447c-1.3214595 1.177085 -3.0275860000000003 1.8308 -4.7971935 1.8377649999999999 -1.769707 0.006965 -3.4810075 -0.63282 -4.8115215000000005 -1.799955l-8.476405 -7.43862" stroke-width="1"></path><path id="Vector_75" stroke="#191a23" stroke-linecap="round" stroke-linejoin="round" d="M72.249935 100.450225c-0.24477 0.037809999999999996 -0.603965 4.7959000000000005 0.037809999999999996 6.721225 1.227631 1.696475 2.7968455000000003 3.11833 4.60685 4.172034999999999 1.0352975 -1.7243350000000002 2.2780525 -3.316335 3.700405 -4.7381899999999995 -0.18905 -2.3979500000000002 -0.41591 -3.662595 -0.679585 -6.192880000000001 -2.541429 0.36317499999999997 -5.120668 0.37611 -7.66548 0.037809999999999996v0Z" stroke-width="1"></path><path id="Vector_76" stroke="#191a23" stroke-linecap="round" stroke-linejoin="round" d="M61.54672 99.48806c0.9691299999999999 0.01393 1.920748 0.259695 2.775055 0.717395 -1.73727 0.848735 -3.49245 5.174 -3.49245 5.174l-3.87055 1.8507" stroke-width="1"></path><path id="Vector_77" stroke="#191a23" stroke-linecap="round" stroke-linejoin="round" d="M184.36753000000002 37.81c2.985 0.94326 4.64466 2.472575 6.566999999999999 4.92724" stroke-width="1"></path><path id="Vector_78" stroke="#191a23" stroke-linecap="round" stroke-linejoin="round" d="M183.632225 39.209965c1.0417649999999998 1.057287 1.8516949999999999 2.3200415000000003 2.37805 3.7076685 0.526355 1.3876270000000002 0.757195 2.8696795 0.679585 4.3518315" stroke-width="1"></path><path id="Vector_79" stroke="#191a23" stroke-linecap="round" stroke-linejoin="round" d="M189.37039000000001 40.87062c1.15818 -1.525932 2.12731 -3.1867859999999997 2.8855 -4.9461450000000005 1.393 -3.26559 2.24671 -2.359145 1.4726 0.7363 -0.207955 0.8308249999999999 -0.414915 1.5482200000000002 -0.603965 2.152185 -0.5452600000000001 1.73727 -1.08256 3.4914549999999998 -1.58603 5.2486250000000005 -0.534315 1.86662 -4.0794999999999995 9.759955 -4.0794999999999995 9.759955 -3.322305 -0.88754 -6.7769449999999996 -3.3034 -9.476379999999999 -5.531205 0.056715 -0.11343 1.4925 -2.7551550000000002 1.5472249999999999 -2.8506750000000003 0.29252999999999996 -0.5280465 0.41690499999999997 -1.132708 0.35620999999999997 -1.7331905 -0.060695 -0.600383 -0.303475 -1.1680305 -0.6955049999999999 -1.6269244999999999 -1.36514 -1.63777 -3.192955 -4.0794999999999995 -2.587 -4.739185 0.940275 -1.0218649999999998 3.907365 2.43377 5.493395 2.643715 0.566155 0.074625 1.0198749999999999 -1.6427450000000001 1.113405 -2.265615 0.17114 -1.13231 0.767145 -4.9849499999999995 0.81192 -5.36106 0.410935 -3.5004099999999996 1.6616499999999998 -2.90739 1.6427450000000001 0.188055 -0.018904999999999998 2.9452 -0.018904999999999998 4.8516200000000005 -0.018904999999999998 4.8516200000000005" stroke-width="1"></path><path id="Vector_80" stroke="#191a23" stroke-linecap="round" stroke-linejoin="round" d="M185.40631 38.15228s2.058655 -6.45556 2.189 -6.890375c1.023855 -3.378025 2.09746 -2.60491 1.58603 0.43382 -0.48954 2.908385 -1.0198749999999999 6.456555 -1.0198749999999999 6.456555" stroke-width="1"></path><path id="Vector_81" stroke="#191a23" stroke-linecap="round" stroke-linejoin="round" d="M187.65699999999998 39.19106c0.98505 -1.9743785 1.85468 -4.004278 2.60491 -6.0794500000000005 1.2238499999999999 -3.3232999999999997 2.1233299999999997 -2.474565 1.5482200000000002 0.5482450000000001 -0.315415 1.8792565 -0.763165 3.7339365 -1.340265 5.55011" stroke-width="1"></path><path id="Vector_82" stroke="#191a23" stroke-linecap="round" stroke-linejoin="round" d="M167.09432999999999 97.146825c0.051739999999999994 0.450735 0.012934999999999999 0.9072410000000001 -0.11343 1.343051 -0.126365 0.43581 -0.337305 0.842367 -0.62088 1.196189 -0.28457 0.35422 -0.6358050000000001 0.647745 -1.0338049999999999 0.864655 -0.398 0.217905 -0.8358 0.35422 -1.286535 0.40098500000000004 -0.45173 0.047760000000000004 -0.90744 0.004975 -1.342255 -0.124375 -0.434815 -0.13034500000000002 -0.83978 -0.34426999999999996 -1.1910150000000002 -0.631825 -0.35123499999999996 -0.287555 -0.641775 -0.64078 -0.8557 -1.0410685 -0.213925 -0.4000895 -0.34625999999999996 -0.8385859999999999 -0.39004 -1.2902164999999999l-0.54725 -5.174c-0.08656499999999999 -0.901868 0.186065 -1.801547 0.759185 -2.503221 0.5741149999999999 -0.7015745 1.40096 -1.1483295 2.30243 -1.2428545000000002 0.900475 -0.0946245 1.80294 0.170543 2.50939 0.7377925000000001 0.7064499999999999 0.5672495000000001 1.16017 1.390612 1.2626549999999999 2.290888l0.54725 5.174Z" stroke-width="1"></path><path id="Vector_83" stroke="#191a23" stroke-linecap="round" stroke-linejoin="round" d="m157.46671 95.787655 0.263675 2.5481949999999998c0.08159000000000001 0.7833635 0.317405 1.543245 0.6925199999999999 2.235765 0.375115 0.6925199999999999 0.88356 1.3044449999999999 1.495485 1.799955 0.61093 0.496505 1.31539 0.866645 2.0696 1.091515 0.755205 0.223875 1.5472249999999999 0.29750499999999996 2.33029 0.215915 0.78406 -0.082585 1.543245 -0.317405 2.235765 -0.6925199999999999 0.6925199999999999 -0.37611 1.3044449999999999 -0.88356 1.80095 -1.495485 0.49551 -0.6119249999999999 0.866645 -1.31539 1.0905200000000002 -2.070595 0.223875 -0.7550060000000001 0.29750499999999996 -1.5469264999999999 0.215915 -2.33029l-0.263675 -2.5481949999999998" stroke-width="1"></path><path id="Vector_84" stroke="#191a23" stroke-linecap="round" stroke-linejoin="round" d="m164.319275 103.679 0.50944 4.757095" stroke-width="1"></path><path id="Vector_85" stroke="#191a23" stroke-linecap="round" stroke-linejoin="round" d="m162.28052 108.700765 5.07848 -0.52934" stroke-width="1"></path><path id="Vector_86" stroke="#191a23" stroke-linecap="round" stroke-linejoin="round" d="m122.76807500000001 123.23671999999999 6.098355 2.8506750000000003 -1.0954949999999999 -12.95092 -5.531205 3.85065" stroke-width="1"></path><path id="Vector_87" stroke="#191a23" stroke-linecap="round" stroke-linejoin="round" d="M116.9921 112.891705c1.230815 -0.10746 2.45566 0.25472 3.429765 1.0149 0.974105 0.76018 1.62384 1.8606500000000001 1.8178649999999998 3.08052l0.50944 5.870500000000001c0.056715 0.64078 -0.01393 1.286535 -0.20695999999999998 1.90045 -0.19303 0.613915 -0.50546 1.18405 -0.9193800000000001 1.6765750000000001 -0.41391999999999995 0.492525 -0.920375 0.8994800000000001 -1.491505 1.1959899999999999 -0.5711299999999999 0.29651 -1.1959899999999999 0.47759999999999997 -1.83677 0.532325l-11.779805 0.98107c-0.641775 0.05870499999999999 -1.288525 -0.00995 -1.903435 -0.20198500000000003 -0.613915 -0.19303 -1.1850450000000001 -0.50546 -1.67757 -0.9193800000000001 -0.49352 -0.41391999999999995 -0.900475 -0.922365 -1.1959899999999999 -1.49449 -0.29551499999999997 -0.572125 -0.47561 -1.196985 -0.5283450000000001 -1.8387600000000002l-0.47163 -5.4725c-0.05870499999999999 -0.641775 0.00995 -1.288525 0.20198500000000003 -1.90244 0.19303 -0.61491 0.504465 -1.18604 0.9193800000000001 -1.678565 0.41391999999999995 -0.49352 0.92137 -0.900475 1.4934949999999998 -1.1959899999999999 0.57312 -0.29551499999999997 1.19798 -0.47561 1.839755 -0.5283450000000001l11.799705 -1.0198749999999999Z" stroke-width="1"></path><path id="Vector_88" stroke="#191a23" stroke-linecap="round" stroke-linejoin="round" d="M149.537555 15.102110000000001c-0.11740999999999999 -1.460063 -0.75023 -2.8306755 -1.786025 -3.8665700000000003 -1.035795 -1.0359939999999999 -2.40591 -1.6696398499999998 -3.8665700000000003 -1.7876369 -1.459665 -0.11799705 -2.914355 0.28736595000000004 -4.102385 1.1435734 -1.189025 0.8561975000000001 -2.03378 2.1073105 -2.38402 3.5295635 1.55021 0.7151065 2.9113700000000002 1.7819455 3.9770149999999997 3.1158425 1.065645 1.3337975 1.8049300000000001 2.8978379999999997 2.15915 4.5675475 0.842765 -0.019502 1.672595 -0.2116365 2.438745 -0.564563 0.76615 -0.352827 1.45071 -0.8589834999999999 2.01388 -1.4870275 0.562175 -0.6280439999999999 0.990025 -1.3648414999999998 1.2566849999999998 -2.1647220000000003 0.26666 -0.7998805 0.36616 -1.6460285000000001 0.293525 -2.4860075v0Z" stroke-width="1"></path><path id="Vector_89" stroke="#191a23" stroke-linecap="round" stroke-linejoin="round" d="M143.70486499999998 23.163600000000002c-0.237805 -2.8599284999999997 -1.587025 -5.5125985 -3.75911 -7.3885715 -2.17109 -1.875973 -4.9919150000000005 -2.8257005 -7.85652 -2.645307 -2.86361 0.18039349999999998 -5.543145 1.4764805 -7.4625 3.6101585 -1.9183599999999998 2.133678 -2.9253 4.9347025 -2.80192 7.801795 2.273575 -0.6163029999999999 4.61083 -0.9712195 6.965 -1.057685 0.12736 0.773314 0.303475 1.537673 0.5283450000000001 2.2885 0.207955 0.47163 0.5283450000000001 0.50944 1.0945 -0.359195 1.26564 -1.8308 3.83274 1.00097 0.8308249999999999 3.190965 1.29549 2.242332 2.94122 4.2628785 4.875500000000001 5.984925 2.371085 -0.7646575 4.412825 -2.3110865 5.790900000000001 -4.386557 1.3770799999999999 -2.0754705 2.010895 -4.5571 1.79498 -7.039028Z" stroke-width="1"></path><path id="Vector_90" stroke="#191a23" stroke-linecap="round" stroke-linejoin="round" d="m17.2959855 86.87742999999999 3.945175 -0.397005" stroke-width="1"></path><path id="Vector_91" stroke="#191a23" stroke-linecap="round" stroke-linejoin="round" d="m28.2260605 85.76303 3.94617 -0.39601000000000003" stroke-width="1"></path><path id="Vector_92" stroke="#191a23" stroke-linecap="round" stroke-linejoin="round" d="m23.978505 78.683605 0.397005 3.94617" stroke-width="1"></path><path id="Vector_93" stroke="#191a23" stroke-linecap="round" stroke-linejoin="round" d="m25.092905000000002 89.61467499999999 0.39601000000000003 3.945175" stroke-width="1"></path><path id="Vector_94" stroke="#191a23" stroke-linecap="round" stroke-linejoin="round" d="m18.9387305 81.40294 3.07654 2.49148" stroke-width="1"></path><path id="Vector_95" stroke="#191a23" stroke-linecap="round" stroke-linejoin="round" d="m27.45205 88.331125 3.077535 2.5103850000000003" stroke-width="1"></path><path id="Vector_96" stroke="#191a23" stroke-linecap="round" stroke-linejoin="round" d="m29.4538905 80.32635 -2.4924749999999998 3.077535" stroke-width="1"></path><path id="Vector_97" stroke="#191a23" stroke-linecap="round" stroke-linejoin="round" d="m22.524810000000002 88.84056500000001 -2.5103850000000003 3.077535" stroke-width="1"></path><path id="Vector_98" stroke="#191a23" stroke-linecap="round" stroke-linejoin="round" d="m108.704745 41.68254 -2.2885 -5.5879199999999996c1.3989699999999998 -2.0798485 2.07557 -4.562174499999999 1.925325 -7.0645 -0.414915 -6.566999999999999 -6.51327 -11.666375 -13.78075 -11.45842 -7.419715 0.20695999999999998 -13.27131 5.870500000000001 -13.064350000000001 12.648439999999999 0.20596499999999998 7.155044999999999 6.89933 12.277305 14.211585 11.84647 2.6193375 -0.16517 5.145145 -1.036392 7.30927 -2.52133l5.68742 2.13726Z" stroke-width="1"></path><path id="Vector_99" stroke="#191a23" stroke-linecap="round" stroke-linejoin="round" d="M65.209315 38.831865c-0.349046 0.33432 -0.7894329999999999 0.5576975 -1.265441 0.641775 -0.4759085 0.0840775 -0.9661449999999999 0.025173499999999998 -1.4086215 -0.169349 -0.4424765 -0.19452250000000001 -0.8173925 -0.5159075 -1.077187 -0.923559 -0.2597945 -0.407552 -0.3929255 -0.8830625 -0.38247800000000004 -1.366334 0.0104475 -0.483172 0.163976 -0.9525135 0.441183 -1.3484239999999998 0.2771075 -0.39601000000000003 0.6654559999999999 -0.7009775 1.1159919999999999 -0.876197 0.45043649999999996 -0.1752195 0.9427625000000001 -0.21293 1.414691 -0.108455 0.471829 0.1045745 0.9021665 0.3467575 1.2364864999999998 0.695903 0.44665550000000004 0.4687445 0.6895349999999999 1.0953955 0.6755055 1.7427425 -0.01393 0.647347 -0.2836745 1.2628540000000001 -0.7501305 1.7118974999999998v0Z" stroke-width="1"></path><path id="Vector_100" stroke="#191a23" stroke-linecap="round" stroke-linejoin="round" d="m166.16897999999998 6.625705 0.84973 10.3082" stroke-width="1"></path><path id="Vector_101" stroke="#191a23" stroke-linecap="round" stroke-linejoin="round" d="m171.7569 11.34499 -10.307205 0.868635" stroke-width="1"></path><path id="Vector_102" stroke="#191a23" stroke-linecap="round" stroke-linejoin="round" d="M25.65906 120.72533999999999c-0.7184895 -0.880575 -1.64573 -1.56812 -2.6974449999999996 -1.9999499999999997 -1.8308 -0.661675 -3.626775 -0.076615 -5.7600549999999995 0.5283450000000001 -4.2984 1.194 -8.9062649 3.78697 -11.3241149 1.996965" stroke-width="1"></path><path id="Vector_103" stroke="#191a23" stroke-linecap="round" stroke-linejoin="round" d="m69.73955000000001 122.23575 -0.207955 -7.664485" stroke-width="1"></path></g></g></svg>