<svg xmlns="http://www.w3.org/2000/svg" fill="none" viewBox="-0.5 -0.5 200 200" id="Share--Streamline-Bangalore.svg"><desc>Share Streamline Illustration: https://streamlinehq.com</desc><g id="Social-Media-Share-01"><g id="color 2"><path id="Vector" fill="#b9ff66" d="M134.88618 49.02365c-6.766 -0.90744 -14.61257 -1.833785 -14.61257 -1.833785 1.53031 0.207955 2.3243199999999997 3.44071 1.813885 7.202805 -0.510435 3.762095 -2.174075 6.653565 -3.704385 6.445609999999999 -0.9830599999999999 -0.132335 -1.66364 -1.531305 -1.8904999999999998 -3.51633 -0.9452499999999999 0.207955 -1.909405 0.379095 -2.892465 0.5492400000000001 0 0 4.7451550000000005 7.31524 0.41591 8.959975 -3.762095 1.417875 -12.36387 -5.841645000000001 -12.36387 -5.841645000000001 -10.425609999999999 5.208825 -30.631075 9.2535 -41.43578 11.37285 2.75018 -0.45372 5.678465 12.794705 2.985 13.467325 12.589735000000001 -2.2685999999999997 26.314764999999998 -5.52026 38.072680000000005 -10.699235 2.04174 3.04271 6.030695 6.63466 6.484415 10.37785 5.217779999999999 1.194 11.513145 1.039775 14.744905000000001 -1.115395 1.4925 -9.867415 0.9452499999999999 -14.4275 -0.24576499999999998 -17.202555a47.0834 47.0834 0 0 0 12.212629999999999 -3.459615c10.324119999999999 -4.361085 7.8445800000000006 -13.690205 0.41591 -14.707095Z" stroke-width="1"></path><path id="Vector_2" fill="#b9ff66" d="m114.94239999999999 114.226 -1.66364 -0.17014500000000002 -0.623865 1.606925 -1.4556850000000001 -0.2985 -5.841645000000001 12.022585a8.75401 8.75401 0 0 1 -11.398719999999999 4.19691l-15.407575 -7.429665 -7.5421000000000005 4.253625c-1.153205 8.828634999999998 5.5948850000000006 25.709805 16.862265 31.135540000000002l25.218275 -14.14094c1.81488 -6.63466 4.329245 -15.954825 4.631725 -17.202555 -1.865625 -9.350015 -2.138255 -10.69028 -2.779035 -13.97378Z" stroke-width="1"></path></g><g id="color 1"><path id="Vector_3" fill="#191a23" d="M116.473705 57.151805c0.47262499999999996 4.68844 3.13823 4.9153 4.78197 0.530335a15.7409 15.7409 0 0 1 -4.78197 -0.530335Z" stroke-width="1"></path><path id="Vector_4" fill="#191a23" d="m119.592035 47.2625 -0.094525 1.266635c0.18905 0.359195 1.5133949999999998 0.661675 2.3820300000000003 0.6805800000000001 -0.397005 -1.3770799999999999 -1.18604 -2.416855 -2.287505 -1.9472150000000001Z" stroke-width="1"></path><path id="Vector_5" fill="#191a23" d="M136.39858 49.40175c3.931245 1.47459 8.222679999999999 6.57894 1.7959749999999999 12.060395a18.56471 18.56471 0 0 1 -5.74712 3.0845000000000002 105.192395 105.192395 0 0 0 5.572 17.769705000000002c8.884355000000001 -4.7451550000000005 18.072185 -7.01276 26.030195000000003 -6.8655 -10.826595 -15.75085 -21.602445 -26.01129 -27.651049999999998 -26.0491Z" stroke-width="1"></path><path id="Vector_6" fill="#191a23" d="M129.32811 135.05632500000002c-0.18905 0.510435 -0.3781 1.02087 -0.586055 1.55021l1.77707 -0.9830599999999999a16.99659 16.99659 0 0 1 -1.1910150000000002 -0.5671499999999999Z" stroke-width="1"></path><path id="Vector_7" fill="#191a23" d="M181.938735 107.21025499999999c-3.9889550000000003 6.8655 -10.70023 13.554884999999999 -19.37663 18.697045 4.693415 6.25855 19.019425 23.7805 25.78443 19.98159 5.40683 -3.0447 2.438745 -19.037335 -6.4078 -38.678635Z" stroke-width="1"></path><path id="Vector_8" fill="#191a23" d="M59.231355 74.015065c0.775105 -0.26467 2.23079 -0.796 2.3253150000000002 -0.8129149999999999 -1.1342999999999999 -1.417875 -2.0228349999999997 -0.9452499999999999 -2.3253150000000002 0.8129149999999999Z" stroke-width="1"></path><path id="Vector_9" fill="#191a23" d="M96.515 35.12947a10.898235 10.898235 0 0 0 -9.810699999999999 6.132185000000001 5.315289999999999 5.315289999999999 0 1 0 -0.613915 7.99781 10.899230000000001 10.899230000000001 0 0 0 17.190615 5.32126 4.423769999999999 4.423769999999999 0 0 0 -0.71839 -1.0945 1.127335 1.127335 0 0 0 -0.45372 -0.359195c-3.62976 -0.398 -3.346185 -3.7053800000000003 -1.24773 -3.0058949999999998 1.001965 0.34029000000000004 1.24773 0.132335 1.0945 -0.398 -1.1342999999999999 -2.7979399999999996 0.132335 -9.395785 5.463545 -3.346185A10.919130000000001 10.919130000000001 0 0 0 96.515 35.12947Z" stroke-width="1"></path><path id="Vector_10" fill="#191a23" d="M20.53481 95.546865a10.83356 10.83356 0 1 0 -0.9263450000000001 21.492 45.4118 45.4118 0 0 1 0.9263450000000001 -21.492Z" stroke-width="1"></path><path id="Vector_11" fill="#191a23" d="M64.12775 84.2765c-0.71839 0.24576499999999998 -1.4925 0.49152999999999997 -2.3253150000000002 0.71839 1.115395 1.38305 2.00393 1.00495 2.3253150000000002 -0.71839Z" stroke-width="1"></path><path id="Vector_12" fill="#191a23" d="M44.775 116.98414a89.572885 89.572885 0 0 1 21.286035000000002 -9.603739999999998 16.20855 16.20855 0 0 1 -2.30641 -1.531305 62.84619 62.84619 0 0 0 -25.049125 9.925125 59.09305 59.09305 0 0 0 6.0695 1.2099199999999999Z" stroke-width="1"></path><path id="Vector_13" fill="#191a23" d="M108.5147 158.554245c-0.83182 1.66364 -1.4925 2.83575 -1.47459 2.930275a77.197075 77.197075 0 0 0 9.395785 24.974500000000003 43.33623 43.33623 0 0 0 1.47459 -5.2934c-2.7223200000000003 -5.25758 -7.59981 -17.86622 -9.395785 -22.611375000000002Z" stroke-width="1"></path><path id="Vector_14" fill="#191a23" d="m104.903845 73.431 -1.3044449999999999 4.68645c-0.850725 -1.039775 -1.682545 -2.04174 -2.30641 -2.985a137.382635 137.382635 0 0 0 3.610855 -1.70145Z" stroke-width="1"></path><path id="Vector_15" fill="#191a23" d="m106.113765 55.111059999999995 3.0845000000000002 1.682545a9.21768 9.21768 0 0 1 -1.077585 -1.9472150000000001 6.48939 6.48939 0 0 1 -2.006915 0.26467Z" stroke-width="1"></path><path id="Subtract" fill="#191a23" fill-rule="evenodd" d="M129.59079 32.29372a13.99567 13.99567 0 0 0 6.6754549999999995 -4.63272 13.986715 13.986715 0 0 0 2.934255 -10.305214999999999 13.979750000000001 13.979750000000001 0 0 0 -5.222754999999999 -9.354989999999999 13.994674999999999 13.994674999999999 0 1 0 -4.3869549999999995 24.292925Zm-2.94719 -15.615530000000001 -1.32335 -2.892465 7.44857 2.8556500000000002 -2.7223200000000003 7.523195 -1.417875 -3.119325s-7.712245 4.026764999999999 -10.812665 -3.81881c1.6258299999999999 4.12129 8.82764 -0.5482450000000001 8.82764 -0.5482450000000001Z" clip-rule="evenodd" stroke-width="1"></path><path id="Vector_16" fill="#191a23" d="M167.306265 166.683395a10.83356 10.83356 0 1 1 -16.850324999999998 -9.007735 10.837539999999999 10.837539999999999 0 0 1 6.0187550000000005 -1.8248300000000002 10.847489999999999 10.847489999999999 0 0 1 10.83157 10.832565Z" stroke-width="1"></path></g><g id="outlines"><path id="Vector_17" stroke="#191a23" stroke-linejoin="round" d="M96.515 35.12947a10.898235 10.898235 0 0 0 -9.810699999999999 6.132185000000001 5.315289999999999 5.315289999999999 0 1 0 -0.613915 7.99781 10.899230000000001 10.899230000000001 0 0 0 17.190615 5.32126 4.423769999999999 4.423769999999999 0 0 0 -0.71839 -1.0945 1.127335 1.127335 0 0 0 -0.45372 -0.359195c-3.62976 -0.398 -3.346185 -3.7053800000000003 -1.24773 -3.0058949999999998 1.001965 0.34029000000000004 1.24773 0.132335 1.0945 -0.398 -1.1342999999999999 -2.7979399999999996 0.132335 -9.395785 5.463545 -3.346185A10.919130000000001 10.919130000000001 0 0 0 96.515 35.12947Z" stroke-width="1"></path><path id="Vector_18" stroke="#191a23" stroke-linecap="round" stroke-linejoin="round" d="M130.519125 135.623475c-0.398 -0.17014500000000002 -0.796 -0.359195 -1.194 -0.5671499999999999" stroke-width="1"></path><path id="Vector_19" stroke="#191a23" stroke-linecap="round" stroke-linejoin="round" d="m113.070805 145.39736 -25.199370000000002 14.139945c-11.26738 -5.425735 -18.034375 -22.306905 -16.88117 -31.135540000000002l7.5421000000000005 -4.253625" stroke-width="1"></path><path id="Vector_20" stroke="#191a23" stroke-linecap="round" stroke-linejoin="round" d="M97.039365 76.888625a45.293395000000004 45.293395000000004 0 0 1 8.01572 11.58777" stroke-width="1"></path><path id="Vector_21" stroke="#191a23" stroke-linecap="round" stroke-linejoin="round" d="M61.78353 153.50661a45.39986 45.39986 0 0 1 2.49546 -90.739025 45.400855 45.400855 0 0 1 19.39454 4.40387" stroke-width="1"></path><path id="Vector_22" stroke="#191a23" stroke-linecap="round" stroke-linejoin="round" d="m120.121375 157.28363000000002 13.49817 24.278a4.466555 4.466555 0 0 1 -1.3611600000000001 5.841645000000001 65.48294 65.48294 0 0 1 -11.229569999999999 6.25656 4.464565 4.464565 0 0 1 -5.6715 -1.92831l-20.173624999999998 -36.258795" stroke-width="1"></path><path id="Vector_23" stroke="#191a23" stroke-linecap="round" stroke-linejoin="round" d="M136.62145999999998 49.40772c6.10731 0.28258 16.75182 10.506205 27.433145 26.025219999999997" stroke-width="1"></path><path id="Vector_24" stroke="#191a23" stroke-linecap="round" stroke-linejoin="round" d="M181.938735 107.19135c8.846545 19.641299999999998 11.793735 35.648860000000006 6.4078 38.678635 -6.8456 3.85065 -24.477 -14.52103 -39.39603 -41.022855 -8.59879 -15.27524 -14.4275 -29.924625 -16.521975 -40.322375" stroke-width="1"></path><path id="Vector_25" stroke="#191a23" stroke-linecap="round" stroke-linejoin="round" d="M138.0065 82.313365c18.960720000000002 -10.132085 39.35424 -8.976890000000001 45.993875 2.816845 6.639635 11.793735 -2.930275 29.81219 -21.437275000000003 40.795" stroke-width="1"></path><path id="Vector_26" stroke="#191a23" stroke-linecap="round" stroke-linejoin="round" d="m184.52872 146.13366 -54.009595 -10.510185 -1.77707 0.9830599999999999" stroke-width="1"></path><path id="Vector_27" stroke="#191a23" stroke-linecap="round" stroke-linejoin="round" d="m87.871435 159.537305 -3.62976 2.0228349999999997c-20.43531 9.111215 -34.85883 -21.00246 -15.4225 -31.948455000000003l2.174075 -1.2099199999999999" stroke-width="1"></path><path id="Vector_28" stroke="#191a23" stroke-linecap="round" stroke-linejoin="round" d="m127.24856 66.188395 -3.913335 10.643514999999999" stroke-width="1"></path><path id="Vector_29" stroke="#191a23" stroke-linecap="round" stroke-linejoin="round" d="M108.117695 54.84639s1.22584 3.7083649999999997 4.00786 3.26957c1.4925 -0.23481999999999997 2.94918 -0.50944 4.385960000000001 -0.796" stroke-width="1"></path><path id="Vector_30" stroke="#191a23" stroke-linecap="round" stroke-linejoin="round" d="M101.652185 60.9935s8.601775 7.258525 12.36387 5.8227400000000005c4.309345 -1.644735 -0.41591 -8.96097 -0.41591 -8.96097" stroke-width="1"></path><path id="Vector_31" stroke="#191a23" stroke-linecap="round" stroke-linejoin="round" d="M98.75972 62.237249999999996c3.799905 3.13823 11.28529 8.824655 16.598589999999998 7.07047 4.705355 -1.5531949999999999 3.13823 -7.90229 0.86963 -11.965869999999999" stroke-width="1"></path><path id="Vector_32" stroke="#191a23" stroke-linecap="round" stroke-linejoin="round" d="M59.231355 74.015065c0.775105 -0.26467 2.23079 -0.796 2.3253150000000002 -0.8129149999999999 -1.1342999999999999 -1.417875 -2.0228349999999997 -0.9452499999999999 -2.3253150000000002 0.8129149999999999Z" stroke-width="1"></path><path id="Vector_33" stroke="#191a23" stroke-linecap="round" stroke-linejoin="round" d="M119.592035 47.284389999999995c2.0228349999999997 -0.86963 3.0636050000000004 3.06261 2.49546 7.10828 -0.5283450000000001 3.762095 -2.17308 6.651574999999999 -3.704385 6.445609999999999 -1.001965 -0.13333 -1.70145 -1.592 -1.909405 -3.6476699999999997" stroke-width="1"></path><path id="Vector_34" stroke="#191a23" stroke-linecap="round" stroke-linejoin="round" d="M120.272615 47.17096s7.8605 0.9422649999999999 14.613565 1.833785c7.53613 0.995 9.920150000000001 10.312180000000001 -0.41591 14.707095a48.2177 48.2177 0 0 1 -12.212629999999999 3.459615" stroke-width="1"></path><path id="Vector_35" stroke="#191a23" stroke-linecap="round" stroke-linejoin="round" d="M118.38310999999999 60.819375h12.778785" stroke-width="1"></path><path id="Vector_36" stroke="#191a23" stroke-linecap="round" stroke-linejoin="round" d="M113.01409 47.227675000000005a5.125245 5.125245 0 0 0 -1.077585 -2.098455c-0.990025 -1.071615 -0.7402799999999999 5.1421600000000005 0.24576499999999998 8.847539999999999 0.60297 2.2685999999999997 4.367055000000001 3.855625 9.073405 3.724285" stroke-width="1"></path><path id="Vector_37" stroke="#191a23" stroke-linecap="round" stroke-linejoin="round" d="M115.24488 41.57508c0.24576499999999998 -1.417875 0.566155 -6.036665 -0.90744 -1.682545a25.918755 25.918755 0 0 0 -0.888535 3.5919499999999998 24.075020000000002 24.075020000000002 0 0 0 -0.434815 6.0695" stroke-width="1"></path><path id="Vector_38" stroke="#191a23" stroke-linecap="round" stroke-linejoin="round" d="M119.53532 48.532120000000006c0.18905 0.359195 1.47459 0.661675 2.34422 0.6805800000000001" stroke-width="1"></path><path id="Vector_39" stroke="#191a23" stroke-linecap="round" stroke-linejoin="round" d="M118.023915 45.412794999999996c0.07561999999999999 -0.17014500000000002 0.5671499999999999 -1.228825 0.623865 -1.380065 1.194 -2.552175 1.573095 -1.8327900000000001 1.15221 1.2099199999999999a68.291825 68.291825 0 0 0 -0.45372 7.354045" stroke-width="1"></path><path id="Vector_40" stroke="#191a23" stroke-linecap="round" stroke-linejoin="round" d="M115.982175 46.093375c0.359195 -1.791 1.001965 -4.140194999999999 1.194 -4.669535 1.32335 -3.7053800000000003 2.392975 -3.0636050000000004 1.592 0.661675 -0.458695 2.1163649999999996 -0.850725 3.66757 -1.0945 5.085445" stroke-width="1"></path><path id="Vector_41" stroke="#191a23" stroke-linecap="round" stroke-linejoin="round" d="M117.34333500000001 41.026835c0.52934 -5.783935 -1.2706149999999998 -2.836745 -2.00393 0.207955a37.07569 37.07569 0 0 0 -0.796 4.23472" stroke-width="1"></path><path id="Vector_42" stroke="#191a23" stroke-linecap="round" stroke-linejoin="round" d="M114.016055 45.471500000000006a5.71727 5.71727 0 0 1 4.045669999999999 2.587" stroke-width="1"></path><path id="Vector_43" stroke="#191a23" stroke-linecap="round" stroke-linejoin="round" d="M49.6505 79.384085s-1.9661199999999999 -0.26467 -4.99092 -0.6427700000000001c-3.17604 -0.398 -3.62976 -1.7114 0.037809999999999996 -1.720355 0.398 0 4.423769999999999 -0.08656499999999999 5.6147849999999995 -0.11343 0.6427700000000001 -0.014924999999999999 2.472575 -0.24576499999999998 2.476555 -0.83182 0.008955 -1.644735 -3.137235 -5.174 -1.9661199999999999 -5.992884999999999 0.757195 -0.52735 3.02878 1.678565 4.5173 3.28947a3.177035 3.177035 0 0 0 3.4029 0.8129149999999999c0.11343 -0.0398 2.665605 -0.9452499999999999 2.779035 -0.9830599999999999" stroke-width="1"></path><path id="Vector_44" stroke="#191a23" stroke-linecap="round" stroke-linejoin="round" d="M50.479335 79.232845s-6.91923 1.228825 -7.37295 1.30345c-3.6098600000000003 0.597 -2.968085 1.7989600000000001 0.22686 1.70145 3.043705 -0.09154 6.766 -0.15123999999999999 6.766 -0.15123999999999999" stroke-width="1"></path><path id="Vector_45" stroke="#191a23" stroke-linecap="round" stroke-linejoin="round" d="M51.25444 81.6895a58.674155 58.674155 0 0 1 -6.597845 1.8526900000000002c-3.5750349999999997 0.8049550000000001 -2.83575 1.855675 0.359195 1.682545a38.364215 38.364215 0 0 0 5.879455 -0.623865" stroke-width="1"></path><path id="Vector_46" stroke="#191a23" stroke-linecap="round" stroke-linejoin="round" d="M52.747935 83.67949999999999a24.567545 24.567545 0 0 1 -5.48245 2.2885c-3.553145 0.98704 -2.7422199999999997 1.9810450000000002 0.5482450000000001 1.6258299999999999 0.888535 -0.0995 1.662645 -0.20895 2.30641 -0.32138500000000003a170.8614 170.8614 0 0 1 5.613790000000001 -0.90744 56.07024 56.07024 0 0 0 8.410734999999999 -2.05965" stroke-width="1"></path><path id="Vector_47" stroke="#191a23" stroke-linecap="round" stroke-linejoin="round" d="M50.290285 78.11745c0.5671499999999999 3.175045 1.8904999999999998 5.103355 4.158105 7.409765" stroke-width="1"></path><path id="Vector_48" stroke="#191a23" stroke-linecap="round" stroke-linejoin="round" d="M52.918079999999996 77.24781999999999a11.069374999999999 11.069374999999999 0 0 0 7.8605 4.25263" stroke-width="1"></path><path id="Vector_49" stroke="#191a23" stroke-linecap="round" stroke-linejoin="round" d="M101.282045 75.141405c2.0437299999999996 3.04072 6.0237300000000005 6.62869 6.4764550000000005 10.366905000000001 5.217779999999999 1.194 11.51215 1.039775 14.744905000000001 -1.115395 2.2885 -15.14191 -0.22686 -17.769705000000002 -2.45765 -20.681075" stroke-width="1"></path><path id="Vector_50" stroke="#191a23" stroke-linecap="round" stroke-linejoin="round" d="M122.503405 84.37599999999999s4.875500000000001 12.496205 9.94403 26.56053a40.97808 40.97808 0 0 1 -19.18758 3.10042" stroke-width="1"></path><path id="Vector_51" stroke="#191a23" stroke-linecap="round" stroke-linejoin="round" d="m119.53532 97.664225 -6.90132 17.97766a63.016335 63.016335 0 0 1 -18.374665 -6.84361c3.19395 -12.00368 9.186835 -18.77167 13.497174999999999 -23.30887" stroke-width="1"></path><path id="Vector_52" stroke="#191a23" stroke-linecap="round" stroke-linejoin="round" d="M95.849345 109.66790499999999a85.34115 85.34115 0 0 0 -1.1342999999999999 10.85147" stroke-width="1"></path><path id="Vector_53" stroke="#191a23" stroke-linecap="round" stroke-linejoin="round" d="M95.130955 114.98021s-15.5021 -3.270565 -21.83428 -4.820774999999999c-6.33218 -1.55021 -9.509215000000001 -4.291435 -9.509215000000001 -4.291435a62.84221 62.84221 0 0 0 -25.04813 9.925125c16.181685 3.97005 20.132830000000002 -0.737295 28.14855 2.741225l27.052059999999997 13.043455a8.75799 8.75799 0 0 0 11.398719999999999 -4.19691l5.841645000000001 -12.022585" stroke-width="1"></path><path id="Vector_54" stroke="#191a23" stroke-linecap="round" stroke-linejoin="round" d="M130.29226500000001 111.76636a66.40431 66.40431 0 0 1 1.153205 15.860299999999999 12.158900000000001 12.158900000000001 0 0 1 -0.49152999999999997 2.741225c-2.4875 8.284370000000001 -11.92806 29.415184999999997 -11.92806 29.415184999999997 -2.3253150000000002 6.975945 2.13527 13.02455 -2.587 26.67396a79.33333999999999 79.33333999999999 0 0 1 -9.395785 -24.974500000000003c-0.03184 -0.16119 2.20691 -3.98 3.62777 -7.733140000000001 0.98505 -2.599935 6.89933 -24.98246 7.03465 -25.538665l-2.76013 -14.00761" stroke-width="1"></path><path id="Vector_55" stroke="#191a23" stroke-linecap="round" stroke-linejoin="round" d="M49.874375 158.802a2.78799 2.78799 0 0 0 -3.44071 1.92831l-0.28357499999999997 0.964155 -0.964155 -0.28357499999999997a2.792965 2.792965 0 0 0 -3.4427 1.9303 2.790975 2.790975 0 0 0 1.9303 3.4427l6.333175 1.791 1.791 -6.33218a2.79197 2.79197 0 0 0 -1.923335 -3.44071v0Z" stroke-width="1"></path><path id="Vector_56" stroke="#191a23" stroke-linecap="round" stroke-linejoin="round" d="M170.746975 67.063a2.37407 2.37407 0 1 1 -2.894455 -3.7640849999999997 2.37407 2.37407 0 0 1 2.894455 3.7640849999999997v0Z" stroke-width="1"></path><path id="Vector_57" stroke="#191a23" stroke-linecap="round" stroke-linejoin="round" d="M19.419415 95.4205a10.835550000000001 10.835550000000001 0 1 0 10.207705 10.7858A10.81366 10.81366 0 0 0 19.419415 95.4205Z" stroke-width="1"></path><path id="Vector_58" stroke="#191a23" stroke-linecap="round" stroke-linejoin="round" d="M64.13172999999999 84.31033c-0.71839 0.24576499999999998 -1.4925 0.49152999999999997 -2.3253150000000002 0.71839 1.115395 1.380065 2.00393 1.001965 2.3253150000000002 -0.71839Z" stroke-width="1"></path><path id="Vector_59" stroke="#191a23" stroke-linecap="round" stroke-linejoin="round" d="m106.113765 55.129965 3.06261 1.66364" stroke-width="1"></path><path id="Vector_60" stroke="#191a23" stroke-linecap="round" stroke-linejoin="round" d="M106.113765 55.129965s8.99878 0.018904999999999998 1.3044449999999999 -8.734110000000001c-5.21579 -5.955075 -6.54113 0.24875 -5.533195 3.1402200000000002 0.23283 0.66864 0.122385 0.995 -1.02684 0.60297 -2.098455 -0.6965 -2.3820300000000003 2.6088899999999997 1.24773 3.0058949999999998 0.287555 0.162185 0.53332 0.38805 0.71839 0.661675 2.2885 3.742195 2.136265 5.859555 -2.04174 7.598814999999999 -11.266385 4.669535 -21.172605 7.164 -40.60595 10.9649 1.5283200000000001 -0.34825 3.073555 4.184970000000001 3.461605 5.731199999999999 0.436805 1.740255 1.2935 7.31325 -0.436805 7.74707 13.91408 -2.514365 29.188325 -6.199845 41.702439999999996 -12.400685L103.5795 78.11745" stroke-width="1"></path><path id="Vector_61" stroke="#191a23" stroke-linecap="round" stroke-linejoin="round" d="M110.843 88.778875s-1.592 2.53327 -5.78493 2.53327" stroke-width="1"></path><path id="Vector_62" stroke="#191a23" stroke-linecap="round" stroke-linejoin="round" d="m43.465579999999996 46.773955 4.215815 9.15002" stroke-width="1"></path><path id="Vector_63" stroke="#191a23" stroke-linecap="round" stroke-linejoin="round" d="m50.139044999999996 49.25051 -9.131115 4.215815" stroke-width="1"></path><path id="Vector_64" stroke="#191a23" stroke-linecap="round" stroke-linejoin="round" d="m125.32025 13.785725000000001 1.32335 2.892465s-7.20181 4.669535 -8.82764 0.5482450000000001c3.10042 7.845575 10.812665 3.81881 10.812665 3.81881l1.417875 3.119325 2.7223200000000003 -7.523195 -7.44857 -2.8556500000000002Z" stroke-width="1"></path><path id="Vector_65" stroke="#191a23" stroke-linecap="round" stroke-linejoin="round" d="M136.266245 27.661a13.99567 13.99567 0 1 1 -2.2885 -19.660205 13.98771 13.98771 0 0 1 5.222754999999999 9.354989999999999 13.99169 13.99169 0 0 1 -2.934255 10.305214999999999v0Z" stroke-width="1"></path><path id="Vector_66" stroke="#191a23" stroke-linecap="round" stroke-linejoin="round" d="M156.60703 169.36691a1.602945 1.602945 0 1 1 -1.47459 1.720355 1.626825 1.626825 0 0 1 1.47459 -1.720355v0Z" stroke-width="1"></path><path id="Vector_67" stroke="#191a23" stroke-linecap="round" stroke-linejoin="round" d="M160.482555 162.599915a1.602945 1.602945 0 1 1 -1.47459 1.720355 1.624835 1.624835 0 0 1 1.47459 -1.720355v0Z" stroke-width="1"></path><path id="Vector_68" stroke="#191a23" stroke-linecap="round" stroke-linejoin="round" d="M152.18326000000002 162.20291a1.602945 1.602945 0 1 1 -1.47459 1.720355 1.62384 1.62384 0 0 1 1.47459 -1.720355v0Z" stroke-width="1"></path><path id="Vector_69" stroke="#191a23" stroke-linecap="round" stroke-linejoin="round" d="m153.903615 163.6775 5.123255 0.6427700000000001" stroke-width="1"></path><path id="Vector_70" stroke="#191a23" stroke-linecap="round" stroke-linejoin="round" d="m157.382135 169.499245 2.30641 -4.006865" stroke-width="1"></path><path id="Vector_71" stroke="#191a23" stroke-linecap="round" stroke-linejoin="round" d="M167.306265 166.683395a10.83356 10.83356 0 1 1 -16.850324999999998 -9.007735 10.837539999999999 10.837539999999999 0 0 1 6.0187550000000005 -1.8248300000000002 10.847489999999999 10.847489999999999 0 0 1 10.83157 10.832565v0Z" stroke-width="1"></path><path id="Vector_72" stroke="#191a23" stroke-linecap="round" stroke-linejoin="round" d="M44.775 116.98414a89.572885 89.572885 0 0 1 21.286035000000002 -9.603739999999998 16.20855 16.20855 0 0 1 -2.30641 -1.531305 62.84619 62.84619 0 0 0 -25.049125 9.925125 59.09305 59.09305 0 0 0 6.0695 1.2099199999999999v0Z" stroke-width="1"></path><path id="Vector_73" stroke="#191a23" stroke-linecap="round" stroke-linejoin="round" d="M108.5147 158.554245c-0.83182 1.66364 -1.4925 2.83575 -1.47459 2.930275a77.197075 77.197075 0 0 0 9.395785 24.974500000000003 43.33623 43.33623 0 0 0 1.47459 -5.2934c-2.7223200000000003 -5.25758 -7.59981 -17.86622 -9.395785 -22.611375000000002Z" stroke-width="1"></path></g></g></svg>