<svg xmlns="http://www.w3.org/2000/svg" fill="none" viewBox="-0.5 -0.5 200 200" id="Newsletter--Streamline-Bangalore.svg"><desc>Newsletter Streamline Illustration: https://streamlinehq.com</desc><g id="Product-Newsletter-01"><g id="color 2"><path id="Vector" fill="#b9ff66" d="m155.49661 89.09827 -30.3475 -2.2685999999999997a18.414465 18.414465 0 0 0 -8.601775 1.417875l-8.072434999999999 3.44071a26.283920000000002 26.283920000000002 0 0 1 -3.97005 5.425735c-3.8944300000000003 4.1591 -18.82938 11.891245 -26.712765 13.517075a8.02169 8.02169 0 0 1 -5.40683 -0.9452499999999999 113.032 113.032 0 0 1 -11.206685 7.923185s7.37295 21.003455000000002 34.825 9.131115l21.835275 -9.471405 -4.782965000000001 11.475335c0.132335 6.560035 0.17014500000000002 15.16181 -0.26467 20.895a27.900795 27.900795 0 0 0 15.748859999999999 0.150245c2.05965 -13.989700000000001 3.6287649999999996 -36.07074 -1.702445 -44.407845l26.089895 -0.24576499999999998c3.28748 -5.921245 2.997935 -9.288325 2.5690899999999997 -16.037409999999998Z" stroke-width="1"></path><g id="Vector_2"><path fill="#b9ff66" d="m107.023195 80.96912 3.17604 -13.970795a1.183055 1.183055 0 1 0 -2.30641 -0.52934l-3.74319 16.466255" stroke-width="1"></path><path fill="#b9ff66" d="m107.023195 80.96912 3.17604 -13.970795a1.183055 1.183055 0 1 0 -2.30641 -0.52934l-3.74319 16.466255c0.47063499999999997 1.736275 1.73528 4.064575 2.87356 -1.9661199999999999Z" stroke-width="1"></path></g><path id="Vector_3" fill="#b9ff66" d="M104.565545 28.034125a11.853435000000001 11.853435000000001 0 1 1 -11.853435000000001 -11.853435000000001 11.861395 11.861395 0 0 1 11.853435000000001 11.853435000000001Z" stroke-width="1"></path></g><g id="color 1"><path id="Vector_4" fill="#191a23" d="M166.4635 90.591765a47.333144999999995 47.333144999999995 0 0 1 -9.074399999999999 13.970795c2.098455 0.32138500000000003 4.19691 0.796 5.992884999999999 1.077585a23.01435 23.01435 0 0 0 5.21579 -3.1551449999999996c4.975 -4.00786 15.223500000000001 -8.979875 17.468220000000002 -11.815625 -4.064575 -0.5880449999999999 -14.008605000000001 -0.19104000000000002 -19.602495 -0.07761Z" stroke-width="1"></path><path id="Vector_5" fill="#191a23" d="M128.007745 161.29746a47.242599999999996 47.242599999999996 0 0 1 -14.311084999999999 -8.546055c-0.24576499999999998 2.09945 -0.623865 4.216810000000001 -0.850725 6.03169a23.29295 23.29295 0 0 0 3.346185 5.10435c4.179 4.801869999999999 9.529115 14.85933 12.4375 17.0145 0.45571 -4.08348 -0.299495 -14.008605000000001 -0.621875 -19.604485Z" stroke-width="1"></path><path id="Vector_6" fill="#191a23" d="M63.10688 101.367615c-0.3781 0.18905 -0.775105 0.359195 -1.17211 0.52934A84.42177000000001 84.42177000000001 0 0 1 56.714999999999996 95.091155c0.17014500000000002 0.398 5.387925 11.683290000000001 14.046415000000001 15.936914999999999 0.5671499999999999 -0.45372 1.115395 -0.888535 1.6258299999999999 -1.32335 -3.2347449999999998 -1.758165 -6.595854999999999 -5.161065000000001 -9.280365 -8.337105Z" stroke-width="1"></path><path id="Vector_7" fill="#191a23" d="M112.82703000000001 119.42189s0.17014500000000002 3.9889550000000003 0.26467 9.301260000000001l4.7451550000000005 -11.45643 -5.009825 2.15517Z" stroke-width="1"></path><path id="Vector_8" fill="#191a23" d="M61.915865 51.760895s-3.310365 -6.201835 -11.097235000000001 -2.4198399999999998c-7.7868699999999995 3.781995 -6.27646 18.980620000000002 -6.27646 18.980620000000002s-6.920225 3.3083750000000003 -10.6067 8.885349999999999c-5.70931 8.639585 -2.8347550000000004 21.684034999999998 14.91903 21.684034999999998a38.877635 38.877635 0 0 1 -0.86963 -11.361905c0.47262499999999996 -6.711275 2.9113700000000002 -12.8554 5.06654 -19.150765 2.74819 -8.138105 2.158155 -7.487375 3.119325 -10.47337 -2.2885 -2.174075 0.434815 -4.782965000000001 1.66364 -2.6666000000000003 0.520385 0.8557 0.64476 0.88953 1.06067 1.0198749999999999 2.25268 0.7054549999999999 6.34014 1.4925 8.557 0.75819 0.0029850000000000002 -0.057710000000000004 0.192035 -5.25559 -5.53618 -5.25559Z" stroke-width="1"></path><path id="Vector_9" fill="#191a23" d="m57.718955 71.006185 -2.0228349999999997 -5.06654c0.67461 0.904455 1.4696150000000001 1.7114 2.363125 2.4009349999999996a22.6462 22.6462 0 0 0 -0.34029000000000004 2.665605Z" stroke-width="1"></path><path id="Vector_10" fill="#191a23" d="M84.46953 156.854785a3.29942 3.29942 0 1 1 -3.8944300000000003 -2.5710800000000003 3.2685750000000002 3.2685750000000002 0 0 1 2.48352 0.47362 3.278525 3.278525 0 0 1 1.4109099999999999 2.09746Z" stroke-width="1"></path></g><g id="outlines"><path id="Vector_11" stroke="#191a23" d="M104.565545 28.034125a11.853435000000001 11.853435000000001 0 1 1 -11.853435000000001 -11.853435000000001 11.861395 11.861395 0 0 1 11.853435000000001 11.853435000000001Z" stroke-width="1"></path><path id="Vector_12" stroke="#191a23" stroke-linecap="round" stroke-linejoin="round" d="m130.4843 126.322215 9.773885 4.9342049999999995a8.484364999999999 8.484364999999999 0 0 0 11.381805 -3.74319l11.191759999999999 -22.156660000000002" stroke-width="1"></path><path id="Vector_13" stroke="#191a23" stroke-linecap="round" stroke-linejoin="round" d="m169.92112500000002 91.32906 6.900325 -13.64941a8.483369999999999 8.483369999999999 0 0 0 -3.74319 -11.38081l-69.063945 -34.89266M64.86504500000001 76.81400000000001l20.03731 -39.691545" stroke-width="1"></path><path id="Vector_14" stroke="#191a23" stroke-linecap="round" stroke-linejoin="round" d="m177.142835 70.68480000000001 -57.68015 9.301260000000001 -21.32086 -41.406925" stroke-width="1"></path><path id="Vector_15" stroke="#191a23" stroke-linecap="round" stroke-linejoin="round" d="M87.85849999999999 129.47934999999998a47.617715 47.617715 0 0 1 -52.532019999999996 12.32606 47.631645 47.631645 0 0 1 -26.63814 -25.99935 47.62667 47.62667 0 0 1 11.049475000000001 -52.815595" stroke-width="1"></path><path id="Vector_16" stroke="#191a23" stroke-linecap="round" stroke-linejoin="round" d="M57.718955 72.5753c-0.052735 -1.4327999999999999 0.06865500000000001 -2.866595 0.36218 -4.27054 2.30442 1.5412549999999998 4.20885 0.58307 5.606825 -1.4109099999999999a17.781644999999997 17.781644999999997 0 0 0 2.651675 -9.66941" stroke-width="1"></path><path id="Vector_17" stroke="#191a23" stroke-linecap="round" stroke-linejoin="round" d="M56.714999999999996 95.091155a84.39789 84.39789 0 0 0 5.217779999999999 6.8058 28.410235 28.410235 0 0 0 8.11522 -5.16803 32.653909999999996 32.653909999999996 0 0 0 4.7401800000000005 -5.362055 145.11279000000002 145.11279000000002 0 0 1 -9.054499999999999 -13.30912 12.396704999999999 12.396704999999999 0 0 0 -5.783935 -5.02475 6.80182 6.80182 0 0 0 -3.2516599999999998 -0.41591 5.388920000000001 5.388920000000001 0 0 1 -4.759085000000001 -1.02485" stroke-width="1"></path><path id="Vector_18" stroke="#191a23" stroke-linecap="round" stroke-linejoin="round" d="M155.64785 90.57286c2.5710800000000003 0.094525 7.67543 0.07561999999999999 10.794755 0.018904999999999998a47.339115 47.339115 0 0 1 -9.054499999999999 13.970795c-0.964155 -0.15123999999999999 -3.0058949999999998 -0.359195 -3.9322399999999997 -0.41591" stroke-width="1"></path><path id="Vector_19" stroke="#191a23" stroke-linecap="round" stroke-linejoin="round" d="M186.065 90.66738500000001c1.077585 0.15123999999999999 1.7701049999999998 0.398 1.8526900000000002 0.737295 0.52337 2.14721 -10.714160000000001 7.363 -15.76677 11.437524999999999a18.661224999999998 18.661224999999998 0 0 1 -4.875500000000001 2.87356 9.709209999999999 9.709209999999999 0 0 1 -3.8805 -0.07561999999999999 22.866095 22.866095 0 0 0 5.221760000000001 -3.1551449999999996c4.961069999999999 -3.9998999999999993 15.19962 -8.962959999999999 17.448320000000002 -11.817615Z" stroke-width="1"></path><path id="Vector_20" stroke="#191a23" stroke-linecap="round" stroke-linejoin="round" d="M166.4635 90.591765c5.595879999999999 -0.11343 15.53991 -0.510435 19.601499999999998 0.07561999999999999 -2.249695 2.83575 -12.492225 7.812740000000001 -17.468220000000002 11.815625a22.885 22.885 0 0 1 -5.217779999999999 3.1571350000000002c-1.7959749999999999 -0.28357499999999997 -3.8944300000000003 -0.7562 -5.992884999999999 -1.077585a47.34011 47.34011 0 0 0 9.077385 -13.970795v0Z" stroke-width="1"></path><path id="Vector_21" stroke="#191a23" stroke-linecap="round" stroke-linejoin="round" d="M127.780885 150.01117499999998c-0.17014500000000002 2.83575 0 7.013755000000001 0.22686 11.30519a47.366975 47.366975 0 0 1 -14.29218 -8.54506c0.11343 -0.964155 0.18905 -1.92831 0.207955 -2.83575" stroke-width="1"></path><path id="Vector_22" stroke="#191a23" stroke-linecap="round" stroke-linejoin="round" d="M128.63161 180.901945c-0.11343 1.0945 -0.319395 1.78105 -0.661675 1.8904999999999998 -2.1084050000000003 0.671625 -7.754035 -10.452475000000002 -12.004674999999999 -15.35086a18.589585 18.589585 0 0 1 -3.06261 -4.782965000000001 9.817665000000002 9.817665000000002 0 0 1 -0.056715 -3.8805 22.987485000000003 22.987485000000003 0 0 0 3.346185 5.10435c4.179 4.822765 9.528120000000001 14.864305 12.439490000000001 17.019475Z" stroke-width="1"></path><path id="Vector_23" stroke="#191a23" stroke-linecap="round" stroke-linejoin="round" d="M128.007745 161.29746c0.32138500000000003 5.595879999999999 1.077585 15.522 0.623865 19.601499999999998 -2.9113700000000002 -2.15517 -8.274420000000001 -12.201685 -12.4375 -17.0145a23.1039 23.1039 0 0 1 -3.346185 -5.10435c0.22686 -1.81488 0.6049599999999999 -3.933235 0.850725 -6.03169a47.23066 47.23066 0 0 0 14.309095000000001 8.54904v0Z" stroke-width="1"></path><path id="Vector_24" stroke="#191a23" stroke-linecap="round" stroke-linejoin="round" d="M70.763405 111.02807C62.104915 106.774445 56.887135 95.48816000000001 56.714999999999996 95.091155" stroke-width="1"></path><path id="Vector_25" stroke="#191a23" stroke-linecap="round" stroke-linejoin="round" d="M63.10688 101.367615c2.6865 3.17604 6.05159 6.59486 9.28335 8.358a8.088355 8.088355 0 0 0 5.405835 0.9263450000000001c7.89035 -1.592 22.818335 -9.357975 26.712765 -13.517075 7.05256 -7.532150000000001 6.47347 -13.270315 5.86055 -22.856145 -0.24875 -3.8944300000000003 -0.73829 -3.8009 -1.32335 -1.99 -0.870625 2.70242 -1.969105 9.2535 -2.87356 11.83453 -0.08457500000000001 0.259695 -0.2587 0.480585 -0.49152999999999997 0.623865 -0.6965 0.398 -1.135295 -0.47262499999999996 -1.4925 -1.70145 -0.379095 -1.3044449999999999 -0.6497350000000001 -3.041715 -1.001965 -4.0794999999999995 -0.617895 -1.829805 -1.8785599999999998 -3.4974250000000002 -2.07955 1.871595 -0.11740999999999999 3.1571350000000002 -0.12537 8.59481 -3.55414 10.5868a60.30695 60.30695 0 0 1 -8.3182 3.9322399999999997 35.991139999999994 35.991139999999994 0 0 1 -9.243549999999999 2.2685999999999997c-1.72135 0.09154 -4.02776 -1.871595 -6.22074 -4.9153" stroke-width="1"></path><path id="Vector_26" stroke="#191a23" stroke-linecap="round" stroke-linejoin="round" d="m107.023195 80.96912 3.17604 -13.970795a1.183055 1.183055 0 1 0 -2.30641 -0.52934l-3.74319 16.466255" stroke-width="1"></path><path id="Vector_27" stroke="#191a23" stroke-linecap="round" stroke-linejoin="round" d="M112.833 119.4398c2.94918 -1.266635 5.00883 -2.17308 5.00883 -2.17308l-4.75013 11.45643" stroke-width="1"></path><path id="Vector_28" stroke="#191a23" stroke-linecap="round" stroke-linejoin="round" d="M72.389235 109.723625a111.08677499999999 111.08677499999999 0 0 1 -11.210664999999999 7.885375A30.270885 30.270885 0 0 1 48.8545 98.89106000000001" stroke-width="1"></path><path id="Vector_29" stroke="#191a23" stroke-linecap="round" stroke-linejoin="round" d="m108.459975 91.688255 8.866444999999999 -3.762095a15.109075 15.109075 0 0 1 6.95704 -1.153205l31.213150000000002 2.3253150000000002c0.7024699999999999 6.5321750000000005 0.6188899999999999 10.289295 -2.5710800000000003 16.03144l-26.052084999999998 0.24576499999999998" stroke-width="1"></path><path id="Vector_30" stroke="#191a23" stroke-linecap="round" stroke-linejoin="round" d="M61.915865 51.760895s-3.310365 -6.201835 -11.097235000000001 -2.4198399999999998c-7.7868699999999995 3.781995 -6.27646 18.980620000000002 -6.27646 18.980620000000002s-6.920225 3.3083750000000003 -10.6067 8.885349999999999c-5.70931 8.639585 -2.8347550000000004 21.684034999999998 14.91903 21.684034999999998a38.877635 38.877635 0 0 1 -0.86963 -11.361905c0.47262499999999996 -6.711275 2.9113700000000002 -12.8554 5.06654 -19.150765 0.49152999999999997 -1.4556850000000001 1.66364 -5.009825 2.060645 -6.48541 0.359195 -1.3790699999999998 0.52934 -2.34422 1.05868 -3.98796 -2.2885 -2.174075 0.434815 -4.782965000000001 1.66364 -2.6666000000000003 0.5422750000000001 0.8955 0.647745 0.84376 1.24176 1.039775 1.47061 0.48357 5.4327 1.5810549999999999 8.380885 0.6965 -0.00199 0.0029850000000000002 0.18706 -5.2138 -5.541155 -5.2138Z" stroke-width="1"></path><path id="Vector_31" stroke="#191a23" stroke-linecap="round" stroke-linejoin="round" d="M24.5964 55.011559999999996A96.51898 96.51898 0 0 0 5.80483 66.922705a1.1850450000000001 1.1850450000000001 0 0 0 -0.094525 1.9472150000000001l4.31034 3.421805c2.611875 -3.425785 6.15308 -6.321235 9.7112 -9.312205a71.254935 71.254935 0 0 0 -7.164 11.32907l4.637695 3.67354a1.193005 1.193005 0 0 0 1.871595 -0.5482450000000001L26.37347 56.4165a1.194 1.194 0 0 0 -1.77707 -1.4049399999999999v0Z" stroke-width="1"></path><path id="Vector_32" stroke="#191a23" stroke-linecap="round" stroke-linejoin="round" d="M152.77429 18.979625c-3.762095 -1.87259 -7.9779100000000005 0.796 -7.37295 4.72625l-1.758165 1.624835 2.4198399999999998 0.18905c2.136265 3.610855 7.561999999999999 3.76309 9.33907 0.207955a5.131215 5.131215 0 0 0 -2.627795 -6.74809Z" stroke-width="1"></path><path id="Vector_33" stroke="#191a23" stroke-linecap="round" stroke-linejoin="round" d="M175.15781 128.212715a4.90336 4.90336 0 0 0 -3.734235 -0.3184 4.886444999999999 4.886444999999999 0 0 0 -2.86361 2.416855s-3.1949449999999997 6.239644999999999 -5.879455 6.0496l13.34693 6.900325c-1.720355 -2.07955 1.228825 -8.44954 1.228825 -8.44954a4.884455 4.884455 0 0 0 0.3184 -3.734235 4.89142 4.89142 0 0 0 -2.416855 -2.864605v0Z" stroke-width="1"></path><path id="Vector_34" stroke="#191a23" stroke-linecap="round" stroke-linejoin="round" d="M171.546955 140.954685a2.46959 2.46959 0 1 1 -4.385960000000001 -2.2685999999999997" stroke-width="1"></path><path id="Vector_35" stroke="#191a23" stroke-linecap="round" stroke-linejoin="round" d="m189.71466 55.995615 -3.535235 12.17482" stroke-width="1"></path><path id="Vector_36" stroke="#191a23" stroke-linecap="round" stroke-linejoin="round" d="m194.025 63.841190000000005 -12.17482 -3.535235" stroke-width="1"></path><path id="Vector_37" stroke="#191a23" stroke-linecap="round" stroke-linejoin="round" d="M113.110605 143.39343a56.32695 56.32695 0 0 0 16.239395000000002 0.2985" stroke-width="1"></path><path id="Vector_38" stroke="#191a23" stroke-linecap="round" stroke-linejoin="round" d="M148.2749 88.60674a27.884874999999997 27.884874999999997 0 0 1 -2.627795 16.598589999999998" stroke-width="1"></path><path id="Vector_39" stroke="#191a23" stroke-linecap="round" stroke-linejoin="round" d="M84.46953 156.854785a3.29942 3.29942 0 1 1 -3.8944300000000003 -2.5710800000000003 3.2685750000000002 3.2685750000000002 0 0 1 2.48352 0.47362 3.276535 3.276535 0 0 1 1.4109099999999999 2.09746v0Z" stroke-width="1"></path><path id="Vector_40" stroke="#191a23" stroke-linecap="round" stroke-linejoin="round" d="M82.976035 146.51375a8.768935 8.768935 0 0 1 9.61966 -1.58006 8.772915 8.772915 0 0 1 -0.54327 16.202579999999998 8.776895 8.776895 0 0 1 -9.492299999999998 -2.2208400000000004 8.77789 8.77789 0 0 1 0.41591 -12.40168Z" stroke-width="1"></path><path id="Vector_41" stroke="#191a23" stroke-linecap="round" stroke-linejoin="round" d="M61.17856999999999 117.60900000000001s7.37295 21.003455000000002 34.825 9.131115l16.829430000000002 -7.300314999999999c0.20895 7.94209 0.64874 21.383544999999998 -0.0199 30.193275a27.906765 27.906765 0 0 0 15.747865 0.15123999999999999c2.060645 -13.990695 3.65364 -36.07472 -1.682545 -44.40884 -6.91326 -10.798734999999999 -28.16845 -3.875525 -28.16845 -3.875525" stroke-width="1"></path><path id="Vector_42" stroke="#191a23" stroke-linecap="round" stroke-linejoin="round" d="M58.081134999999996 68.30476a10.410684999999999 10.410684999999999 0 0 1 -2.3700900000000003 -2.345215l2.00791 5.04664" stroke-width="1"></path></g></g></svg>