<svg xmlns="http://www.w3.org/2000/svg" fill="none" viewBox="-0.5 -0.5 200 200" id="Clickbait--Streamline-Bangalore.svg"><desc>Clickbait Streamline Illustration: https://streamlinehq.com</desc><g id="Marketing-Clickbait-01"><g id="color 2"><path id="Vector" fill="#b9ff66" d="m86.591865 137.89406499999998 -5.728215 23.23524a26.81923 26.81923 0 0 1 -14.746895 -3.85662l3.81881 -15.25733 16.656299999999998 -4.12129Z" stroke-width="1"></path><path id="Vector_2" fill="#b9ff66" d="m145.332685 100.893 -9.188825 10.416654999999999 -12.023579999999999 -9.65946 7.694335 -11.797714999999998c-1.02087 -0.661675 -2.04174 -1.3611600000000001 -3.10042 -2.07955l-15.01057 22.74371h-28.397299999999998a9.608715 9.608715 0 0 0 -9.320165000000001 7.278425l-0.41591 1.644735c-0.132335 0.056715 -39.32439 15.748859999999999 -39.32439 15.748859999999999a20.1985 20.1985 0 0 0 5.217779999999999 13.93l35.88368 -12.004674999999999c7.392849999999999 0.68456 30.832064999999997 2.570085 38.511475 1.606925 7.6615 -0.9551999999999999 13.061365 -8.325165 14.764805 -14.746895l17.4125 -20.4373 -2.703415 -2.643715Z" stroke-width="1"></path><path id="Vector_3" fill="#b9ff66" d="m68.32864 89.117175 6.844605 6.1063149999999995 -9.01868 10.095270000000001 4.858585 4.33024 9.01868 -10.096265 6.824705 6.1063149999999995 5.06654 -24.33173 -23.594435 7.789854999999999Z" stroke-width="1"></path></g><g id="color 1"><path id="Vector_4" fill="#191a23" d="M65.30384000000001 89.28732000000001a25.357575 25.357575 0 0 0 0.037809999999999996 5.86055l4.7451550000000005 -0.9263450000000001a15.323 15.323 0 0 1 -4.782965000000001 -4.9342049999999995Z" stroke-width="1"></path><path id="Vector_5" fill="#191a23" d="M37.852785 55.728955a2.12731 2.12731 0 1 1 -4.253625 -0.01791 2.12731 2.12731 0 0 1 4.253625 0.01791Z" stroke-width="1"></path><path id="Vector_6" fill="#191a23" d="M144.72772500000002 119.61193499999999a298.550745 298.550745 0 0 1 -5.917265 -5.217779999999999l1.417875 -1.66364 4.49939 6.88142Z" stroke-width="1"></path><path id="Vector_7" fill="#191a23" d="m141.04125 91.234535 -2.968085 0.132335a5.768015 5.768015 0 0 0 1.342255 -1.115395 7.3033 7.3033 0 0 0 1.6258299999999999 0.9830599999999999Z" stroke-width="1"></path><path id="Vector_8" fill="#191a23" d="m77.32841499999999 137.137865 -6.75008 2.2685999999999997 -0.6427700000000001 2.6088899999999997 16.656299999999998 -4.12129c-5.36902 -0.41591 -9.244545 -0.775105 -9.26345 -0.7562Z" stroke-width="1"></path><path id="Vector_9" fill="#191a23" d="M172.78374 138.0065c-1.758165 0.850725 -2.985 0.22686 -2.87356 -1.833785l2.87356 1.833785Z" stroke-width="1"></path><path id="Vector_10" fill="#191a23" d="M178.75772 128.043565a4.243675 4.243675 0 0 1 -2.7223200000000003 -0.888535c1.2855400000000001 -0.6049599999999999 2.4198399999999998 -0.434815 2.7223200000000003 0.888535Z" stroke-width="1"></path><path id="Vector_11" fill="#191a23" d="M146.202315 81.97009c3.535235 -0.2985 2.30641 4.33024 0.6049599999999999 6.03169 -0.32138500000000003 0.41591 -0.18905 0.6965 0.83182 0.775105 2.136265 0.17014500000000002 1.153205 3.232755 -2.249695 2.2118849999999997 -0.32636000000000004 0.0199 -0.64078 0.132335 -0.90744 0.32138500000000003 4.577 2.174075 5.8227400000000005 10.038555 9.471405 2.189 3.62976 -7.823685 -3.799905 -11.96388 -7.75105 -11.529065Z" stroke-width="1"></path><path id="Vector_12" fill="#191a23" d="M171.42257999999998 125.17099999999999a0.8308249999999999 0.8308249999999999 0 1 1 -1.6616499999999998 0 0.8308249999999999 0.8308249999999999 0 0 1 1.6616499999999998 0Z" stroke-width="1"></path><path id="Vector_13" fill="#191a23" d="M158.58509 124.338185a0.8308249999999999 0.8308249999999999 0 1 1 -1.6616499999999998 0 0.8308249999999999 0.8308249999999999 0 0 1 1.6616499999999998 0Z" stroke-width="1"></path><path id="Vector_14" fill="#191a23" d="M156.3543 113.56233499999999a0.8308249999999999 0.8308249999999999 0 1 1 -1.6616499999999998 0 0.8308249999999999 0.8308249999999999 0 0 1 1.6616499999999998 0Z" stroke-width="1"></path><path id="Vector_15" fill="#191a23" d="M143.38547 113.56233499999999a0.8308249999999999 0.8308249999999999 0 1 1 -1.6616499999999998 0 0.8308249999999999 0.8308249999999999 0 0 1 1.6616499999999998 0Z" stroke-width="1"></path><path id="Vector_16" fill="#191a23" d="M141.49497 100.97061a0.8308249999999999 0.8308249999999999 0 1 1 -1.6616499999999998 0 0.8308249999999999 0.8308249999999999 0 0 1 1.6616499999999998 0Z" stroke-width="1"></path><path id="Vector_17" fill="#191a23" d="M129.999735 101.17856499999999a0.8308249999999999 0.8308249999999999 0 1 1 -1.6616499999999998 0 0.8308249999999999 0.8308249999999999 0 0 1 1.6616499999999998 0Z" stroke-width="1"></path><path id="Vector_18" fill="#191a23" d="M123.8775 87.302295a0.8308249999999999 0.8308249999999999 0 1 1 -1.6616499999999998 0 0.8308249999999999 0.8308249999999999 0 0 1 1.6616499999999998 0Z" stroke-width="1"></path><path id="Vector_19" fill="#191a23" d="M111.84994 88.663455a0.8308249999999999 0.8308249999999999 0 1 1 -1.6616499999999998 0 0.8308249999999999 0.8308249999999999 0 0 1 1.6616499999999998 0Z" stroke-width="1"></path><path id="Vector_20" fill="#191a23" d="M111.84994 78.018945a0.8308249999999999 0.8308249999999999 0 1 1 -1.6616499999999998 0 0.8308249999999999 0.8308249999999999 0 0 1 1.6616499999999998 0Z" stroke-width="1"></path><path id="Vector_21" fill="#191a23" d="M101.58949999999999 79.833825a0.8308249999999999 0.8308249999999999 0 1 1 -1.6616499999999998 0 0.8308249999999999 0.8308249999999999 0 0 1 1.6616499999999998 0Z" stroke-width="1"></path><path id="Vector_22" fill="#191a23" d="M100.20446 68.18834500000001a0.8308249999999999 0.8308249999999999 0 1 1 -1.6616499999999998 0 0.8308249999999999 0.8308249999999999 0 0 1 1.6616499999999998 0Z" stroke-width="1"></path><path id="Vector_23" fill="#191a23" d="M89.97586 69.662935a0.83182 0.83182 0 1 1 -1.66364 0 0.83182 0.83182 0 0 1 1.66364 0Z" stroke-width="1"></path></g><g id="outlines"><path id="Vector_24" stroke="#191a23" stroke-linejoin="round" d="M12.159895 120.04675a0.32039 0.32039 0 1 1 -0.6427700000000001 0 0.32039 0.32039 0 1 1 0.6427700000000001 0Z" stroke-width="1"></path><path id="Vector_25" stroke="#191a23" stroke-linecap="round" stroke-linejoin="round" d="M43.845670000000005 132.1559h-5.10435a13.64145 13.64145 0 0 1 -9.631599999999999 -4.06159A13.631499999999999 13.631499999999999 0 0 1 25.184445 118.405V60.51192a13.665329999999999 13.665329999999999 0 0 1 13.84045 -13.49817h82.99693A13.783735 13.783735 0 0 1 135.6185 60.908925v31.00619" stroke-width="1"></path><path id="Vector_26" stroke="#191a23" stroke-linecap="round" stroke-linejoin="round" d="M127.06945999999999 131.39074499999998a13.6713 13.6713 0 0 0 8.39382 -12.572819999999998v-0.512425" stroke-width="1"></path><path id="Vector_27" stroke="#191a23" stroke-linecap="round" stroke-linejoin="round" d="M98.18262 63.603385h37.46971" stroke-width="1"></path><path id="Vector_28" stroke="#191a23" stroke-linecap="round" stroke-linejoin="round" d="M25.279965 63.36757h54.128" stroke-width="1"></path><path id="Vector_29" stroke="#191a23" stroke-linecap="round" stroke-linejoin="round" d="M37.852785 55.728955a2.12731 2.12731 0 1 1 -4.253625 -0.01791 2.12731 2.12731 0 0 1 4.253625 0.01791v0Z" stroke-width="1"></path><path id="Vector_30" stroke="#191a23" stroke-linecap="round" stroke-linejoin="round" d="M44.26158 55.747859999999996a2.1283049999999997 2.1283049999999997 0 1 1 -4.255615 -0.01791 2.1283049999999997 2.1283049999999997 0 0 1 4.255615 0.01791v0Z" stroke-width="1"></path><path id="Vector_31" stroke="#191a23" stroke-linecap="round" stroke-linejoin="round" d="M50.690275 55.78567a2.126315 2.126315 0 1 1 -4.253625 -0.01791 2.126315 2.126315 0 0 1 4.253625 0.01791v0Z" stroke-width="1"></path><path id="Vector_32" stroke="#191a23" stroke-linecap="round" stroke-linejoin="round" d="m68.32864 89.117175 6.844605 6.1063149999999995 -9.01868 10.095270000000001 4.858585 4.33024 9.01868 -10.096265 6.824705 6.1063149999999995 5.06654 -24.33173 -23.594435 7.789854999999999Z" stroke-width="1"></path><path id="Vector_33" stroke="#191a23" stroke-linecap="round" stroke-linejoin="round" d="M65.30384000000001 89.28732000000001a25.357575 25.357575 0 0 0 0.037809999999999996 5.86055l4.746149999999999 -0.9263450000000001a15.130965000000002 15.130965000000002 0 0 1 -4.7839599999999995 -4.9342049999999995Z" stroke-width="1"></path><path id="Vector_34" stroke="#191a23" stroke-linecap="round" stroke-linejoin="round" d="M84.00188 56.01253V18.559735" stroke-width="1"></path><path id="Vector_35" stroke="#191a23" stroke-linecap="round" stroke-linejoin="round" d="M83.992925 73.519555v-5.217779999999999" stroke-width="1"></path><path id="Vector_36" stroke="#191a23" stroke-linecap="round" stroke-linejoin="round" d="M84.00188 83.93621v-6.257555" stroke-width="1"></path><path id="Vector_37" stroke="#191a23" stroke-linecap="round" stroke-linejoin="round" d="M65.34165 95.14787c0.71839 5.501355 3.4029 10.6465 8.79182 10.6465 3.913335 0 6.446605 -1.682545 7.9779100000000005 -4.367055000000001" stroke-width="1"></path><path id="Vector_38" stroke="#191a23" stroke-linecap="round" stroke-linejoin="round" d="M86.04362 75.599105a2.07955 2.07955 0 1 1 -4.160095 0 2.07955 2.07955 0 0 1 4.160095 0v0Z" stroke-width="1"></path><path id="Vector_39" stroke="#191a23" stroke-linecap="round" stroke-linejoin="round" d="M84.058595 65.07300000000001c1.92831 -0.059699999999999996 2.098455 -2.4009349999999996 0.22686 -2.4775500000000004 -1.3989699999999998 -0.05572 -2.3820300000000003 -0.037809999999999996 -3.4825 -0.037809999999999996 -1.8526900000000002 0 -1.9472150000000001 2.47954 -0.41591 2.6098850000000002 0.91142 0.07263499999999999 1.8994550000000001 -0.044774999999999995 3.67155 -0.094525Z" stroke-width="1"></path><path id="Vector_40" stroke="#191a23" stroke-linecap="round" stroke-linejoin="round" d="M82.999915 57.165735000000005c-0.6805800000000001 -0.037809999999999996 -1.17211 -0.057710000000000004 -1.81488 -0.0995 -1.758165 -0.0995 -1.945225 2.3700900000000003 -0.49152999999999997 2.5710800000000003a16.22845 16.22845 0 0 0 2.2238249999999997 0.094525" stroke-width="1"></path><path id="Vector_41" stroke="#191a23" stroke-linecap="round" stroke-linejoin="round" d="M84.37599999999999 67.73462500000001c1.871595 -0.118405 1.99 -2.379045 0.17014500000000002 -2.4009349999999996 -1.342255 -0.016915 -2.30641 0.029849999999999998 -3.36509 0.056715 -1.7959749999999999 0.04378 -1.8327900000000001 2.41387 -0.359195 2.514365 1.187035 0.00995 2.37407 -0.046765 3.55414 -0.17014500000000002Z" stroke-width="1"></path><path id="Vector_42" stroke="#191a23" stroke-linecap="round" stroke-linejoin="round" d="M82.918325 59.793530000000004c-0.7163999999999999 -0.01791 -1.3382749999999999 0.018904999999999998 -2.03577 0 -1.871595 -0.037809999999999996 -2.0228349999999997 2.476555 -0.49152999999999997 2.627795 0.9452499999999999 0.094525 1.92831 0.020895 3.74319 0a1.25171 1.25171 0 0 0 0.83182 -2.249695" stroke-width="1"></path><path id="Vector_43" stroke="#191a23" stroke-linecap="round" stroke-linejoin="round" d="M92.38973 59.693035a25.26902 25.26902 0 0 0 -3.13226 -3.077535c-1.115395 -0.888535 -1.531305 -0.75222 -3.85662 -0.6965 -2.7223200000000003 0.06169 -2.4875 0.18905 -2.476555 4.8396799999999995 0 1.1342999999999999 1.9661199999999999 1.3611600000000001 2.49546 -2.23079 -0.434815 2.76013 0.737295 4.70834 2.587 5.407825" stroke-width="1"></path><path id="Vector_44" stroke="#191a23" stroke-linecap="round" stroke-linejoin="round" d="M85.02275 68.456c-0.868635 -0.27661 -1.407925 -0.0995 -4.15711 -0.5452600000000001" stroke-width="1"></path><path id="Vector_45" stroke="#191a23" stroke-linecap="round" stroke-linejoin="round" d="m140.228335 112.730515 4.49939 6.88142" stroke-width="1"></path><path id="Vector_46" stroke="#191a23" stroke-linecap="round" stroke-linejoin="round" d="M170.59374499999998 138.154755c-14.39765 -9.262455 -20.12885 -13.240465 -31.783285000000003 -23.7606" stroke-width="1"></path><path id="Vector_47" stroke="#191a23" stroke-linecap="round" stroke-linejoin="round" d="m131.79570999999999 89.911185 -7.694335 11.79672 12.023579999999999 9.680354999999999 9.188825 -10.41765" stroke-width="1"></path><path id="Vector_48" stroke="#191a23" stroke-linecap="round" stroke-linejoin="round" d="M144.48196 91.29125c-4.134225 4.34218 -4.167059999999999 5.04465 -1.111415 7.897315 7.594835 7.091365 8.850525 8.378895 12.47332 11.30917 3.969055 3.2128550000000002 9.875375 7.600805 22.310885 16.560779999999998" stroke-width="1"></path><path id="Vector_49" stroke="#191a23" stroke-linecap="round" stroke-linejoin="round" d="m138.053265 91.36686999999999 2.985 -0.132335a10.3082 10.3082 0 0 1 -1.6258299999999999 -0.9830599999999999" stroke-width="1"></path><path id="Vector_50" stroke="#191a23" stroke-linecap="round" stroke-linejoin="round" d="M146.202315 81.951185a9.479365 9.479365 0 0 0 -3.043705 0.964155c-6.997835 3.32131 -5.425735 5.99388 -3.74319 7.3361350000000005l-1.362155 1.115395a3.65762 3.65762 0 0 1 -3.913335 0.037809999999999996c-20.497 -13.06236 -40.48456 -31.978305000000002 -40.8945 -32.405159999999995a31.975320000000004 31.975320000000004 0 0 0 -8.60078 10.11517 297.05725 297.05725 0 0 0 36.29959 30.45695" stroke-width="1"></path><path id="Vector_51" stroke="#191a23" stroke-linecap="round" stroke-linejoin="round" d="M75.57025 119.47959999999999a19.99751 19.99751 0 0 1 9.887315 -1.0945l23.859105 3.3083750000000003" stroke-width="1"></path><path id="Vector_52" stroke="#191a23" stroke-linecap="round" stroke-linejoin="round" d="m148.0361 103.54169 -17.4125 20.4373a26.490879999999997 26.490879999999997 0 0 1 -3.55414 7.411754999999999c-2.307405 3.326285 -5.899355 6.671475 -11.210664999999999 7.33514 -7.6615 0.958185 -30.97236 -0.908435 -38.5065 -1.606925l-35.888655 12.023579999999999a20.1985 20.1985 0 0 1 -5.217779999999999 -13.93L75.57025 119.47959999999999l0.398 -1.644735a9.600755 9.600755 0 0 1 9.320165000000001 -7.26947h28.396305l15.011565 -22.73376" stroke-width="1"></path><path id="Vector_53" stroke="#191a23" stroke-linecap="round" stroke-linejoin="round" d="m70.58928 139.38358 -4.4775 17.889105a26.81923 26.81923 0 0 0 14.746895 3.85662l5.728215 -23.23524" stroke-width="1"></path><path id="Vector_54" stroke="#191a23" stroke-linecap="round" stroke-linejoin="round" d="M182.085 139.086075a18.308995 18.308995 0 0 0 4.012835 3.742195c3.0058949999999998 2.060645 2.23477 2.8068950000000004 -0.6965 1.606925 -2.044725 -0.8358 -2.46163 -1.2049450000000002 -6.995845 -3.2516599999999998a88.70524499999999 88.70524499999999 0 0 1 -8.488345 -5.009825" stroke-width="1"></path><path id="Vector_55" stroke="#191a23" stroke-linecap="round" stroke-linejoin="round" d="M182.955625 140.124855s2.25069 0.789035 5.0476350000000005 1.6258299999999999c3.1402200000000002 0.9392799999999999 4.026764999999999 -0.07561999999999999 0.6049599999999999 -1.77707a15.967759999999998 15.967759999999998 0 0 1 -4.801869999999999 -3.232755" stroke-width="1"></path><path id="Vector_56" stroke="#191a23" stroke-linecap="round" stroke-linejoin="round" d="M184.543645 134.43445000000003s6.729185 2.2695950000000003 7.164 2.4009349999999996c3.248675 0.9760949999999999 2.968085 2.23278 -0.15123999999999999 1.9661199999999999 -2.854655 -0.243775 -6.35208 -0.86963 -6.35208 -0.86963" stroke-width="1"></path><path id="Vector_57" stroke="#191a23" stroke-linecap="round" stroke-linejoin="round" d="M178.75772 128.043565a1.56414 1.56414 0 0 0 -0.60297 -0.98505c-1.5133949999999998 -1.043755 -4.215815 1.4188699999999999 -5.4725 2.991965 -1.477575 1.853685 -4.0406949999999995 6.808785 -2.0895 8.104275a2.2288 2.2288 0 0 0 2.189 -0.14726" stroke-width="1"></path><path id="Vector_58" stroke="#191a23" stroke-linecap="round" stroke-linejoin="round" d="M176.03539999999998 127.15503c1.393 0.8477399999999999 3.42877 1.3790699999999998 4.4775 0.22686 1.3989699999999998 -1.531305 3.21584 -3.971045 3.91433 -3.28947 1.079575 1.0566900000000001 -1.871595 4.404864999999999 -1.871595 6.201835 0 0.6049599999999999 1.60792 1.145245 2.2885 1.266635 1.0945 0.199 4.820774999999999 0.8855500000000001 5.198874999999999 0.9452499999999999 3.383 0.5283450000000001 2.968085 1.881545 0.018904999999999998 1.8526900000000002a15.93393 15.93393 0 0 0 -4.329245 0.434815" stroke-width="1"></path><path id="Vector_59" stroke="#191a23" stroke-linecap="round" stroke-linejoin="round" d="M184.88393499999998 132.88424a12.0793 12.0793 0 0 1 -3.44071 6.91923" stroke-width="1"></path><path id="Vector_60" stroke="#191a23" stroke-linecap="round" stroke-linejoin="round" d="M182.67205 133.14891c-1.87259 2.3820300000000003 -4.046665 3.421805 -6.542125 2.34422" stroke-width="1"></path><path id="Vector_61" stroke="#191a23" stroke-linecap="round" stroke-linejoin="round" d="M36.340385000000005 137.95078c-4.0794999999999995 1.592 -10.6067 3.9889550000000003 -14.27427 5.02873 -4.0794999999999995 1.153205 -7.618715 2.34422 -7.769955 3.0845000000000002 -0.49152999999999997 2.6467 10.149 1.4925 14.69018 3.383a9.154995000000001 9.154995000000001 0 0 0 3.383 0.755205c2.189 0 4.12129 -1.92831 7.580905 -3.043705a20.042285 20.042285 0 0 1 -3.6098600000000003 -9.20773v0Z" stroke-width="1"></path><path id="Vector_62" stroke="#191a23" stroke-linecap="round" stroke-linejoin="round" d="M68.423165 158.520415c-1.2855400000000001 4.19691 -3.270565 10.265415 -4.631725 13.592694999999999 -1.606925 3.95214 -2.854655 7.46847 -2.363125 8.03562 1.77707 2.0228349999999997 7.429665 -7.07047 11.7211 -9.471405a9.128129999999999 9.128129999999999 0 0 0 2.6865 -2.189c1.3044449999999999 -1.644735 1.05868 -4.215815 2.136265 -7.429665a26.748585 26.748585 0 0 1 -9.549014999999999 -2.5382450000000003v0Z" stroke-width="1"></path><path id="Vector_63" stroke="#191a23" stroke-linecap="round" stroke-linejoin="round" d="M146.898815 87.90626c1.652695 -1.77309 2.775055 -6.251585 -0.6965 -5.955075 3.951145 -0.41591 11.39673 3.72329 7.75105 11.55195 -3.65165 7.8445800000000006 -4.896395 -0.037809999999999996 -9.471405 -2.2118849999999997a1.0616649999999999 1.0616649999999999 0 0 1 0.90744 -0.2985c3.4029 1.02087 4.3869549999999995 -2.04771 2.249695 -2.2118849999999997 -0.832815 -0.06865500000000001 -1.30743 -0.26666 -0.7402799999999999 -0.874605Z" stroke-width="1"></path><path id="Vector_64" stroke="#191a23" stroke-linecap="round" stroke-linejoin="round" d="M18.56869 121.502435a1.011915 1.011915 0 0 1 -0.86963 1.5124H5.97796a1.0149 1.0149 0 0 1 -0.870625 -0.50546 1.0079349999999998 1.0079349999999998 0 0 1 0 -1.00694l5.861545 -10.17089a1.00495 1.00495 0 0 1 0.86963 -0.496505 1.00495 1.00495 0 0 1 0.86963 0.496505l5.86055 10.17089Z" stroke-width="1"></path><path id="Vector_65" stroke="#191a23" stroke-linecap="round" stroke-linejoin="round" d="M11.83851 114.79115999999999v3.535235" stroke-width="1"></path><path id="Vector_66" stroke="#191a23" stroke-linecap="round" stroke-linejoin="round" d="M111.02807 156.23291v9.79279" stroke-width="1"></path><path id="Vector_67" stroke="#191a23" stroke-linecap="round" stroke-linejoin="round" d="M115.934415 161.129305h-9.81269" stroke-width="1"></path><path id="Vector_68" stroke="#191a23" stroke-linecap="round" stroke-linejoin="round" d="M151.1405 62.648185a1.8507 1.8507 0 0 0 -2.6088899999999997 0l-0.49152999999999997 0.47262499999999996 -0.45372 -0.47262499999999996a1.84473 1.84473 0 0 0 -2.6088899999999997 2.6088899999999997l3.0845000000000002 3.0845000000000002 3.0845000000000002 -3.0845000000000002a1.845725 1.845725 0 0 0 -0.0059700000000000005 -2.6088899999999997v0Z" stroke-width="1"></path><path id="Vector_69" stroke="#191a23" stroke-linecap="round" stroke-linejoin="round" d="M64.54764 27.67294a1.1223599999999998 1.1223599999999998 0 0 1 1.115395 1.1342999999999999V36.217999999999996a1.1223599999999998 1.1223599999999998 0 0 1 -1.1342999999999999 1.115395H53.46931a1.121365 1.121365 0 0 1 -1.115395 -1.1342999999999999v-7.410760000000001a1.121365 1.121365 0 0 1 1.1342999999999999 -1.115395h11.059425000000001Z" stroke-width="1"></path><path id="Vector_70" stroke="#191a23" stroke-linecap="round" stroke-linejoin="round" d="m52.732015 27.93761 6.27646 4.556105 6.27646 -4.5371999999999995" stroke-width="1"></path><path id="Vector_71" stroke="#191a23" stroke-linecap="round" stroke-linejoin="round" d="M134.158835 91.40468c1.001965 4.367055000000001 3.6805049999999997 6.5660050000000005 8.03562 6.597845" stroke-width="1"></path><path id="Vector_72" stroke="#191a23" stroke-linecap="round" stroke-linejoin="round" d="M120.282565 126.00182500000001a11.313149999999998 11.313149999999998 0 0 0 0.9830599999999999 7.92219" stroke-width="1"></path><path id="Vector_73" stroke="#191a23" stroke-linecap="round" stroke-linejoin="round" d="m123.572035 104.78942 -5.217779999999999 7.260515 2.53327 5.55807 6.16303 1.43678 6.16303 -6.597845 -9.641549999999999 -7.65752Z" stroke-width="1"></path><path id="Vector_74" stroke="#191a23" stroke-linecap="round" stroke-linejoin="round" d="m74.85185999999999 160.637775 3.724285 -14.406604999999999" stroke-width="1"></path><path id="Vector_75" stroke="#191a23" stroke-linecap="round" stroke-linejoin="round" d="m38.43884 144.68096 15.67324 -5.841645000000001" stroke-width="1"></path><path id="Vector_76" stroke="#191a23" stroke-linecap="round" stroke-linejoin="round" d="m69.93556500000001 141.99645 16.656299999999998 -4.102385" stroke-width="1"></path></g></g></svg>