<svg xmlns="http://www.w3.org/2000/svg" fill="none" viewBox="-0.5 -0.5 200 200" id="Searching--Streamline-Bangalore.svg"><desc>Searching Streamline Illustration: https://streamlinehq.com</desc><g id="Interface-Searching-01"><g id="color 2"><path id="Vector" fill="#b9ff66" d="M115.990135 94.35485499999999c-12.305165 -3.969055 -15.25534 -16.38964 -15.25534 -16.38964a64.69489999999999 64.69489999999999 0 0 0 1.2099199999999999 -1.791l0.398 -6.4078c-6.4277 -1.77707 -2.779035 -9.603739999999998 -2.779035 -9.603739999999998a70.5256 70.5256 0 0 1 -7.33514 -13.78075 20.833309999999997 20.833309999999997 0 0 0 -9.925125 3.666575c2.456655 8.201785000000001 6.605805 18.327900000000003 15.4225 31.819105 -3.7939350000000003 4.7362 -9.986815 12.22457 -12.969825 16.119l-23.7805 -10.6465 -5.4207600000000005 11.21166 26.69187 13.66732a8.746049999999999 8.746049999999999 0 0 0 10.79376 -2.7979399999999996l5.841645000000001 -8.053529999999999c2.34422 3.5919499999999998 4.140194999999999 6.54113 10.6465 9.26345 6.921220000000001 -3.11435 9.91816 -6.886395 12.514115 -12.0793a21.261159999999997 21.261159999999997 0 0 1 -6.0525850000000005 -4.19691Z" stroke-width="1"></path><path id="Vector_2" fill="#b9ff66" d="m116.31152 142.805385 -0.964155 -5.274495 22.53277 -4.158105 0.964155 5.273499999999999 -22.53277 4.1591Z" stroke-width="1"></path><path id="Vector_3" fill="#b9ff66" d="m136.02844 138.36271 -3.535235 -4.006865 19.036340000000003 -16.786645 3.53424 4.006865 -19.035345 16.786645Z" stroke-width="1"></path><path id="Vector_4" fill="#b9ff66" d="M49.486325 58.19158a3.015845 3.015845 0 1 0 -0.17114 6.029699999999999 3.015845 3.015845 0 0 0 0.17114 -6.029699999999999Z" stroke-width="1"></path><path id="Vector_5" fill="#b9ff66" d="M51.943974999999995 44.316305a8.955 8.955 0 1 0 -16.27621 -3.2516599999999998c0.022885 0.15323 0.05373 0.30447 0.094525 0.45372l4.347155 -0.81192a4.54914 4.54914 0 1 1 8.828634999999998 -2.136265c0.398 2.170095 -0.7810750000000001 3.835725 -2.249695 5.6715a6.382925 6.382925 0 0 0 -1.4925 4.102385c0.0059700000000000005 2.2407399999999997 0.27263000000000004 4.474515 0.796 6.653565l4.4775 -0.850725a23.086985 23.086985 0 0 1 -0.623865 -6.124225c0.28357499999999997 -1.437775 1.32335 -2.534265 2.098455 -3.706375Z" stroke-width="1"></path></g><g id="color 1"><path id="Subtract" fill="#191a23" fill-rule="evenodd" d="M40.455705 7.46449a40.289539999999995 40.289539999999995 0 0 1 21.30295 3.196935c12.851420000000001 5.72523 20.74575 16.891119999999997 23.100914999999997 29.088825 0 0 0.057710000000000004 1.64374 0.182085 2.9103749999999997 -0.7850550000000001 0.47362 -2.33029 -0.842765 -3.6805049999999997 -1.99398 -1.21788 -1.037785 -2.277555 -1.94025 -2.476555 -1.2706149999999998 -0.19104000000000002 0.643765 0.26865 1.3333000000000002 0.99898 2.4278 0.980075 1.46862 2.44571 3.6655800000000003 3.47852 7.459515l-0.995 0.808935c0.301485 1.20594 1.0149 3.23375 1.853685 5.6217500000000005l0.34426999999999996 0.982065c-1.66961 7.219720000000001 -5.366035 14.09517 -11.206685 19.717915a40.290535 40.290535 0 0 1 -17.855275 10.0296c-0.14925 0.0398 -1.16614 -0.62088 -2.375065 -1.405935 -1.652695 -1.0746 -3.6645849999999998 -2.381035 -4.311335000000001 -2.4526749999999997 -1.025845 -0.114425 1.3999650000000001 3.0148499999999996 2.4476999999999998 4.368049999999999 0.09552000000000001 0.12139 0.17909999999999998 0.22885 0.24676 0.3184A40.290535 40.290535 0 1 1 40.4567 7.46449Zm1.06067 8.623664999999999a31.517619999999997 31.517619999999997 0 0 1 16.665255 2.500435c20.588540000000002 9.17191 24.909825 36.19412 9.074399999999999 51.436525a31.517619999999997 31.517619999999997 0 1 1 -25.739655 -53.93696Z" clip-rule="evenodd" stroke-width="1"></path><path id="Vector_6" fill="#191a23" d="m155.1205 128.89229999999998 2.30641 -3.4974250000000002 -3.55414 -2.7979399999999996 -1.8705999999999998 1.682545 3.11833 4.61282Z" stroke-width="1"></path><path id="Vector_7" fill="#191a23" d="m167.33313 133.131 -2.985 6.8655a10.569885 10.569885 0 0 1 -4.423769999999999 4.975l14.89714 11.614635 8.771920000000001 -10.812665 -16.260289999999998 -12.64247Z" stroke-width="1"></path><path id="Vector_8" fill="#191a23" d="M151.62407 80.80096499999999a9.677370000000002 9.677370000000002 0 0 0 10.86938 -7.90229 24.06905 24.06905 0 0 0 -18.639335 1.644735 9.74105 9.74105 0 0 0 7.769955 6.257555Z" stroke-width="1"></path><path id="Vector_9" fill="#191a23" d="M94.66628999999999 77.019965 80.90444500000001 66.32073A32.111635 32.111635 0 0 1 72.51162000000001 77.21199999999999l17.711000000000002 13.9698 7.52419 -9.31917 -3.08052 -4.842665Z" stroke-width="1"></path><path id="Vector_10" fill="#191a23" d="m105.705815 92.06735 -6.802815 9.37688a16.74784 16.74784 0 0 0 1.66364 2.494465l5.139175 -11.871345Z" stroke-width="1"></path><path id="Vector_11" fill="#191a23" d="m102.22829 71.72656500000001 2.70242 -1.90841a14.75585 14.75585 0 0 1 -2.570085 -0.056715l-0.132335 1.965125Z" stroke-width="1"></path><path id="Vector_12" fill="#191a23" d="M120.204955 81.57607a6.518245 6.518245 0 0 0 -4.536205 -7.07047 3.646675 3.646675 0 0 0 0.17014500000000002 -1.682545c-1.24773 -9.111215 -3.13823 -14.726 -6.257555 -17.938855 -2.11736 -2.21288 -6.445609999999999 -1.8526900000000002 -9.016689999999999 1.3790699999999998 -2.5531699999999997 3.236735 -1.911395 7.506279999999999 -1.92831 7.8605a12.303175 12.303175 0 0 1 4.140194999999999 -8.24258 5.62971 5.62971 0 0 1 2.305415 -1.1342999999999999c-0.132335 2.874555 2.15517 7.429665 4.9153 6.295365 1.845725 -0.753215 2.0676099999999997 2.587 -1.569115 2.587 -0.9830599999999999 7.88239 -0.6805800000000001 16.915 2.94918 24.273025l0.586055 1.1144a22.7656 22.7656 0 0 0 7.429665 8.053529999999999 7.762989999999999 7.762989999999999 0 0 0 8.15701 -7.34509 7.762989999999999 7.762989999999999 0 0 0 -7.34509 -8.156015v0.006965Z" stroke-width="1"></path></g><g id="outlines"><path id="Vector_13" stroke="#191a23" stroke-linejoin="round" d="m155.1205 128.89229999999998 2.30641 -3.4974250000000002 -3.55414 -2.7979399999999996 -1.8705999999999998 1.682545 3.11833 4.61282Z" stroke-width="1"></path><path id="Vector_14" stroke="#191a23" d="m167.33313 133.131 -2.985 6.8655a10.569885 10.569885 0 0 1 -4.423769999999999 4.975l14.89714 11.614635 8.771920000000001 -10.812665 -16.260289999999998 -12.64247Z" stroke-width="1"></path><path id="Vector_15" stroke="#191a23" d="M94.66628999999999 77.019965 80.90444500000001 66.32073A32.111635 32.111635 0 0 1 72.51162000000001 77.21199999999999l17.711000000000002 13.9698 7.52419 -9.31917 -3.08052 -4.842665Z" stroke-width="1"></path><path id="Vector_16" stroke="#191a23" stroke-linecap="round" stroke-linejoin="round" d="M99.27911 59.760695A65.27199999999999 65.27199999999999 0 0 1 92.24645 46.37695a20.76565 20.76565 0 0 0 -9.92413 3.67155c2.45765 8.203774999999998 6.59685 18.31795 15.4225 31.815125000000002" stroke-width="1"></path><path id="Vector_17" stroke="#191a23" stroke-linecap="round" stroke-linejoin="round" d="M85.34711999999999 44.33521a35.72846 35.72846 0 0 1 -0.6049599999999999 -8.37392 20.1786 20.1786 0 0 1 0.2985 -4.329245c0.6965 -3.917315 1.650705 -3.535235 1.9661199999999999 0.24576499999999998 0.7711250000000001 9.26146 2.985 12.325065 3.7989100000000002 14.707095" stroke-width="1"></path><path id="Vector_18" stroke="#191a23" stroke-linecap="round" stroke-linejoin="round" d="M84.87349999999999 32.82306a15.56578 15.56578 0 0 0 -2.438745 -3.6815c-0.2985 -0.28656 -0.995 -0.315415 -0.132335 2.07955 0.18506999999999998 0.51143 0.924355 2.7223200000000003 1.153205 3.51633a39.41991 39.41991 0 0 1 1.2855400000000001 4.838685000000001" stroke-width="1"></path><path id="Vector_19" stroke="#191a23" stroke-linecap="round" stroke-linejoin="round" d="M85.00683 42.123325c-0.132335 1.871595 -3.0228099999999998 -1.02286 -4.385960000000001 -2.11736 -1.2268350000000001 -0.98505 -2.985 -1.610905 -0.510435 1.9661199999999999a26.64212 26.64212 0 0 1 3.28947 7.3918550000000005" stroke-width="1"></path><path id="Vector_20" stroke="#191a23" stroke-linecap="round" stroke-linejoin="round" d="m156.462755 130.85842 -4.460585 -6.57894" stroke-width="1"></path><path id="Vector_21" stroke="#191a23" stroke-linecap="round" stroke-linejoin="round" d="M102.38550000000001 69.71268500000001s-0.20895 2.61884 -0.41690499999999997 6.456555a84.649625 84.649625 0 0 0 -1.228825 1.791" stroke-width="1"></path><path id="Vector_22" stroke="#191a23" stroke-linecap="round" stroke-linejoin="round" d="m104.93170500000001 69.87487 -2.695455 1.82881" stroke-width="1"></path><path id="Vector_23" stroke="#191a23" stroke-linecap="round" stroke-linejoin="round" d="m133.438455 133.50511999999998 -15.104099999999999 -16.65431" stroke-width="1"></path><path id="Vector_24" stroke="#191a23" stroke-linecap="round" stroke-linejoin="round" d="m105.68691 92.048445 -5.12226 11.871345" stroke-width="1"></path><path id="Vector_25" stroke="#191a23" stroke-linecap="round" stroke-linejoin="round" d="M144.62922 123.63671a56.424459999999996 56.424459999999996 0 0 0 -24.49889 -21.530805" stroke-width="1"></path><path id="Vector_26" stroke="#191a23" stroke-linecap="round" stroke-linejoin="round" d="m116.919465 137.24134500000002 -7.338125 -26.629185000000003" stroke-width="1"></path><path id="Vector_27" stroke="#191a23" stroke-linecap="round" stroke-linejoin="round" d="m138.39057000000003 136.28315999999998 0.45372 2.363125 -22.53277 4.1591 -0.964155 -5.274495 17.14584 -3.15614" stroke-width="1"></path><path id="Vector_28" stroke="#191a23" stroke-linecap="round" stroke-linejoin="round" d="M119.37413000000001 97.09608a7.77493 7.77493 0 0 0 0.8308249999999999 -15.522 6.518245 6.518245 0 0 0 -4.536205 -7.07047c0.6119249999999999 -1.774085 -1.280565 -12.92306 -4.68844 -17.900049999999997 -3.19793 -4.67053 -7.87244 -3.5770250000000003 -10.434565 -0.34228 -2.562125 3.2347449999999998 -1.911395 7.505285 -1.92831 7.8605" stroke-width="1"></path><path id="Vector_29" stroke="#191a23" stroke-linecap="round" stroke-linejoin="round" d="m155.1205 128.89229999999998 12.874305 -19.584585c2.456655 -3.951145 2.36213 -5.198874999999999 3.45862 -7.9202 5.1421600000000005 -2.7979399999999996 16.80555 -6.08741 22.571575 -6.84361 -4.23472 6.616750000000001 -14.158850000000001 10.52909 -18.072185 18.73386l-11.62558 26.69187a10.669385 10.669385 0 0 1 -7.70528 6.2127799999999995 10.677344999999999 10.677344999999999 0 0 1 -9.497275 -2.790975l-8.01572 -7.7311499999999995" stroke-width="1"></path><path id="Vector_30" stroke="#191a23" stroke-linecap="round" stroke-linejoin="round" d="m136.02844 138.36271 -3.535235 -4.006865 19.036340000000003 -16.786645 3.53424 4.006865 -19.035345 16.786645Z" stroke-width="1"></path><path id="Vector_31" stroke="#191a23" stroke-linecap="round" stroke-linejoin="round" d="M51.2425 88.83459500000001c2.060645 -0.207955 -1.36514 -3.475535 -1.92831 -4.4775 -0.761175 -1.358175 -1.56812 -2.93127 1.985025 -0.434815a84.42077499999999 84.42077499999999 0 0 0 8.94107 4.914305" stroke-width="1"></path><path id="Vector_32" stroke="#191a23" stroke-linecap="round" stroke-linejoin="round" d="m119.94127999999999 142.124805 1.56812 5.63369a14.454365 14.454365 0 0 0 6.673465 8.581875c3.2516599999999998 1.8904999999999998 32.949425000000005 16.143875 32.949425000000005 16.143875 7.921195 4.4775 11.152955 14.631475 17.467225 19.319915 -0.359195 -5.803835 -2.854655 -17.67518 -5.2934 -22.9845 -2.601925 -1.26365 -3.86856 -1.268625 -7.485385 -3.855625l-28.375410000000002 -19.94378 -1.624835 -5.8227400000000005" stroke-width="1"></path><path id="Vector_33" stroke="#191a23" stroke-linecap="round" stroke-linejoin="round" d="M105.68691 92.048445c-1.0765900000000002 1.3989699999999998 -7.533144999999999 10.333075 -12.646450000000002 17.391605a8.756 8.756 0 0 1 -10.79376 2.79595L55.55483 98.57067 60.960665000000006 87.36099999999999l23.7805 10.623615" stroke-width="1"></path><path id="Vector_34" stroke="#191a23" stroke-linecap="round" stroke-linejoin="round" d="M115.990135 94.35485499999999a22.236259999999998 22.236259999999998 0 0 0 6.058555 4.2197949999999995c-2.5074 5.771 -6.79784 9.507225 -12.50516 12.07532 -6.524215000000001 -2.731275 -8.31024 -5.652595 -10.665405 -9.260465" stroke-width="1"></path><path id="Vector_35" stroke="#191a23" stroke-linecap="round" stroke-linejoin="round" d="M150.433055 118.51445c-11.71115 -15.69712 -24.12079 -18.181635 -28.384365000000003 -19.939799999999998" stroke-width="1"></path><path id="Vector_36" stroke="#191a23" stroke-linecap="round" stroke-linejoin="round" d="M100.734795 77.965215s2.94918 12.41959 15.25534 16.38964a23.551650000000002 23.551650000000002 0 0 1 -4.631725 -6.446605c-3.638715 -7.348075 -3.9322399999999997 -16.38964 -2.94918 -24.272029999999997h0.49152999999999997c2.985 -0.17014500000000002 2.92928 -3.3481750000000003 1.077585 -2.587 -2.761125 1.131315 -5.04664 -3.421805 -4.914305 -6.29437a5.686425 5.686425 0 0 0 -2.30641 1.133305 12.06338 12.06338 0 0 0 -4.088455 9.901245000000001c0.35223 2.402925 2.006915 4.323275 6.26253 4.088455" stroke-width="1"></path><path id="Vector_37" stroke="#191a23" stroke-linecap="round" stroke-linejoin="round" d="M100.734795 77.965215c-1.77707 2.6865 -15.63344 19.11196 -17.486130000000003 22.117855" stroke-width="1"></path><path id="Vector_38" stroke="#191a23" stroke-linecap="round" stroke-linejoin="round" d="M44.192925 90.989765c-0.90744 0.11343 -2.77804 0.492525 -3.32728 0.6049599999999999 -2.494465 0.51342 -2.17308 1.17211 -1.7760749999999998 1.2099199999999999 1.60593 0.152235 4.21482 0.13333 5.708315 0.32138500000000003 2.4009349999999996 0.303475 7.03266 0.737295 8.847539999999999 1.81488" stroke-width="1"></path><path id="Vector_39" stroke="#191a23" stroke-linecap="round" stroke-linejoin="round" d="M44.66555 93.107125c-0.398 0.15123999999999999 -0.7562 0.28357499999999997 -0.9263450000000001 0.359195 -2.3820300000000003 0.90744 -1.94622 1.517375 -1.55021 1.4925 1.60792 -0.094525 4.179 -0.566155 5.690405 -0.623865a28.627145000000002 28.627145000000002 0 0 1 5.425735 0.41591" stroke-width="1"></path><path id="Vector_40" stroke="#191a23" stroke-linecap="round" stroke-linejoin="round" d="M113.721535 38.797039999999996a2.45765 2.45765 0 0 1 -1.6566750000000001 2.178055 2.462625 2.462625 0 1 1 -0.6497350000000001 -4.786945 2.472575 2.472575 0 0 1 2.30641 2.6088899999999997v0Z" stroke-width="1"></path><path id="Vector_41" stroke="#191a23" stroke-linecap="round" stroke-linejoin="round" d="M179.07214000000002 98.26819a24.06507 24.06507 0 0 0 -15.67324 -25.070020000000003 24.06308 24.06308 0 0 0 -31.359415 29.34255" stroke-width="1"></path><path id="Vector_42" stroke="#191a23" stroke-linecap="round" stroke-linejoin="round" d="M153.49466999999999 119.798c2.705405 0.192035 5.42275 -0.08358 8.034625 -0.8129149999999999" stroke-width="1"></path><path id="Vector_43" stroke="#191a23" stroke-linecap="round" stroke-linejoin="round" d="M154.307585 61.613385a9.679359999999999 9.679359999999999 0 0 0 -10.9848 10.149995 9.678365 9.678365 0 0 0 16.88515 5.87249 9.67339 9.67339 0 0 0 2.35815 -5.0963899999999995 9.69528 9.69528 0 0 0 -8.258500000000002 -10.926095v0Z" stroke-width="1"></path><path id="Vector_44" stroke="#191a23" stroke-linecap="round" stroke-linejoin="round" d="M82.83375 32.766344999999994a40.31143 40.31143 0 1 0 -54.197649999999996 51.418615 41.04972 41.04972 0 0 0 22.85515 3.10042" stroke-width="1"></path><path id="Vector_45" stroke="#191a23" stroke-linecap="round" stroke-linejoin="round" d="M84.53519999999999 56.622465a40.177105 40.177105 0 0 1 -18.67814 25.520755 39.558215 39.558215 0 0 1 -10.35795 4.27253" stroke-width="1"></path><path id="Vector_46" stroke="#191a23" stroke-linecap="round" stroke-linejoin="round" d="M58.18163 18.58859a31.517619999999997 31.517619999999997 0 1 0 9.074399999999999 51.436525c15.835424999999999 -15.242405000000002 11.51414 -42.264615 -9.074399999999999 -51.436525Z" stroke-width="1"></path><path id="Vector_47" stroke="#191a23" stroke-linecap="round" stroke-linejoin="round" d="m29.48583 113.504625 8.39382 6.653565 8.56297 -13.13798" stroke-width="1"></path><path id="Vector_48" stroke="#191a23" stroke-linecap="round" stroke-linejoin="round" d="m102.98449 119.34627 -8.16696 1.03878" stroke-width="1"></path><path id="Vector_49" stroke="#191a23" stroke-linecap="round" stroke-linejoin="round" d="m99.411445 123.958095 -1.039775 -8.18487" stroke-width="1"></path><path id="Vector_50" stroke="#191a23" stroke-linecap="round" stroke-linejoin="round" d="M52.4166 61.292a3.01684 3.01684 0 1 1 -2.930275 -3.10042A3.0248 3.0248 0 0 1 52.4166 61.292v0Z" stroke-width="1"></path><path id="Vector_51" stroke="#191a23" stroke-linecap="round" stroke-linejoin="round" d="M51.92507 44.316305a8.955 8.955 0 1 0 -16.27621 -3.2516599999999998c0.02189 0.15323 0.05373 0.30447 0.094525 0.45372l4.34815 -0.81192a4.54914 4.54914 0 1 1 8.82764 -2.136265c0.398 2.170095 -0.7810750000000001 3.835725 -2.249695 5.6715a6.382925 6.382925 0 0 0 -1.4925 4.102385c-0.02189 0.80595 0.01393 1.612895 0.10547 2.414865 0.110445 1.0547 0.707445 4.2387 0.707445 4.2387l4.4775 -0.850725c-0.056715 0 -0.6049599999999999 -3.553145 -0.6427700000000001 -3.9501500000000003a7.61573 7.61573 0 0 1 0 -2.174075c0.28556499999999996 -1.437775 1.32534 -2.534265 2.100445 -3.706375Z" stroke-width="1"></path><path id="Vector_52" stroke="#191a23" stroke-linecap="round" stroke-linejoin="round" d="M56.480180000000004 96.64236a51.35991 51.35991 0 0 0 -8.37392 -4.4775 33.146435000000004 33.146435000000004 0 0 0 -7.2635 -1.758165c-3.648665 -0.44775 -4.06557 -1.429815 -0.094525 -1.9661199999999999a28.416205 28.416205 0 0 1 4.404864999999999 -0.18905c2.788985 0.03582 5.5660300000000005 0.3781 8.280389999999999 1.02087" stroke-width="1"></path></g></g></svg>