<svg xmlns="http://www.w3.org/2000/svg" fill="none" viewBox="-0.5 -0.5 200 200" id="Social-Media-Discussion--Streamline-Bangalore.svg"><desc>Social Media Discussion Streamline Illustration: https://streamlinehq.com</desc><g id="Social-media-Social-media-discussion-01"><g id="color 2"><path id="Vector" fill="#b9ff66" d="M191.98326 139.955705c-4.99291 -8.434615 -14.104125 -19.514934999999998 -23.55563 -22.04323l-2.6467 6.3142700000000005c-0.17312999999999998 0.38904500000000003 -0.466655 0.711425 -0.8377899999999999 0.9193800000000001 -0.37213 0.207955 -0.800975 0.29053999999999996 -1.222855 0.23382499999999998l-7.240615 -1.02087c-0.29252999999999996 -0.04179 -0.5711299999999999 -0.148255 -0.8168949999999999 -0.31243s-0.450735 -0.381085 -0.6019749999999999 -0.63481c-0.150245 -0.253725 -0.241785 -0.5382950000000001 -0.26765500000000003 -0.832815 -0.026865 -0.293525 0.01393 -0.590035 0.11740999999999999 -0.866645l1.569115 -4.6506300000000005c-5.033705 1.27758 -12.571825 -2.4775500000000004 -17.071215 -5.10435L147.27293500000002 93.53c-1.50842 -1.7487125000000001 -3.385985 -3.140817 -5.4983699999999995 -4.0758185000000005 -2.1113899999999997 -0.9350014999999999 -4.404864999999999 -1.389617 -6.713265 -1.3310114999999998l-9.206735 20.247255c-1.15022 2.5382450000000003 -1.346235 5.40683 -0.550235 8.07741 0.7950050000000001 2.67058 2.528295 4.965050000000001 4.87948 6.460535 5.527225 3.606875 11.624585 6.2535750000000005 18.034375 7.82667 -0.116415 5.3580749999999995 1.049725 10.666400000000001 3.4029 15.4822 5.791894999999999 1.56812 11.893234999999999 1.58802 17.695079999999997 0.056715 -0.35422 -3.419815 1.1701199999999998 -7.80478 2.4009349999999996 -11.020620000000001l7.22171 7.65553 -15.0245 12.987735c0.4975 5.0526100000000005 4.51929 9.353 9.18783 10.81366l16.716 -14.084225c1.7989600000000001 -1.51638 3.003905 -3.6198099999999998 3.399915 -5.939155 0.39601000000000003 -2.3193449999999998 -0.040795000000000005 -4.703365000000001 -1.234795 -6.7311749999999995Z" stroke-width="1"></path><path id="Vector_2" fill="#b9ff66" d="M27.833135 70.3664c-1.0176859999999999 0.5844630000000001 -2.112186 1.0235565 -3.2516599999999998 1.3044449999999999C14.16482 74.29863999999999 8.550035 87.92914499999999 5.870500000000001 97.77865c-0.6960224 2.5541650000000002 -0.3860799 5.277480000000001 0.8659883 7.60976 1.2520582500000002 2.33228 3.3509212 4.096415 5.864191699999999 4.92724 7.3732485 2.37208 15.0435045 3.6964249999999996 22.7855 3.9322399999999997 2.1570605 -3.614835 2.8087855000000004 -7.933135 1.81488 -12.023579999999999 -5.8715945 -0.508445 -11.6859765 -1.54026 -17.373694999999998 -3.0845000000000002 1.0778835 -3.0048005 2.4290935 -5.9044295 4.036715 -8.662469999999999 1.41489 4.765054999999999 0.87361 2.92928 2.388 8.114225 6.23865 1.02087 13.592694999999999 1.47459 20.53083 -0.28357499999999997 1.114002 -4.14517 1.779458 -8.397999 1.985025 -12.685255 3.377627 2.676948 7.162109500000001 4.7959000000000005 11.20967 6.27646 1.55817 0.608741 3.222606 0.8989825 4.8948030000000005 0.853511 1.6722965 -0.045372 3.3184245000000003 -0.425661 4.841272 -1.1181809999999999 6.828685 -3.11037 11.097235000000001 -5.444640000000001 19.39653 -11.664385000000001 0.056715 -4.9342049999999995 -2.136265 -8.374915 -6.635655 -10.284320000000001 -5.2934 3.951145 -11.56986 7.996815000000001 -17.335884999999998 10.284320000000001 -3.996119 -2.987985 -8.2180035 -5.6616495 -12.627545000000001 -7.996815000000001 -4.85759 -2.367105 -11.683290000000001 -3.13823 -12.685255 -3.270565 -3.1043005 3.6416005 -6.044625 3.4099644999999996 -11.992735000000001 1.66364Z" stroke-width="1"></path><path id="Vector_3" fill="#b9ff66" d="M33.391205 103.695915c-0.209348 0 -0.414119 0.06169 -0.5881445 0.17810499999999999 -0.174125 0.116415 -0.30984300000000004 0.281585 -0.3899405 0.47561 -0.0800975 0.19303 -0.101092 0.40596 -0.060297 0.6119249999999999 0.0408945 0.20496999999999999 0.141688 0.39402000000000004 0.289744 0.54128 0.148056 0.148255 0.33670799999999995 0.24875 0.542076 0.29053999999999996 0.205368 0.040795000000000005 0.41819850000000003 0.0199 0.611726 -0.060695 0.193428 -0.080595 0.358797 -0.215915 0.4751125 -0.39004 0.1163155 -0.174125 0.1784035 -0.379095 0.1784035 -0.5880449999999999 -0.004378 -0.27959500000000004 -0.1173105 -0.546255 -0.3149175 -0.74426 -0.197607 -0.19701000000000002 -0.4643665 -0.31044 -0.7437625000000001 -0.31442Z" stroke-width="1"></path><path id="Vector_4" fill="#b9ff66" d="M18.02144 109.480845c0.584662 0 1.05868 -0.47362 1.05868 -1.05868 0 -0.5850599999999999 -0.474018 -1.05868 -1.05868 -1.05868 -0.5847615 0 -1.05868 0.47362 -1.05868 1.05868 0 0.5850599999999999 0.4739185 1.05868 1.05868 1.05868Z" stroke-width="1"></path><path id="Vector_5" fill="#b9ff66" d="M10.53506 95.321c0.584662 0 1.05868 -0.474018 1.05868 -1.05868 0 -0.584662 -0.474018 -1.05868 -1.05868 -1.05868 -0.584662 0 -1.05868995 0.474018 -1.05868995 1.05868 0 0.584662 0.47402795 1.05868 1.05868995 1.05868Z" stroke-width="1"></path><path id="Vector_6" fill="#b9ff66" d="M23.295935 86.341125c0.584662 0 1.05868 -0.474018 1.05868 -1.05868 0 -0.584662 -0.474018 -1.05868 -1.05868 -1.05868 -0.584662 0 -1.05868 0.474018 -1.05868 1.05868 0 0.584662 0.474018 1.05868 1.05868 1.05868Z" stroke-width="1"></path><path id="Vector_7" fill="#b9ff66" d="M28.173425 71.91661c-0.20944749999999998 0 -0.414119 0.062088 -0.5881445 0.1784035 -0.174125 0.1163155 -0.30984300000000004 0.2816845 -0.3899405 0.4751125 -0.080197 0.193428 -0.101092 0.406358 -0.060297 0.611726 0.0408945 0.205368 0.141688 0.39392049999999995 0.289744 0.5419765 0.148056 0.148056 0.33670799999999995 0.24894899999999998 0.542076 0.289744 0.205368 0.0408945 0.41819850000000003 0.0199 0.611726 -0.0601975 0.193428 -0.0800975 0.3586975 -0.21581550000000002 0.4751125 -0.3899405 0.1163155 -0.174125 0.1784035 -0.3787965 0.1784035 -0.5881445 -0.004378 -0.279396 -0.1173105 -0.5461555 -0.3149175 -0.7437625000000001s-0.4643665 -0.31053949999999997 -0.7437625000000001 -0.3149175Z" stroke-width="1"></path><path id="Vector_8" fill="#b9ff66" d="M38.779129999999995 82.54122c-0.20944749999999998 0 -0.414119 0.062088 -0.588244 0.1784035 -0.1740255 0.1163155 -0.3097435 0.2816845 -0.389841 0.4751125 -0.080197 0.193428 -0.101092 0.406358 -0.060297 0.611726 0.0408945 0.205368 0.141688 0.39402000000000004 0.289744 0.542076 0.148056 0.148056 0.33670799999999995 0.2488495 0.542076 0.2896445 0.205368 0.0408945 0.41819850000000003 0.0199 0.611726 -0.0601975 0.193428 -0.0800975 0.3586975 -0.21581550000000002 0.4751125 -0.3899405 0.1163155 -0.174125 0.1784035 -0.3787965 0.1784035 -0.5881445 -0.004378 -0.279396 -0.1173105 -0.5461555 -0.3149175 -0.7437625000000001s-0.4643665 -0.31053949999999997 -0.7437625000000001 -0.3149175Z" stroke-width="1"></path><path id="Vector_9" fill="#b9ff66" d="M30.177355000000002 92.14496c-0.20944749999999998 0 -0.414119 0.062088 -0.5881445 0.1784035 -0.174125 0.1163155 -0.30984300000000004 0.2816845 -0.3899405 0.4751125 -0.080197 0.193428 -0.101092 0.406358 -0.060297 0.611726 0.0408945 0.205368 0.141688 0.39402000000000004 0.289744 0.542076 0.148056 0.148056 0.33670799999999995 0.2488495 0.542076 0.289744 0.205368 0.040795000000000005 0.41819850000000003 0.019800500000000002 0.611726 -0.060297 0.193428 -0.0800975 0.358797 -0.21581550000000002 0.4751125 -0.3899405 0.1163155 -0.1740255 0.1784035 -0.3787965 0.1784035 -0.5881445 0.000199 -0.139101 -0.0269645 -0.2769085 -0.0800975 -0.40546249999999995 -0.0530335 -0.128554 -0.1310415 -0.245367 -0.229447 -0.343673 -0.098306 -0.0984055 -0.215119 -0.1764135 -0.343673 -0.229447 -0.128554 -0.053133 -0.2663615 -0.080396 -0.40546249999999995 -0.0800975Z" stroke-width="1"></path><path id="Vector_10" fill="#b9ff66" d="M54.26133 86.341125c0.584662 0 1.05868 -0.474018 1.05868 -1.05868 0 -0.584662 -0.474018 -1.05868 -1.05868 -1.05868 -0.5847615 0 -1.05868 0.474018 -1.05868 1.05868 0 0.584662 0.4739185 1.05868 1.05868 1.05868Z" stroke-width="1"></path><path id="Vector_11" fill="#b9ff66" d="M64.451125 81.2915c-0.209348 0 -0.414119 0.062088 -0.5881445 0.1784035 -0.174125 0.1163155 -0.30984300000000004 0.2816845 -0.3899405 0.4751125 -0.0800975 0.193428 -0.101092 0.406358 -0.060297 0.611726 0.0408945 0.205368 0.141688 0.39392049999999995 0.289744 0.5419765 0.148056 0.1481555 0.33670799999999995 0.24894899999999998 0.542076 0.289744 0.205368 0.0408945 0.418298 0.0199 0.611726 -0.0601975 0.193428 -0.0800975 0.358797 -0.21581550000000002 0.4751125 -0.3899405 0.1163155 -0.174125 0.1784035 -0.3787965 0.1784035 -0.5881445 -0.004378 -0.279396 -0.1173105 -0.5461555 -0.3149175 -0.7437625000000001s-0.4643665 -0.31053949999999997 -0.7437625000000001 -0.3149175Z" stroke-width="1"></path><path id="Vector_12" fill="#b9ff66" d="M77.28762 85.71726c0.584662 0 1.05868 -0.474018 1.05868 -1.05868 0 -0.584662 -0.474018 -1.05868 -1.05868 -1.05868 -0.584662 0 -1.05868 0.474018 -1.05868 1.05868 0 0.584662 0.474018 1.05868 1.05868 1.05868Z" stroke-width="1"></path><path id="Vector_13" fill="#b9ff66" d="M82.902405 74.317545c0.584662 0 1.05868 -0.474018 1.05868 -1.05868 0 -0.584662 -0.474018 -1.05868 -1.05868 -1.05868 -0.5847615 0 -1.05868 0.474018 -1.05868 1.05868 0 0.584662 0.4739185 1.05868 1.05868 1.05868Z" stroke-width="1"></path><path id="Vector_14" fill="#b9ff66" d="M43.9591 94.243415c-0.20944749999999998 0 -0.414119 0.062088 -0.588244 0.1784035 -0.1740255 0.1163155 -0.3097435 0.2816845 -0.389841 0.4751125 -0.080197 0.193428 -0.101092 0.406358 -0.060297 0.611726 0.0408945 0.205368 0.141688 0.39392049999999995 0.289744 0.5419765 0.148056 0.148056 0.33670799999999995 0.24894899999999998 0.542076 0.289744 0.205368 0.0408945 0.41819850000000003 0.0199 0.6116265000000001 -0.0601975 0.19352750000000002 -0.0800975 0.358797 -0.21581550000000002 0.4751125 -0.3899405 0.116415 -0.174125 0.178503 -0.3787965 0.178503 -0.5881445 -0.004378 -0.279396 -0.1173105 -0.5461555 -0.3149175 -0.7437625000000001s-0.4643665 -0.31053949999999997 -0.7437625000000001 -0.3149175Z" stroke-width="1"></path><path id="Vector_15" fill="#b9ff66" d="M46.057555 73.65587c0.584662 0 1.05868 -0.474018 1.05868 -1.05868 0 -0.584662 -0.474018 -1.05868 -1.05868 -1.05868 -0.5847615 0 -1.05868 0.474018 -1.05868 1.05868 0 0.584662 0.4739185 1.05868 1.05868 1.05868Z" stroke-width="1"></path><path id="Subtract" fill="#b9ff66" fill-rule="evenodd" d="m88.40376 25.7705 1.81488 -4.782965000000001c-1.1703189999999999 -1.6392625 -1.804333 -3.6007059999999997 -1.81488 -5.6147849999999995 0 -5.74712 5.10435 -10.397749999999998 11.399715 -10.397749999999998 6.295365 0 11.38081 4.6506300000000005 11.38081 10.397749999999998 0 5.74712 -5.10435 10.397749999999998 -11.399715 10.397749999999998 -2.3486975 0.0126365 -4.6493364999999995 -0.6643614999999999 -6.616750000000001 -1.9472150000000001L88.40376 25.7705Zm7.4498635 -9.7783625c0.122385 -0.1833785 0.1877565 -0.39889549999999996 0.1877565 -0.6193875000000001 -0.0004975 -0.2962115 -0.118604 -0.5799854999999999 -0.32835000000000003 -0.7891345000000001 -0.209746 -0.209149 -0.493918 -0.326559 -0.79003 -0.3262605 -0.220492 0.000597 -0.43581 0.0665655 -0.6188899999999999 0.189448 -0.18298050000000002 0.12288249999999999 -0.32556399999999996 0.297306 -0.4094425 0.5011815000000001 -0.083978 0.2038755 -0.105669 0.428049 -0.062287 0.6441629999999999 0.043382 0.2162135 0.149847 0.41471600000000003 0.30596249999999997 0.570334 0.15611550000000002 0.1557175 0.354817 0.261685 0.5711299999999999 0.30447 0.216313 0.042785 0.440387 0.020497 0.6440635 -0.0639785 0.203577 -0.08447550000000001 0.3776025 -0.227457 0.5000870000000001 -0.41083549999999996Zm5.0463415 -0.6193875000000001c0 0.2205915 -0.06567 0.4363075 -0.188055 0.6196860000000001 -0.122385 0.183478 -0.29651 0.32636000000000004 -0.500485 0.41083549999999996 -0.203975 0.084376 -0.42785 0.106465 -0.64476 0.063481 -0.216114 -0.0430835 -0.4148155 -0.14925 -0.5708314999999999 -0.30526600000000004 -0.156016 -0.156016 -0.2621825 -0.35471749999999996 -0.30526600000000004 -0.5711299999999999 -0.042984 -0.216313 -0.020895 -0.44058600000000003 0.063481 -0.6444615 0.08447550000000001 -0.203776 0.22735750000000002 -0.3780005 0.41083549999999996 -0.5005845 0.1833785 -0.1224845 0.398796 -0.1879555 0.6196860000000001 -0.1879555 0.29551499999999997 0.0004975 0.57909 0.118206 0.7880400000000001 0.32725550000000003 0.20895 0.2090495 0.32636000000000004 0.492525 0.327355 0.7881395Zm4.6894350000000005 0.6196860000000001c0.122385 -0.1833785 0.188055 -0.3990945 0.188055 -0.6196860000000001 -0.000995 -0.29561449999999995 -0.118405 -0.57909 -0.327355 -0.7881395 -0.20895 -0.2090495 -0.492525 -0.32675800000000005 -0.7880400000000001 -0.32725550000000003 -0.22089 0 -0.43581 0.065471 -0.619885 0.1879555 -0.18308 0.122584 -0.32636000000000004 0.29680850000000003 -0.410935 0.5005845 -0.08457500000000001 0.2038755 -0.106465 0.4281485 -0.062685 0.6444615 0.042785 0.2164125 0.14925 0.41511400000000004 0.30447 0.5711299999999999 0.156215 0.156016 0.355215 0.2621825 0.5711299999999999 0.30526600000000004 0.21691 0.042984 0.440785 0.020895 0.64476 -0.063481 0.203975 -0.08447550000000001 0.3781 -0.22735750000000002 0.500485 -0.41083549999999996Z" clip-rule="evenodd" stroke-width="1"></path><path id="Vector_16" fill="#b9ff66" d="M162.926275 70.3664c0 0.3963085 -0.11740999999999999 0.7837615 -0.337305 1.1133055 -0.22089 0.329544 -0.53332 0.586453 -0.8994800000000001 0.738091 -0.36616 0.151638 -0.769135 0.1913385 -1.15818 0.11402699999999999 -0.38904500000000003 -0.0773115 -0.745255 -0.2681525 -1.025845 -0.548444 -0.28058999999999995 -0.2802915 -0.47163 -0.6372975 -0.5482450000000001 -1.026044 -0.07761 -0.3887465 -0.037809999999999996 -0.7916219999999999 0.11343 -1.1577819999999999 0.152235 -0.36616 0.40894499999999995 -0.679187 0.73829 -0.8993805 0.329345 -0.2201935 0.717395 -0.337703 1.113405 -0.337703 0.5313300000000001 0.0002985 1.04077 0.2114375 1.41688 0.5872489999999999 0.375115 0.375712 0.58705 0.8852515000000001 0.58705 1.4166809999999999Z" stroke-width="1"></path><path id="Vector_17" fill="#b9ff66" d="M86.985885 182.03724 69.46095 181.5875c-0.153827 -0.01393 -0.30874850000000004 0.008955 -0.4520285 0.066665 -0.14328 0.057710000000000004 -0.270839 0.14925 -0.3722295 0.26566500000000004 -0.10149 0.116415 -0.173926 0.25472 -0.211338 0.40496499999999996 -0.037412 0.14925 -0.0389045 0.30646 -0.0041789999999999996 0.456705l0.796 3.2516599999999998c3.604288 0.08358 7.210168 -0.06766 10.794755 -0.45372 -3.284495 1.344245 -6.699335 2.34422 -10.189795 2.985l1.6258299999999999 4.72625c0.0353225 0.14925 0.106067 0.28855 0.20626350000000002 0.40496499999999996 0.1001965 0.11740999999999999 0.22705899999999998 0.207955 0.3696425 0.26566500000000004 0.142683 0.056715 0.29710699999999995 0.0796 0.45013800000000004 0.064675 0.1531305 -0.014924999999999999 0.30049 -0.06567 0.429641 -0.14925 5.3008625 -2.62282 10.186611 -6.0117899999999995 14.500135 -10.05746 0.171538 -0.106465 0.3053655 -0.26467 0.38247800000000004 -0.45173 0.077212 -0.186065 0.093928 -0.39203 0.047760000000000004 -0.58904 -0.0460685 -0.19701000000000002 -0.1527325 -0.37412 -0.30486800000000003 -0.50745 -0.1521355 -0.132335 -0.3421805 -0.21492 -0.54327 -0.23382499999999998Z" stroke-width="1"></path></g><g id="color 1"><path id="Vector_18" fill="#191a23" d="M121.94123 39.078624999999995H73.39319c-1.5097135000000002 -0.0006965 -3.0048005 0.2962115 -4.399691 0.8737095 -1.3948904999999998 0.5774980000000001 -2.6623215 1.4241435 -3.7297575 2.4917785 -1.0675355 1.0675355 -1.9140815 2.335066 -2.49148 3.7299565 -0.577299 1.39499 -0.8741074999999999 2.890077 -0.8733115 4.3997905v7.80677h5.10236v-6.69237c0.0056715 -1.056889 0.2231785 -2.101838 0.639586 -3.073157 0.4164075 -0.9714185 1.0233575 -1.8494065 1.7849305 -2.582224 0.7614735 -0.7328175 1.662247 -1.3055395 2.648889 -1.6842365000000001 0.986642 -0.3787965 2.0392525 -0.5559065 3.0955445 -0.5208824999999999h45.33419c1.0556949999999998 -0.0333325 2.10741 0.144872 3.093455 0.5242655 0.986045 0.3793935 1.8855250000000001 0.9522149999999999 2.6467 1.6846345 0.761175 0.7325189999999999 1.368125 1.6099100000000002 1.7850300000000001 2.5805325000000003 0.41591 0.9706225 0.63481 2.0147755000000003 0.641775 3.0710675v50.47635l4.764060000000001 -10.47337V50.57386c0.000995 -1.5097135000000002 -0.29651 -3.004701 -0.87361 -4.3995915000000005 -0.5771 -1.3948904999999998 -1.423845 -2.6623215 -2.49148 -3.729857 -1.067635 -1.0675355 -2.335265 -1.9142804999999998 -3.72926 -2.4917785 -1.39499 -0.5775975 -2.890475 -0.8745055 -4.39989 -0.874008Z" stroke-width="1"></path><path id="Vector_19" fill="#191a23" d="M128.6535 153.849885v6.4675c-0.000995 2.166115 -0.860675 4.24268 -2.392975 5.773985 -1.531305 1.5323 -3.6078699999999997 2.3919799999999998 -5.773985 2.392975H75.151355c-2.1658165 -0.000995 -4.242878999999999 -0.860675 -5.7742835 -2.392975 -1.531504 -1.531305 -2.392179 -3.6078699999999997 -2.3926765 -5.773985v-50.944h-5.10435v52.365854999999996c-0.0000995 1.509415 0.29710699999999995 3.003905 0.874804 4.3979 0.5775975 1.39499 1.4243425 2.661625 2.4917785 3.728265 1.0673365 1.067635 2.3345684999999996 1.9133850000000001 3.7291605 2.490485 1.394592 0.5771 2.8891815000000003 0.874605 4.398497 0.87361h48.566945c1.509415 0.000995 3.0049 -0.29651 4.39989 -0.87361 1.393995 -0.5771 2.661625 -1.423845 3.72926 -2.49148 1.067635 -1.067635 1.91438 -2.335265 2.49148 -3.72926 0.5771 -1.39499 0.874605 -2.890475 0.87361 -4.39989v-7.883385l-4.78197 -0.00199Z" stroke-width="1"></path><path id="Vector_20" fill="#191a23" d="m162.52927 110.52062 -1.7959749999999999 2.098455c0.13333 -0.627845 0.196015 -1.26763 0.18905 -1.909405 0.540285 -0.0199 1.077585 -0.08358 1.606925 -0.18905Z" stroke-width="1"></path><path id="Vector_21" fill="#191a23" d="M37.19111 67.30378999999999c-0.562374 -0.613915 -0.8729135 -1.4171785 -0.86963 -2.249695 0.412925 0.2677545 0.84376 0.506853 1.28952 0.715405 -0.296311 0.4552125 -0.44307349999999995 0.9916170000000001 -0.41989 1.53429Z" stroke-width="1"></path><path id="Vector_22" fill="#191a23" d="m25.299865 88.09929 -0.325365 6.144125 -1.115395 -3.81881c0.41889499999999996 -0.71839 0.8925150000000001 -1.471605 1.44076 -2.3253150000000002Z" stroke-width="1"></path><path id="Vector_23" fill="#191a23" d="M48.76097 85.62273499999999c0.104475 -2.2193475 0.047561 -4.443471 -0.17014500000000002 -6.65456l2.587 8.43163c-0.77212 -0.52934 -1.585035 -1.115395 -2.416855 -1.77707Z" stroke-width="1"></path><path id="Vector_24" fill="#191a23" d="M41.6905 50.347c-0.0307455 -0.3192955 -0.1672595 -0.619089 -0.387851 -0.851919 -0.220691 -0.23283 -0.5127235 -0.385264 -0.8299295 -0.43302399999999996 -0.317206 -0.047760000000000004 -0.6411779999999999 0.011741 -0.9206735 0.1692495 -0.279396 0.157409 -0.49819650000000004 0.403771 -0.621676 0.6997835h-0.18905c-0.096913 -0.30725600000000003 -0.29372400000000004 -0.5732195 -0.5591900000000001 -0.7558020000000001 -0.2653665 -0.182483 -0.584264 -0.27113750000000003 -0.9057485 -0.2516355 -0.321584 0.0194025 -0.6274470000000001 0.1457675 -0.8689334999999999 0.358996 -0.2414865 0.213129 -0.4048655 0.5009825 -0.464068 0.8175915h-0.07561999999999999c-0.0930325 -0.3602895 -0.32178300000000004 -0.6707295 -0.638392 -0.866247 -0.3165095 -0.1955175 -0.6965 -0.26108800000000004 -1.0603715 -0.18298050000000002 -0.363772 0.0781075 -0.6832665 0.293923 -0.891719 0.6022734999999999 -0.208353 0.308251 -0.28944549999999997 0.685157 -0.2263625 1.051914 -0.10586799999999999 -0.3260615 -0.32437 -0.603766 -0.6163029999999999 -0.783463 -0.291933 -0.1797965 -0.6382924999999999 -0.249745 -0.97709 -0.197408 -0.33879750000000003 0.0522375 -0.647944 0.22347699999999998 -0.8721175 0.48277400000000004 -0.2241735 0.2593965 -0.348648 0.5901345 -0.35133450000000005 0.932912 -0.0010945 0.1405935 0.0180095 0.28068950000000004 0.056715 0.41591 0.7445585 2.2416355 1.375488 4.519489 1.8904999999999998 6.824705 0.623865 3.0248 0.9452499999999999 6.27646 0 7.96 1.871595 -2.741225 2.34422 -5.501355 2.04174 -5.803835 -2.9113700000000002 -2.872565 -0.34029000000000004 -5.55807 1.001965 -3.4974250000000002 0.6427700000000001 0.9830599999999999 1.02087 0.9830599999999999 1.228825 0.41690499999999997 0.86963 -2.9501749999999998 5.009825 -7.03266 6.4675 -0.8139099999999999L41.6905 50.347Z" stroke-width="1"></path><path id="Vector_25" fill="#191a23" d="M165.06253999999998 66.9635c-0.006965 0.178503 -0.082585 0.3473545 -0.21094 0.47123200000000004s-0.30049 0.19303 -0.478595 0.19303c-0.17909999999999998 0 -0.35123499999999996 -0.0691525 -0.47958999999999996 -0.19303s-0.203975 -0.292729 -0.21094 -0.47123200000000004c0.006965 -0.178503 0.082585 -0.3473545 0.21094 -0.47123200000000004s0.30049 -0.19312949999999998 0.47958999999999996 -0.19312949999999998c0.17810499999999999 0 0.35024 0.069252 0.478595 0.19312949999999998s0.203975 0.292729 0.21094 0.47123200000000004Z" stroke-width="1"></path><path id="Vector_26" fill="#191a23" d="M172.4733 106.11575500000001c0.325365 -1.0616649999999999 0.516405 -2.16114 0.5671499999999999 -3.270565 0.22686 -6.8655 -6.749085 -8.450535 -11.626575 -4.423769999999999 2.665605 -1.70145 4.19691 2.45765 3.9322399999999997 5.009825 0 0.44974000000000003 0.15323 0.86963 1.3044449999999999 0.0995 2.0228349999999997 -1.3989699999999998 3.36509 2.060645 -0.41591 3.610855 -0.71839 0.28357499999999997 -1.4925 3.837715 -0.6049599999999999 8.223675 0.34029000000000004 1.7382650000000002 1.153205 1.99 2.7979399999999996 2.514365 4.52327 1.3193700000000002 9.04256 4.50536 12.307155 7.59981 8.639585 -16.906045 -8.280389999999999 -19.363695 -8.261485 -19.363695Z" stroke-width="1"></path></g><g id="outlines"><path id="Vector_27" stroke="#191a23" d="M165.06253999999998 66.9635c-0.006965 0.178503 -0.082585 0.3473545 -0.21094 0.47123200000000004s-0.30049 0.19303 -0.478595 0.19303c-0.17909999999999998 0 -0.35123499999999996 -0.0691525 -0.47958999999999996 -0.19303s-0.203975 -0.292729 -0.21094 -0.47123200000000004c0.006965 -0.178503 0.082585 -0.3473545 0.21094 -0.47123200000000004s0.30049 -0.19312949999999998 0.47958999999999996 -0.19312949999999998c0.17810499999999999 0 0.35024 0.069252 0.478595 0.19312949999999998s0.203975 0.292729 0.21094 0.47123200000000004Z" stroke-width="1"></path><path id="Vector_28" stroke="#191a23" stroke-linecap="round" stroke-linejoin="round" d="m151.62108500000002 146.212265 -3.119325 7.63762" stroke-width="1"></path><path id="Vector_29" stroke="#191a23" stroke-linecap="round" stroke-linejoin="round" d="M67.00130999999999 58.38063V51.67035c0.004975 -1.057287 0.2219845 -2.102833 0.6380935 -3.0747489999999997 0.416109 -0.971916 1.0229595 -1.8506005 1.784632 -2.5839155000000003 0.7615729999999999 -0.7333149999999999 1.6625455 -1.306435 2.649486 -1.68553 0.98704 -0.37899550000000004 2.0400485 -0.5563045000000001 3.0967385 -0.5212805h45.33419c1.0556949999999998 -0.0333325 2.1084050000000003 0.145071 3.0944499999999997 0.524763 0.986045 0.3795925 1.88652 0.9529115 2.647695 1.6859279999999999 0.761175 0.7330165000000001 1.3671300000000002 1.6110045 1.7840349999999998 2.5821245 0.41690499999999997 0.9712195 0.63481 2.0159695 0.64078 3.0726595v50.49426" stroke-width="1"></path><path id="Vector_30" stroke="#191a23" stroke-linecap="round" stroke-linejoin="round" d="M133.4295 91.67233499999999V50.554955c-0.000995 -1.509614 -0.2985 -3.0044025 -0.876595 -4.398795499999999 -0.57909 -1.394393 -1.42683 -2.661028 -2.494465 -3.727668 -1.06863 -1.06664 -2.3372550000000003 -1.9122905 -3.732245 -2.4885945 -1.39499 -0.5764035000000001 -2.890475 -0.872018 -4.39989 -0.8702270000000001H73.374285c-1.510211 0.000398 -3.005497 0.298301 -4.400487 0.8766945 -1.3950894999999999 0.5783935 -2.662421 1.4259345 -3.729857 2.494266 -1.0673365 1.0683315 -1.9138825 2.3364589999999996 -2.4909825 3.7319465000000003 -0.5771995 1.3955870000000001 -0.873809 2.8910720000000003 -0.8729135 4.401283v7.80677" stroke-width="1"></path><path id="Vector_31" stroke="#191a23" stroke-linecap="round" stroke-linejoin="round" d="M158.1055 102.864095h-14.821520000000001" stroke-width="1"></path><path id="Vector_32" stroke="#191a23" stroke-linecap="round" stroke-linejoin="round" d="M173.021545 102.85414499999999h9.509215000000001c0.57312 -0.000995 1.14027 0.11144 1.66961 0.33034 0.530335 0.217905 1.01092 0.53929 1.41688 0.944255 0.40596 0.40397000000000005 0.727345 0.884555 0.94724 1.4138950000000001 0.219895 0.52934 0.33332500000000004 1.0964900000000002 0.33332500000000004 1.66961v25.049125" stroke-width="1"></path><path id="Vector_33" stroke="#191a23" stroke-linecap="round" stroke-linejoin="round" d="M128.355 102.864095h-2.9352500000000004l-12.58675 -3.875525 4.00786 12.28825v38.208c0.000995 1.15818 0.460685 2.2685999999999997 1.27957 3.087485 0.818885 0.818885 1.929305 1.278575 3.087485 1.27957h45.026735" stroke-width="1"></path><path id="Vector_34" stroke="#191a23" stroke-linecap="round" stroke-linejoin="round" d="M78.93235499999999 72.237v-9.489315000000001c-0.0004975 -1.1580804999999998 -0.4607845 -2.2685005 -1.2796695 -3.0873855s-1.929305 -1.279172 -3.0873855 -1.2796695H43.2029" stroke-width="1"></path><path id="Vector_35" stroke="#191a23" stroke-linecap="round" stroke-linejoin="round" d="M128.67141 153.849885v6.4675c-0.000995 2.166115 -0.860675 4.24268 -2.392975 5.773985 -1.531305 1.5323 -3.6078699999999997 2.3919799999999998 -5.773985 2.392975H75.151355c-2.165916 -0.000995 -4.242878999999999 -0.860675 -5.774383 -2.392975 -1.5314044999999998 -1.531305 -2.3920795 -3.6078699999999997 -2.3925769999999997 -5.773985v-50.944" stroke-width="1"></path><path id="Vector_36" stroke="#191a23" stroke-linecap="round" stroke-linejoin="round" d="M61.880045 109.367415v52.365854999999996c-0.0008954999999999999 1.509415 0.29571400000000003 3.0049 0.8730129999999999 4.39989 0.577299 1.39499 1.423845 2.66262 2.4913805 3.730255 1.0675355 1.067635 2.3349664999999997 1.91438 3.7299565 2.4924749999999998 1.39499 0.5771 2.890077 0.874605 4.39989 0.87361h48.566945c1.509415 0.000995 3.0049 -0.29651 4.39989 -0.87361 1.393995 -0.5771 2.661625 -1.423845 3.72926 -2.49148 1.067635 -1.067635 1.91438 -2.335265 2.49148 -3.72926 0.5771 -1.39499 0.874605 -2.890475 0.87361 -4.39989v-7.883385" stroke-width="1"></path><path id="Vector_37" stroke="#191a23" stroke-linecap="round" stroke-linejoin="round" d="M32.143475 58.38063H13.21957c-1.157583 0.0012935 -2.267207 0.4619785 -3.085495 1.2807639999999998 -0.81819845 0.8187854999999999 -1.2780576000000001 1.9288074999999998 -1.27858495 3.0862909999999997v26.1685" stroke-width="1"></path><path id="Vector_38" stroke="#191a23" stroke-linecap="round" stroke-linejoin="round" d="M56.4364 109.367415h13.913085l12.571825 3.85662 -3.9889550000000003 -12.269345V86.92718" stroke-width="1"></path><path id="Vector_39" stroke="#191a23" stroke-linecap="round" stroke-linejoin="round" d="M100.16266999999999 173.2295c-3.860202 4.253625 -8.54307 7.680405 -13.7655265 10.07139 -5.222357 2.3919799999999998 -10.875748 3.69941 -16.6179925 3.843685 -5.7422445 0.144275 -11.454042 -0.87759 -16.789928500000002 -3.0049 -5.335787 -2.126315 -10.184720500000001 -5.3133 -14.253374999999998 -9.367925 -4.068754 -4.054625000000001 -7.272653999999999 -8.893310000000001 -9.417874 -14.221535 -2.1453195 -5.328225000000001 -3.1872835 -11.03654 -3.0631075 -16.77968 0.1242755 -5.742145 1.412104 -11.399715 3.7857760000000003 -16.630429999999997 2.373672 -5.230715 5.7838355 -9.926120000000001 10.024028000000001 -13.80065" stroke-width="1"></path><path id="Vector_40" stroke="#191a23" stroke-linecap="round" stroke-linejoin="round" d="M86.985885 182.03724 69.46095 181.5875c-0.153827 -0.01393 -0.30874850000000004 0.008955 -0.4520285 0.066665 -0.14328 0.057710000000000004 -0.270839 0.14925 -0.3722295 0.26566500000000004 -0.10149 0.116415 -0.173926 0.25472 -0.211338 0.40496499999999996 -0.037412 0.14925 -0.0389045 0.30646 -0.0041789999999999996 0.456705l0.796 3.2516599999999998c3.604288 0.08358 7.210168 -0.06766 10.794755 -0.45372 -3.284495 1.344245 -6.699335 2.34422 -10.189795 2.985l1.6258299999999999 4.72625c0.0353225 0.14925 0.106067 0.28855 0.20626350000000002 0.40496499999999996 0.1001965 0.11740999999999999 0.22705899999999998 0.207955 0.3696425 0.26566500000000004 0.142683 0.056715 0.29710699999999995 0.0796 0.45013800000000004 0.064675 0.1531305 -0.014924999999999999 0.30049 -0.06567 0.429641 -0.14925 5.3008625 -2.62282 10.186611 -6.0117899999999995 14.500135 -10.05746 0.171538 -0.106465 0.3053655 -0.26467 0.38247800000000004 -0.45173 0.077212 -0.186065 0.093928 -0.39203 0.047760000000000004 -0.58904 -0.0460685 -0.19701000000000002 -0.1527325 -0.37412 -0.30486800000000003 -0.50745 -0.1521355 -0.132335 -0.3421805 -0.21492 -0.54327 -0.23382499999999998v0Z" stroke-width="1"></path><path id="Vector_41" stroke="#191a23" stroke-linecap="round" stroke-linejoin="round" d="M160.922345 110.690765c0.53929 -0.00995 1.077585 -0.06766 1.606925 -0.17014500000000002l-1.7959749999999999 2.07955" stroke-width="1"></path><path id="Vector_42" stroke="#191a23" stroke-linecap="round" stroke-linejoin="round" d="M148.218185 130.692255c-6.4277 -1.50046 -12.535010000000002 -4.138205 -18.034375 -7.788860000000001 -2.351185 -1.495485 -4.08348 -3.789955 -4.87948 -6.460535 -0.7950050000000001 -2.67058 -0.599985 -5.539165000000001 0.550235 -8.07741l9.20574 -20.265165c4.78993 0.323375 8.666450000000001 1.25967 12.212629999999999 5.405835l-7.8605 18.45128c3.535235 2.060645 7.90229 4.23671 11.947959999999998 5.02873 5.54812 1.085545 9.565930000000002 -0.64874 9.565930000000002 -6.295365 -2.514365 0.07561999999999999 -6.673465 -0.850725 -2.3253150000000002 -8.771920000000001 4.34815 -7.921195 7.240615 -1.791 6.88142 1.55021 0.018904999999999998 0.586055 0.32138500000000003 0.737295 1.3044449999999999 0.056715 2.0228349999999997 -1.3999650000000001 3.37504 2.0895 -0.41591 3.610855 -0.7163999999999999 0.28855 -1.4925 3.8387100000000003 -0.6049599999999999 8.223675 0.6775950000000001 3.32728 3.007885 1.2268350000000001 9.868409999999999 5.97 7.620705 5.273499999999999 13.127035 12.90714 16.48516 18.58262 1.200965 2.026815 1.64374 4.414815 1.2487249999999999 6.7381400000000005 -0.395015 2.32233 -1.600955 4.430735 -3.403895 5.947115l-16.844355 14.10313c-2.40392 -0.7402799999999999 -4.548145 -2.150195 -6.177955 -4.06557 -1.630805 -1.915375 -2.6815249999999997 -4.256609999999999 -3.02878 -6.74809l15.0245 -12.987735 -8.847539999999999 -9.39479" stroke-width="1"></path><path id="Vector_43" stroke="#191a23" stroke-linecap="round" stroke-linejoin="round" d="M37.19111 67.30378999999999c-0.562374 -0.613915 -0.8729135 -1.4171785 -0.86963 -2.249695 0.412925 0.2677545 0.84376 0.506853 1.28952 0.715405" stroke-width="1"></path><path id="Vector_44" stroke="#191a23" stroke-linecap="round" stroke-linejoin="round" d="M36.43491 57.454285c0.86963 -2.94918 5.02873 -7.03266 6.4675 -0.8129149999999999l0.32138500000000003 2.00393c1.001965 9.154 -3.346185 8.185865 -5.6147849999999995 7.127185 0 0 -1.58603 2.345215 1.3183749999999999 2.83177 0.46566 0.07761 0.78207 0.08457500000000001 0.8955 0.0995 -2.2685999999999997 3.32728 -6.4675 3.535235 -11.985769999999999 1.66364 5.131215 -2.90739 6.9779349999999996 -9.186835 6.35208 -9.811695 -2.8855 -2.8775399999999998 -0.34228 -5.557075 1.001965 -3.4974250000000002 0.641775 0.984055 0.9830599999999999 0.964155 1.228825 0.434815l0.014924999999999999 -0.038805Z" stroke-width="1"></path><path id="Vector_45" stroke="#191a23" stroke-linecap="round" stroke-linejoin="round" d="M23.85413 90.47734c0.434815 -0.737295 0.9163950000000001 -1.5273249999999998 1.445735 -2.37805l-0.325365 6.16303" stroke-width="1"></path><path id="Vector_46" stroke="#191a23" stroke-linecap="round" stroke-linejoin="round" d="M48.76097 85.62273499999999c0.104475 -2.2193475 0.047561 -4.443471 -0.17014500000000002 -6.65456l2.587 8.43163" stroke-width="1"></path><path id="Vector_47" stroke="#191a23" stroke-linecap="round" stroke-linejoin="round" d="M27.833135 70.3664c-1.0176859999999999 0.5844630000000001 -2.112186 1.0235565 -3.2516599999999998 1.3044449999999999C14.16482 74.29863999999999 8.550035 87.92914499999999 5.870500000000001 97.77865c-0.6960224 2.5541650000000002 -0.3860799 5.277480000000001 0.8659883 7.60976 1.2520582500000002 2.33228 3.3509212 4.096415 5.864191699999999 4.92724 7.3732485 2.37208 15.0435045 3.6964249999999996 22.7855 3.9322399999999997 2.1570605 -3.614835 2.8087855000000004 -7.933135 1.81488 -12.023579999999999 -5.8715945 -0.508445 -11.6859765 -1.54026 -17.373694999999998 -3.0845000000000002 1.0778835 -3.0048005 2.4290935 -5.9044295 4.036715 -8.662469999999999 1.41489 4.765054999999999 0.87361 2.92928 2.388 8.114225 6.23865 1.02087 13.592694999999999 1.47459 20.53083 -0.28357499999999997 1.114002 -4.14517 1.779458 -8.397999 1.985025 -12.685255 3.377627 2.676948 7.162109500000001 4.7959000000000005 11.20967 6.27646 1.55817 0.608741 3.222606 0.8989825 4.8948030000000005 0.853511 1.6722965 -0.045372 3.3184245000000003 -0.425661 4.841272 -1.1181809999999999 6.828685 -3.11037 11.097235000000001 -5.444640000000001 19.39653 -11.664385000000001 0.056715 -4.9342049999999995 -2.136265 -8.374915 -6.635655 -10.284320000000001 -5.2934 3.951145 -11.56986 7.996815000000001 -17.335884999999998 10.284320000000001 -3.996119 -2.987985 -8.2180035 -5.6616495 -12.627545000000001 -7.996815000000001 -4.85759 -2.367105 -11.683290000000001 -3.13823 -12.685255 -3.270565" stroke-width="1"></path><path id="Vector_48" stroke="#191a23" stroke-linecap="round" stroke-linejoin="round" d="M141.03528 79.27762c0.0796 -0.226462 0.21293 -0.43083499999999997 0.38705500000000004 -0.596403 0.174125 -0.1654685 0.385065 -0.287356 0.61491 -0.35581199999999996 1.00097 -0.26467 2.4755599999999998 1.833785 2.002935 4.5371999999999995 -0.243775 1.4676250000000002 -1.27559 2.130295 -1.86264 -0.082585" stroke-width="1"></path><path id="Vector_49" stroke="#191a23" stroke-linecap="round" stroke-linejoin="round" d="M143.076025 78.779125c0.16716 -0.1656675 0.37611 -0.283177 0.6049599999999999 -0.34029000000000004 1.003955 -0.257705 2.53327 1.266635 2.174075 4.00786 -0.18706 1.423845 -1.0427600000000001 1.7711000000000001 -1.75717 0.010945" stroke-width="1"></path><path id="Vector_50" stroke="#191a23" stroke-linecap="round" stroke-linejoin="round" d="M136.08217 88.157c2.249695 -4.045669999999999 2.07756 -5.17997 2.665605 -7.10828 0.28258 -0.9263450000000001 0.67859 -1.74324 1.4925 -1.9472150000000001 0.995 -0.25074 2.261635 1.435785 1.8904999999999998 4.0794999999999995 -0.15323 1.0945 -1.624835 0.86963 -1.8904999999999998 -1.909405" stroke-width="1"></path><path id="Vector_51" stroke="#191a23" stroke-linecap="round" stroke-linejoin="round" d="M146.592355 92.76882499999999c0.71839 -1.569115 5.730205000000001 -10.72212 5.161065000000001 -10.983805 -0.621875 -0.28656 -4.00786 2.7223200000000003 -4.00786 2.7223200000000003s-3.97005 0.5482450000000001 -3.7053800000000003 3.0845000000000002" stroke-width="1"></path><path id="Vector_52" stroke="#191a23" stroke-linecap="round" stroke-linejoin="round" d="M147.726655 84.50734c1.66364 -6.597845 0.398 -12.139 0.056715 -11.15395 -0.64476 1.8705999999999998 -1.43678 6.8655 -1.92831 9.074399999999999" stroke-width="1"></path><path id="Vector_53" stroke="#191a23" stroke-linecap="round" stroke-linejoin="round" d="M139.33382999999998 82.42779c0.377105 -0.1015895 0.7780900000000001 -0.0775105 1.14027 0.06865500000000001" stroke-width="1"></path><path id="Vector_54" stroke="#191a23" stroke-linecap="round" stroke-linejoin="round" d="M84.774 70.876835c3.62976 -0.9263450000000001 22.00542 1.5124 21.21141 3.3083750000000003 -4.556105 0.6965 -11.39474 0.00796 -15.331955 2.2685999999999997 -0.26467 0.152235 -1.194 0.796 -1.70145 1.153205" stroke-width="1"></path><path id="Vector_55" stroke="#191a23" stroke-linecap="round" stroke-linejoin="round" d="M85.28443499999999 70.78231000000001c7.07047 -1.66364 14.89714 -10.92709 8.3182 -1.55021 -0.623865 1.039775 -0.9263450000000001 1.6258299999999999 -0.037809999999999996 1.833785" stroke-width="1"></path><path id="Vector_56" stroke="#191a23" stroke-linecap="round" stroke-linejoin="round" d="M90.918125 76.30257c3.5919499999999998 -1.417875 22.440235 3.32728 9.357975 -1.70145" stroke-width="1"></path><path id="Vector_57" stroke="#191a23" stroke-linecap="round" stroke-linejoin="round" d="M90.93703000000001 76.283665c1.4925 -0.796 15.785675 4.975 8.223675 0.207955" stroke-width="1"></path><path id="Vector_58" stroke="#191a23" stroke-linecap="round" stroke-linejoin="round" d="M47.0635 109.367415c2.9113700000000002 1.592 3.9342300000000003 4.44566 2.94918 5.217779999999999 -0.49958949999999996 0.26069000000000003 -1.0695255 0.35322499999999996 -1.6258299999999999 0.26467" stroke-width="1"></path><path id="Vector_59" stroke="#191a23" stroke-linecap="round" stroke-linejoin="round" d="M48.158 107.68487c2.9113700000000002 1.592 3.929255 4.438695 2.94918 5.217779999999999 -0.2351185 0.15123999999999999 -0.49899249999999995 0.253725 -0.775105 0.2985" stroke-width="1"></path><path id="Vector_60" stroke="#191a23" stroke-linecap="round" stroke-linejoin="round" d="M35.773235 113.56432500000001c3.3154395 -0.596005 6.732966 -0.20895 9.8306 1.115395" stroke-width="1"></path><path id="Vector_61" stroke="#191a23" stroke-linecap="round" stroke-linejoin="round" d="M45.414785 111.01214999999999c2.76013 1.6258299999999999 3.493445 3.9093549999999997 2.5710800000000003 4.7451550000000005 -1.0815649999999999 0.978085 -4.707345 0.47262499999999996 -5.728215 -2.11736" stroke-width="1"></path><path id="Vector_62" stroke="#191a23" stroke-linecap="round" stroke-linejoin="round" d="M37.285635 102.826285c2.45765 -0.07561999999999999 11.94995 0.359195 11.985769999999999 1.077585 0.040795000000000005 0.83182 -2.2118849999999997 1.3044449999999999 -2.2118849999999997 1.3044449999999999" stroke-width="1"></path><path id="Vector_63" stroke="#191a23" stroke-linecap="round" stroke-linejoin="round" d="M37.304539999999996 102.84518999999999c3.0872859999999998 0.22288 6.122036 0.918385 8.99878 2.060645 0 0 7.79284 2.985 11.3231 3.762095 1.1741 0.257705 -2.189 1.644735 -7.995819999999999 0.07561999999999999" stroke-width="1"></path><path id="Vector_64" stroke="#191a23" stroke-linecap="round" stroke-linejoin="round" d="M26.245115 98.591565c-0.726549 0.4343175 -1.367329 0.9979849999999999 -1.8904999999999998 1.66364" stroke-width="1"></path><path id="Vector_65" stroke="#191a23" stroke-linecap="round" stroke-linejoin="round" d="m46.775945 98.30799 0.6994849999999999 5.06654" stroke-width="1"></path><path id="Vector_66" stroke="#191a23" stroke-linecap="round" stroke-linejoin="round" d="M171.60367 135.13393499999998c-1.266635 3.2516599999999998 -2.779035 7.996815000000001 -2.2885 11.135045 -5.801845 1.531305 -11.903184999999999 1.5114049999999999 -17.695079999999997 -0.056715 -5.009825 -11.097235000000001 -3.951145 -19.074150000000003 -0.737295 -24.477" stroke-width="1"></path><path id="Vector_67" stroke="#191a23" stroke-linecap="round" stroke-linejoin="round" d="M161.310395 98.505c5.582945 -4.6944099999999995 13.99368 -2.000945 11.144 7.61573 0 0 16.915 2.45765 8.280389999999999 19.358719999999998" stroke-width="1"></path><path id="Vector_68" stroke="#191a23" stroke-linecap="round" stroke-linejoin="round" d="M169.316165 146.265c1.15818 0.5671499999999999 2.1969600000000002 1.350215 3.06261 2.30641" stroke-width="1"></path><path id="Vector_69" stroke="#191a23" stroke-linecap="round" stroke-linejoin="round" d="m168.54106000000002 117.912475 -2.76013 6.295365c-0.17213499999999998 0.38904500000000003 -0.466655 0.7124199999999999 -0.8377899999999999 0.920375 -0.37213 0.207955 -0.800975 0.289545 -1.222855 0.23283l-7.240615 -1.001965c-0.29252999999999996 -0.04179 -0.5711299999999999 -0.148255 -0.8168949999999999 -0.31243s-0.450735 -0.381085 -0.6019749999999999 -0.63481c-0.150245 -0.253725 -0.241785 -0.5382950000000001 -0.26765500000000003 -0.832815 -0.026865 -0.293525 0.01393 -0.590035 0.11740999999999999 -0.866645l1.7959749999999999 -4.707345" stroke-width="1"></path><path id="Vector_70" stroke="#191a23" stroke-linecap="round" stroke-linejoin="round" d="m42.919325 56.64137 -1.266635 -6.3142700000000005c-0.046566 -0.32168349999999996 -0.1963135 -0.6196860000000001 -0.4267555 -0.848934 -0.230442 -0.22924799999999998 -0.5291410000000001 -0.37750300000000003 -0.8510234999999999 -0.42237749999999996 -0.321982 -0.0448745 -0.6498345 0.0160195 -0.9342054999999999 0.173528 -0.284371 0.1575085 -0.5099374999999999 0.4030745 -0.6426705 0.6997835 -0.1123355 -0.31014149999999996 -0.32178300000000004 -0.575707 -0.5971989999999999 -0.757195 -0.275416 -0.181488 -0.6020745 -0.269247 -0.9314195000000001 -0.250143 -0.3292455 0.019104 -0.6435660000000001 0.144076 -0.8960969999999999 0.35620999999999997 -0.25263050000000004 0.2122335 -0.4299395 0.5001865 -0.5055594999999999 0.821273 -0.098903 -0.3590955 -0.33123549999999996 -0.666849 -0.6494365 -0.860476s-0.6983904999999999 -0.2584015 -1.0627595 -0.1811895c-0.364369 0.077212 -0.6855549999999999 0.29063950000000005 -0.897888 0.5967015 -0.212333 0.30596249999999997 -0.2997935 0.681575 -0.24457099999999998 1.0499239999999999 -0.1210915 -0.35581199999999996 -0.37611 -0.6505310000000001 -0.7109275 -0.8213725000000001 -0.33481750000000005 -0.17084149999999998 -0.7230665000000001 -0.20447249999999997 -1.0823610000000001 -0.0938285 -0.359195 0.1107435 -0.6610779999999999 0.3571055 -0.8416705 0.6868485 -0.18049300000000001 0.32974299999999995 -0.2253675 0.716798 -0.125171 1.0790775 0.7445585 2.2416355 1.375488 4.519489 1.8904999999999998 6.824705 0.61491 2.985 0.936295 6.18691 0.038805 7.88836" stroke-width="1"></path><path id="Vector_71" stroke="#191a23" stroke-linecap="round" stroke-linejoin="round" d="M96.04138 15.37275c0 0.220492 -0.0653715 0.436009 -0.1877565 0.6193875000000001 -0.1224845 0.1833785 -0.29651 0.32636000000000004 -0.5000870000000001 0.41083549999999996 -0.20367649999999998 0.08447550000000001 -0.4277505 0.10676350000000001 -0.6440635 0.0639785 -0.216313 -0.042785 -0.4150145 -0.14875249999999998 -0.5711299999999999 -0.30447 -0.15611550000000002 -0.155618 -0.2625805 -0.3541205 -0.30596249999999997 -0.570334 -0.043382 -0.216114 -0.021691 -0.4402875 0.062287 -0.6441629999999999 0.0838785 -0.2038755 0.226462 -0.378299 0.4094425 -0.5011815000000001 0.18308 -0.12288249999999999 0.398398 -0.188851 0.6188899999999999 -0.189448 0.296112 -0.0002985 0.580284 0.1171115 0.79003 0.3262605 0.209746 0.209149 0.3278525 0.492923 0.32835000000000003 0.7891345000000001v0Z" stroke-width="1"></path><path id="Vector_72" stroke="#191a23" stroke-linecap="round" stroke-linejoin="round" d="M100.899965 15.37275c0 0.2205915 -0.06567 0.4363075 -0.188055 0.6196860000000001 -0.122385 0.183478 -0.29651 0.32636000000000004 -0.500485 0.41083549999999996 -0.203975 0.084376 -0.42785 0.106465 -0.64476 0.063481 -0.216114 -0.0430835 -0.4148155 -0.14925 -0.5708314999999999 -0.30526600000000004 -0.156016 -0.156016 -0.2621825 -0.35471749999999996 -0.30526600000000004 -0.5711299999999999 -0.042984 -0.216313 -0.020895 -0.44058600000000003 0.063481 -0.6444615 0.08447550000000001 -0.203776 0.22735750000000002 -0.3780005 0.41083549999999996 -0.5005845 0.1833785 -0.1224845 0.398796 -0.1879555 0.6196860000000001 -0.1879555 0.29551499999999997 0.0004975 0.57909 0.118206 0.7880400000000001 0.32725550000000003 0.20895 0.2090495 0.32636000000000004 0.492525 0.327355 0.7881395Z" stroke-width="1"></path><path id="Vector_73" stroke="#191a23" stroke-linecap="round" stroke-linejoin="round" d="M105.777455 15.37275c0 0.2205915 -0.06567 0.4363075 -0.188055 0.6196860000000001 -0.122385 0.183478 -0.29651 0.32636000000000004 -0.500485 0.41083549999999996 -0.203975 0.084376 -0.42785 0.106465 -0.64476 0.063481 -0.215915 -0.0430835 -0.414915 -0.14925 -0.5711299999999999 -0.30526600000000004 -0.15522 -0.156016 -0.261685 -0.35471749999999996 -0.30447 -0.5711299999999999 -0.04378 -0.216313 -0.02189 -0.44058600000000003 0.062685 -0.6444615 0.08457500000000001 -0.203776 0.227855 -0.3780005 0.410935 -0.5005845 0.184075 -0.1224845 0.39899500000000004 -0.1879555 0.619885 -0.1879555 0.29551499999999997 0.0004975 0.57909 0.118206 0.7880400000000001 0.32725550000000003 0.20895 0.2090495 0.32636000000000004 0.492525 0.327355 0.7881395Z" stroke-width="1"></path><path id="Vector_74" stroke="#191a23" stroke-linecap="round" stroke-linejoin="round" d="M164.60882 64.65709h-7.3918550000000005c-1.10644 0 -2.00393 0.8971914999999999 -2.00393 2.00393v7.3918550000000005c0 1.1067385 0.89749 2.00393 2.00393 2.00393h7.3918550000000005c1.10644 0 2.00393 -0.8971914999999999 2.00393 -2.00393v-7.3918550000000005c0 -1.1067385 -0.89749 -2.00393 -2.00393 -2.00393Z" stroke-width="1"></path><path id="Vector_75" stroke="#191a23" stroke-linecap="round" stroke-linejoin="round" d="M162.926275 70.3664c0 0.3963085 -0.11740999999999999 0.7837615 -0.337305 1.1133055 -0.22089 0.329544 -0.53332 0.586453 -0.8994800000000001 0.738091 -0.36616 0.151638 -0.769135 0.1913385 -1.15818 0.11402699999999999 -0.38904500000000003 -0.0773115 -0.745255 -0.2681525 -1.025845 -0.548444 -0.28058999999999995 -0.2802915 -0.47163 -0.6372975 -0.5482450000000001 -1.026044 -0.07761 -0.3887465 -0.037809999999999996 -0.7916219999999999 0.11343 -1.1577819999999999 0.152235 -0.36616 0.40894499999999995 -0.679187 0.73829 -0.8993805 0.329345 -0.2201935 0.717395 -0.337703 1.113405 -0.337703 0.5313300000000001 0.0002985 1.04077 0.2114375 1.41688 0.5872489999999999 0.375115 0.375712 0.58705 0.8852515000000001 0.58705 1.4166809999999999Z" stroke-width="1"></path><path id="Vector_76" stroke="#191a23" stroke-linecap="round" stroke-linejoin="round" d="M144.72076 163.54815c0 0.325365 -0.096515 0.643765 -0.27760500000000005 0.91341 -0.180095 0.27064 -0.436805 0.48158 -0.737295 0.605955s-0.631825 0.15721 -0.950225 0.09353c-0.319395 -0.06368 -0.61292 -0.219895 -0.842765 -0.44974000000000003 -0.22984500000000002 -0.22984500000000002 -0.38606 -0.52337 -0.44974000000000003 -0.842765 -0.06368 -0.3184 -0.030845 -0.6497350000000001 0.09353 -0.950225 0.124375 -0.30049 0.33531500000000003 -0.5572 0.605955 -0.737295 0.269645 -0.18109 0.5880449999999999 -0.27760500000000005 0.91341 -0.27760500000000005 0.43581 0 0.8547049999999999 0.17312999999999998 1.163155 0.48158 0.307455 0.30845 0.48158 0.727345 0.48158 1.163155v0Z" stroke-width="1"></path><path id="Vector_77" stroke="#191a23" stroke-linecap="round" stroke-linejoin="round" d="M51.151955 39.91144v8.16696" stroke-width="1"></path><path id="Vector_78" stroke="#191a23" stroke-linecap="round" stroke-linejoin="round" d="M55.226479999999995 43.99492h-8.16696" stroke-width="1"></path><path id="Vector_79" stroke="#191a23" stroke-linecap="round" stroke-linejoin="round" d="M165.043635 163.642675c-1.80692 2.138255 -3.34917 4.48745 -4.593915 6.9948500000000005 -0.749235 1.234795 -1.364145 2.5472 -1.833785 3.913335 -1.330315 3.8546300000000002 -0.21193499999999998 3.75911 1.81488 0.737295 5.151115 -7.6814 7.580905 -8.43163 9.4525 -10.095270000000001" stroke-width="1"></path><path id="Vector_80" stroke="#191a23" stroke-linecap="round" stroke-linejoin="round" d="M159.03184499999998 173.41656c-1.2099199999999999 0.836795 -2.5253099999999997 1.51041 -3.911345 2.00194 -0.398 0.10746 -1.0198749999999999 -0.20695999999999998 0.90744 -1.871595 0.41591 -0.359195 2.13527 -1.911395 2.7223200000000003 -2.49546 1.22783 -1.12435 2.38999 -2.317355 3.4825 -3.573045" stroke-width="1"></path><path id="Vector_81" stroke="#191a23" stroke-linecap="round" stroke-linejoin="round" d="M163.66357 165.40084c0.8129149999999999 -1.70145 -3.119325 -0.5711299999999999 -4.8396799999999995 -0.2985 -1.55021 0.24278 -3.383 -0.05373 0.510435 -1.9661199999999999 2.032785 -0.9760949999999999 3.88647 -2.287505 5.48245 -3.8805" stroke-width="1"></path><path id="Vector_82" stroke="#191a23" stroke-linecap="round" stroke-linejoin="round" d="M90.21864 20.987535 88.40376 25.7705l4.764060000000001 -1.9472150000000001c1.9674135000000001 1.2828534999999999 4.2680525000000005 1.9598515 6.616750000000001 1.9472150000000001 6.295365 0 11.399715 -4.6506300000000005 11.399715 -10.397749999999998 0 -5.74712 -5.085445 -10.397749999999998 -11.38081 -10.397749999999998 -6.295365 0 -11.399715 4.6506300000000005 -11.399715 10.397749999999998 0.010547 2.014079 0.644561 3.9755225 1.81488 5.6147849999999995Z" stroke-width="1"></path><path id="Vector_83" stroke="#191a23" stroke-linecap="round" stroke-linejoin="round" d="m178.93881 142.90389000000002 1.43678 -1.115395" stroke-width="1"></path><path id="Vector_84" stroke="#191a23" stroke-linecap="round" stroke-linejoin="round" d="m65.131705 79.97014 1.5124 1.077585" stroke-width="1"></path><path id="Vector_85" stroke="#191a23" stroke-linecap="round" stroke-linejoin="round" d="m19.79851 99.120905 -0.71839 1.720355" stroke-width="1"></path><path id="Vector_86" stroke="#191a23" d="M33.391205 103.695915c-0.209348 0 -0.414119 0.06169 -0.5881445 0.17810499999999999 -0.174125 0.116415 -0.30984300000000004 0.281585 -0.3899405 0.47561 -0.0800975 0.19303 -0.101092 0.40596 -0.060297 0.6119249999999999 0.0408945 0.20496999999999999 0.141688 0.39402000000000004 0.289744 0.54128 0.148056 0.148255 0.33670799999999995 0.24875 0.542076 0.29053999999999996 0.205368 0.040795000000000005 0.41819850000000003 0.0199 0.611726 -0.060695 0.193428 -0.080595 0.358797 -0.215915 0.4751125 -0.39004 0.1163155 -0.174125 0.1784035 -0.379095 0.1784035 -0.5880449999999999 -0.004378 -0.27959500000000004 -0.1173105 -0.546255 -0.3149175 -0.74426 -0.197607 -0.19701000000000002 -0.4643665 -0.31044 -0.7437625000000001 -0.31442Z" stroke-width="1"></path><path id="Vector_87" stroke="#191a23" d="M18.02144 109.480845c0.584662 0 1.05868 -0.47362 1.05868 -1.05868 0 -0.5850599999999999 -0.474018 -1.05868 -1.05868 -1.05868 -0.5847615 0 -1.05868 0.47362 -1.05868 1.05868 0 0.5850599999999999 0.4739185 1.05868 1.05868 1.05868Z" stroke-width="1"></path><path id="Vector_88" stroke="#191a23" d="M10.53506 95.321c0.584662 0 1.05868 -0.474018 1.05868 -1.05868 0 -0.584662 -0.474018 -1.05868 -1.05868 -1.05868 -0.584662 0 -1.05868995 0.474018 -1.05868995 1.05868 0 0.584662 0.47402795 1.05868 1.05868995 1.05868Z" stroke-width="1"></path><path id="Vector_89" stroke="#191a23" d="M23.295935 86.341125c0.584662 0 1.05868 -0.474018 1.05868 -1.05868 0 -0.584662 -0.474018 -1.05868 -1.05868 -1.05868 -0.584662 0 -1.05868 0.474018 -1.05868 1.05868 0 0.584662 0.474018 1.05868 1.05868 1.05868Z" stroke-width="1"></path><path id="Vector_90" stroke="#191a23" d="M28.173425 71.91661c-0.20944749999999998 0 -0.414119 0.062088 -0.5881445 0.1784035 -0.174125 0.1163155 -0.30984300000000004 0.2816845 -0.3899405 0.4751125 -0.080197 0.193428 -0.101092 0.406358 -0.060297 0.611726 0.0408945 0.205368 0.141688 0.39392049999999995 0.289744 0.5419765 0.148056 0.148056 0.33670799999999995 0.24894899999999998 0.542076 0.289744 0.205368 0.0408945 0.41819850000000003 0.0199 0.611726 -0.0601975 0.193428 -0.0800975 0.3586975 -0.21581550000000002 0.4751125 -0.3899405 0.1163155 -0.174125 0.1784035 -0.3787965 0.1784035 -0.5881445 -0.004378 -0.279396 -0.1173105 -0.5461555 -0.3149175 -0.7437625000000001s-0.4643665 -0.31053949999999997 -0.7437625000000001 -0.3149175Z" stroke-width="1"></path><path id="Vector_91" stroke="#191a23" d="M38.779129999999995 82.54122c-0.20944749999999998 0 -0.414119 0.062088 -0.588244 0.1784035 -0.1740255 0.1163155 -0.3097435 0.2816845 -0.389841 0.4751125 -0.080197 0.193428 -0.101092 0.406358 -0.060297 0.611726 0.0408945 0.205368 0.141688 0.39402000000000004 0.289744 0.542076 0.148056 0.148056 0.33670799999999995 0.2488495 0.542076 0.2896445 0.205368 0.0408945 0.41819850000000003 0.0199 0.611726 -0.0601975 0.193428 -0.0800975 0.3586975 -0.21581550000000002 0.4751125 -0.3899405 0.1163155 -0.174125 0.1784035 -0.3787965 0.1784035 -0.5881445 -0.004378 -0.279396 -0.1173105 -0.5461555 -0.3149175 -0.7437625000000001s-0.4643665 -0.31053949999999997 -0.7437625000000001 -0.3149175Z" stroke-width="1"></path><path id="Vector_92" stroke="#191a23" d="M30.177355000000002 92.14496c-0.20944749999999998 0 -0.414119 0.062088 -0.5881445 0.1784035 -0.174125 0.1163155 -0.30984300000000004 0.2816845 -0.3899405 0.4751125 -0.080197 0.193428 -0.101092 0.406358 -0.060297 0.611726 0.0408945 0.205368 0.141688 0.39402000000000004 0.289744 0.542076 0.148056 0.148056 0.33670799999999995 0.2488495 0.542076 0.289744 0.205368 0.040795000000000005 0.41819850000000003 0.019800500000000002 0.611726 -0.060297 0.193428 -0.0800975 0.358797 -0.21581550000000002 0.4751125 -0.3899405 0.1163155 -0.1740255 0.1784035 -0.3787965 0.1784035 -0.5881445 0.000199 -0.139101 -0.0269645 -0.2769085 -0.0800975 -0.40546249999999995 -0.0530335 -0.128554 -0.1310415 -0.245367 -0.229447 -0.343673 -0.098306 -0.0984055 -0.215119 -0.1764135 -0.343673 -0.229447 -0.128554 -0.053133 -0.2663615 -0.080396 -0.40546249999999995 -0.0800975Z" stroke-width="1"></path><path id="Vector_93" stroke="#191a23" d="M54.26133 86.341125c0.584662 0 1.05868 -0.474018 1.05868 -1.05868 0 -0.584662 -0.474018 -1.05868 -1.05868 -1.05868 -0.5847615 0 -1.05868 0.474018 -1.05868 1.05868 0 0.584662 0.4739185 1.05868 1.05868 1.05868Z" stroke-width="1"></path><path id="Vector_94" stroke="#191a23" d="M64.451125 81.2915c-0.209348 0 -0.414119 0.062088 -0.5881445 0.1784035 -0.174125 0.1163155 -0.30984300000000004 0.2816845 -0.3899405 0.4751125 -0.0800975 0.193428 -0.101092 0.406358 -0.060297 0.611726 0.0408945 0.205368 0.141688 0.39392049999999995 0.289744 0.5419765 0.148056 0.1481555 0.33670799999999995 0.24894899999999998 0.542076 0.289744 0.205368 0.0408945 0.418298 0.0199 0.611726 -0.0601975 0.193428 -0.0800975 0.358797 -0.21581550000000002 0.4751125 -0.3899405 0.1163155 -0.174125 0.1784035 -0.3787965 0.1784035 -0.5881445 -0.004378 -0.279396 -0.1173105 -0.5461555 -0.3149175 -0.7437625000000001s-0.4643665 -0.31053949999999997 -0.7437625000000001 -0.3149175Z" stroke-width="1"></path><path id="Vector_95" stroke="#191a23" d="M77.28762 85.71726c0.584662 0 1.05868 -0.474018 1.05868 -1.05868 0 -0.584662 -0.474018 -1.05868 -1.05868 -1.05868 -0.584662 0 -1.05868 0.474018 -1.05868 1.05868 0 0.584662 0.474018 1.05868 1.05868 1.05868Z" stroke-width="1"></path><path id="Vector_96" stroke="#191a23" d="M82.902405 74.317545c0.584662 0 1.05868 -0.474018 1.05868 -1.05868 0 -0.584662 -0.474018 -1.05868 -1.05868 -1.05868 -0.5847615 0 -1.05868 0.474018 -1.05868 1.05868 0 0.584662 0.4739185 1.05868 1.05868 1.05868Z" stroke-width="1"></path><path id="Vector_97" stroke="#191a23" d="M43.9591 94.243415c-0.20944749999999998 0 -0.414119 0.062088 -0.588244 0.1784035 -0.1740255 0.1163155 -0.3097435 0.2816845 -0.389841 0.4751125 -0.080197 0.193428 -0.101092 0.406358 -0.060297 0.611726 0.0408945 0.205368 0.141688 0.39392049999999995 0.289744 0.5419765 0.148056 0.148056 0.33670799999999995 0.24894899999999998 0.542076 0.289744 0.205368 0.0408945 0.41819850000000003 0.0199 0.6116265000000001 -0.0601975 0.19352750000000002 -0.0800975 0.358797 -0.21581550000000002 0.4751125 -0.3899405 0.116415 -0.174125 0.178503 -0.3787965 0.178503 -0.5881445 -0.004378 -0.279396 -0.1173105 -0.5461555 -0.3149175 -0.7437625000000001s-0.4643665 -0.31053949999999997 -0.7437625000000001 -0.3149175Z" stroke-width="1"></path><path id="Vector_98" stroke="#191a23" d="M46.057555 73.65587c0.584662 0 1.05868 -0.474018 1.05868 -1.05868 0 -0.584662 -0.474018 -1.05868 -1.05868 -1.05868 -0.5847615 0 -1.05868 0.474018 -1.05868 1.05868 0 0.584662 0.4739185 1.05868 1.05868 1.05868Z" stroke-width="1"></path></g></g></svg>