<?xml version="1.0" encoding="UTF-8"?>
<svg id="Layer_1" xmlns="http://www.w3.org/2000/svg" version="1.1" viewBox="0 0 200 100">
  <!-- Generator: Adobe Illustrator 29.1.0, SVG Export Plug-In . SVG Version: 2.1.0 Build 142)  -->
  <defs>
    <style>
      .st0 {
        fill: #50525f;
      }

      .st1 {
        fill: #191a23;
      }
    </style>
  </defs>
  <path class="st0" d="M124.1,67c-11.6,8.6-28.5,13.1-43,13.1s-38.6-7.5-52.5-20c-1.1-1-.1-2.3,1.2-1.6,14.9,8.7,33.4,13.9,52.5,13.9s27-2.7,40.1-8.2c2-.8,3.6,1.3,1.7,2.7"/>
  <path class="st0" d="M128.9,61.5c-1.5-1.9-9.8-.9-13.6-.5-1.1,0-1.3-.9-.3-1.6,6.6-4.7,17.5-3.3,18.8-1.8,1.3,1.6-.3,12.5-6.6,17.7-1,.8-1.9.4-1.4-.7,1.4-3.5,4.5-11.3,3.1-13.3"/>
  <path class="st1" d="M115.6,26.4v-4.5c0-.7.5-1.1,1.1-1.1h20.3c.7,0,1.2.5,1.2,1.1v3.9c0,.7-.6,1.5-1.5,2.9l-10.5,15.1c3.9,0,8.1.5,11.6,2.5.8.5,1,1.1,1.1,1.8v4.8c0,.7-.7,1.4-1.5,1-6.3-3.3-14.6-3.6-21.5,0-.7.4-1.4-.4-1.4-1v-4.6c0-.7,0-2,.7-3.1l12.2-17.5h-10.6c-.7,0-1.2-.5-1.2-1.1M41.4,54.8h-6.2c-.6,0-1.1-.5-1.1-1.1v-31.8c0-.6.5-1.1,1.2-1.1h5.8c.6,0,1.1.5,1.1,1.1v4.2h0c1.5-4,4.3-5.9,8.1-5.9s6.3,1.9,8,5.9c1.5-4,4.9-5.9,8.5-5.9s5.4,1.1,7.2,3.5c2,2.7,1.6,6.6,1.6,10v20c0,.6-.5,1.1-1.2,1.1h-6.2c-.6,0-1.1-.5-1.1-1.1v-16.8c0-1.3,0-4.7-.2-6-.5-2.1-1.8-2.7-3.6-2.7s-3.1,1-3.7,2.6c-.6,1.6-.6,4.3-.6,6.1v16.8c0,.6-.5,1.1-1.2,1.1h-6.2c-.6,0-1.1-.5-1.1-1.1v-16.8c0-3.5.6-8.8-3.8-8.8s-4.3,5.1-4.3,8.8v16.8c0,.6-.5,1.1-1.2,1.1M155.8,20.2c9.2,0,14.2,7.9,14.2,17.9s-5.5,17.4-14.2,17.4-13.9-7.9-13.9-17.7,5-17.6,13.9-17.6M155.8,26.7c-4.6,0-4.8,6.2-4.8,10.1s0,12.2,4.8,12.2,5-6.7,5-10.8-.1-5.9-.9-8.4c-.7-2.2-2.1-3.1-4-3.1M181.9,54.8h-6.2c-.6,0-1.1-.5-1.1-1.1v-31.8c0-.6.6-1,1.2-1h5.7c.5,0,1,.4,1.1.9v4.9h.1c1.7-4.3,4.2-6.4,8.4-6.4s5.5,1,7.2,3.7c1.6,2.5,1.6,6.8,1.6,9.9v20c0,.6-.6,1-1.2,1h-6.2c-.6,0-1-.5-1.1-1v-17.3c0-3.5.4-8.6-3.9-8.6s-2.9,1-3.6,2.5c-.9,1.9-1,3.9-1,6v17.1c0,.6-.5,1.1-1.2,1.1M110.4,49c-1.1-1.6-2.3-2.8-2.3-5.7v-9.6c0-4.1.3-7.8-2.7-10.6-2.4-2.3-6.3-3.1-9.3-3.1-5.9,0-12.5,2.2-13.8,9.5,0,.8.4,1.2.9,1.3l6,.6c.6,0,1-.6,1.1-1.1.5-2.5,2.6-3.7,5-3.7s2.7.5,3.5,1.6c.9,1.3.8,3,.8,4.5v.8c-3.6.4-8.3.7-11.6,2.2-3.9,1.7-6.6,5.1-6.6,10.1s4,9.6,9.3,9.6,6.8-1,10.2-4.5c1.1,1.6,1.5,2.4,3.6,4.1.5.2,1.1.2,1.5,0h0c1.2-1.1,3.5-3,4.7-4.1.5-.4.4-1.1,0-1.6l-.3-.2ZM98.2,46.2c-1,1.7-2.6,2.8-4.3,2.8s-3.8-1.8-3.8-4.5c0-5.3,4.7-6.2,9.2-6.2v1.3c0,2.4,0,4.4-1.2,6.6h.1ZM29.3,49c-1.1-1.6-2.3-2.8-2.3-5.7v-9.6c0-4.1.3-7.8-2.7-10.6-2.4-2.3-6.3-3.1-9.3-3.1-5.9,0-12.5,2.2-13.8,9.5-.1.8.4,1.2.9,1.3l6,.6c.6,0,1-.6,1.1-1.1.5-2.5,2.6-3.7,5-3.7s2.7.5,3.5,1.6c.9,1.3.7,3,.7,4.5v.8c-3.6.4-8.3.7-11.6,2.2-4.1,1.4-6.8,4.9-6.8,9.9s4.1,9.6,9.3,9.6,6.8-1,10.2-4.5c1.1,1.6,1.5,2.4,3.6,4.1.5.2,1.1.2,1.5,0h0c1.2-1.1,3.5-3,4.7-4.1.5-.4.4-1.1,0-1.6ZM17.1,46.2c-1,1.7-2.5,2.8-4.3,2.8s-3.8-1.8-3.8-4.5c0-5.3,4.7-6.2,9.2-6.2v1.3c0,2.4,0,4.4-1.2,6.6h.1Z"/>
</svg>