<?xml version="1.0" encoding="UTF-8"?>
<svg id="Layer_1" xmlns="http://www.w3.org/2000/svg" version="1.1" xmlns:xlink="http://www.w3.org/1999/xlink" viewBox="0 0 200 100">
  <!-- Generator: Adobe Illustrator 29.1.0, SVG Export Plug-In . SVG Version: 2.1.0 Build 142)  -->
  <defs>
    <style>
      .st0 {
        fill: none;
      }

      .st1 {
        fill: #191a23;
        fill-rule: evenodd;
      }

      .st2 {
        clip-path: url(#clippath);
      }
    </style>
    <clipPath id="clippath">
      <rect class="st0" x="-5" y="20.5" width="210" height="59"/>
    </clipPath>
  </defs>
  <g class="st2">
    <path class="st1" d="M196.8,52.3c.4-.5,1.2-.5,1.6,0h0l1.5,2c.3.4.3.9,0,1.3-2.5,3.3-7,6.5-12.3,6.8-4.2.2-7.7-1.4-9.6-4.4-.4-.6-1.2-.6-1.6,0-2.3,3-5,5.4-7.8,5.6-5.1.3-6.5-3.1-5.2-10.6.1-.7-.5-1.4-1.2-1.2-1,.3-2.2.4-3.3.3-.5,0-.9.2-1.1.7-1.9,6.2-6.3,11.9-12.1,12.2-3.7.2-9.2-1.9-8.6-10.7,0-.7-.6-1.3-1.3-1.1-1.2.4-2.4.5-3.7.4-.5,0-.9.2-1.1.7-1.9,6.2-6.3,11.9-12.1,12.2-3.7.2-9.2-1.9-8.6-10.7,0-.7-.6-1.3-1.3-1.1-1.2.4-2.4.5-3.7.4-.5,0-.9.2-1.1.7-1.9,6.2-6.3,11.9-12.1,12.2-2.6.2-6.2-.9-7.8-4.7-.3-.7-1.3-.8-1.7-.2-2.3,3.1-5.1,5.6-8,5.7-3,.2-4.6-1-5.3-3.1-.3-.8-1.2-.9-1.7-.3-2,2.4-4.3,4.1-6.7,4.3-3.6.2-5.7-2.5-5.8-5.7-.2-3.8,1.4-8.2,3.3-13,.3-.7-.2-1.4-.9-1.4-1.1,0-2.3-.2-3.4-.4-.5,0-1,.2-1.1.7-2.2,7.7-5.5,15.2-8.2,19.7-.3.5-1,.6-1.4.3l-2.1-1.6c-.4-.3-.6-.9-.3-1.4,4-6.4,7.6-16.5,8.8-24,0-.5.5-.8.9-.9l2.8-.2c.6,0,1.2.6,1,1.2h0c-.1.7.3,1.2.9,1.3,2.5.3,6.3.4,8.9.3.7,0,1.2.7,1,1.4-2.1,5.5-4.8,13.1-4.7,16.1,0,1.4.7,2.1,1.7,2,2-.1,5.1-4.2,7.5-8.7,0,0,0-.2,0-.3.8-3.5,2-7.5,3.2-11.5v-.2c.2-.4.6-.7,1-.7l3.4-.2c.7,0,1.2.7,1,1.4-.2.6-.3,1.1-.5,1.7-3,9.8-5.5,18-2.1,17.8,2.2-.1,5.3-3.9,8-9.2,0,0,0-.2,0-.3.1-.7.3-1.4.5-2.2,1.6-6.3,3.3-12.5,5.1-18.7.5-1.9,1.1-3.8,1.6-5.7.1-.4.5-.7.9-.7l3.5-.2c.7,0,1.2.7,1,1.4-1.4,4.4-2.8,9-4.2,13.5-.3.9.7,1.7,1.5,1.2,1.4-.9,3-1.6,4.5-1.6,3.9-.2,6.6,3,6.8,7.8,0,.3,0,.5,0,.8,0,.5.4,1,.9,1,1.8.2,3.7-.4,5.2-1.7.1-.1.3-.3.3-.5,1.4-5.6,3-11.2,4.6-16.7.5-1.9,1.1-3.8,1.6-5.7.1-.4.5-.7.9-.7l3.5-.2c.7,0,1.2.7,1,1.4-1.4,4.4-2.8,9-4.2,13.5-.3.9.7,1.7,1.5,1.2,1.4-.9,3-1.6,4.5-1.6,3.9-.2,6.6,3,6.8,7.8,0,.3,0,.5,0,.8,0,.5.4,1,.9,1,1.8.2,3.7-.4,5.2-1.7.1-.1.3-.3.3-.5,1.4-5.6,3-11.2,4.6-16.7.5-1.9,1.1-3.8,1.6-5.7.1-.4.5-.7.9-.7l3.5-.2c.7,0,1.2.7,1,1.4-1.4,4.4-2.8,9-4.2,13.5-.3.9.7,1.7,1.5,1.2,1.4-.9,3-1.6,4.5-1.6,3.9-.2,6.6,3,6.8,7.8,0,.3,0,.5,0,.8,0,.5.4,1,.9,1,1.8.2,3.6-.3,5-1.6.2-.1.3-.3.3-.5,1.6-6.3,4.1-14.6,6.4-22.6.1-.4.5-.7.9-.7l3.4-.2c.7,0,1.2.7,1,1.4-3.2,10.6-5.8,19.9-7.2,25.4-1.9,7.4-2,9.6.2,9.5,1.8-.1,4.3-2.7,6.6-6.6,0-.2.1-.3.1-.5.3-7.8,5.1-15,12.3-15.4,4.8-.3,7.4,3.3,7.6,6.9.4,6.8-6.4,11.1-12.9,10.7-.8,0-1.3.8-1,1.5.9,1.9,2.8,3,6.1,2.8,3.1-.2,6.4-2.9,8.4-5.2ZM89.3,54.2c-1.5,6.2.3,8.6,2.8,8.5,4-.2,7.8-7.5,7.5-13.1-.1-2.5-1.6-3.7-3.2-3.6-2.8.2-5.8,3.4-7,8.3ZM116,52.7c-1.5,6.2.3,8.6,2.8,8.5h0c4-.2,7.8-7.5,7.5-13.1-.1-2.5-1.6-3.7-3.2-3.6-2.8.2-5.8,3.4-7,8.3ZM142.7,51.2c-1.5,6.2.3,8.6,2.8,8.5h0c4-.2,7.8-7.5,7.5-13.1-.1-2.5-1.6-3.7-3.2-3.6-2.8.2-5.8,3.4-7,8.3ZM191,43.1c0-1.6-1-2.8-2.6-2.7h0c-3.2.2-5.7,3.6-6.4,7.8-.1.7.4,1.3,1,1.3,4.1-.1,8.2-2.8,8.1-6.3ZM42.2,46.1c-.4-12.6-8.6-20.8-20.6-20.4-5.2.2-11.1,2.2-15.6,5.7-.4.3-.5.9-.2,1.4l1.9,3.1c.3.5,1,.6,1.5.2,3.4-2.8,8-4.7,12.5-4.9,8.3-.3,14.3,5,14.7,15.2.4,11.9-7.6,25.5-20.4,26.3-.4,0-.9,0-1.4,0s-1.1-.6-1-1.3c2.5-10,5.4-20.8,8.3-30.7.2-.7-.3-1.4-1-1.3l-3.8.2c-.4,0-.8.3-.9.7-2.8,9.8-5.7,20.5-8.2,30.5-.1.6-.7.9-1.3.7-1.3-.5-2.6-1-3.6-1.6-.5-.3-1.1,0-1.4.4l-1.6,3.4c-.2.5,0,1.1.4,1.4,3.7,2.1,9.2,3.3,14.8,2.9,18.4-1.1,27.4-18,26.9-32h0ZM78.4,30.6c-2.2.1-4.2,2.6-4.1,5.3,0,1.7,1.2,2.9,3,2.8,2.2-.1,4.3-2.8,4.1-5.3,0-1.7-1.4-2.9-3-2.8Z"/>
  </g>
</svg>