<?xml version="1.0" encoding="UTF-8"?>
<svg id="Layer_1" xmlns="http://www.w3.org/2000/svg" version="1.1" viewBox="0 0 200 100">
  <!-- Generator: Adobe Illustrator 29.1.0, SVG Export Plug-In . SVG Version: 2.1.0 Build 142)  -->
  <defs>
    <style>
      .st0 {
        fill: #50525f;
      }

      .st1 {
        fill: #191a23;
      }
    </style>
  </defs>
  <path class="st1" d="M0,31.7h7v15.5h14.7v-15.5h7v38.1h-7v-15.9H7v15.8H0V31.7ZM50.8,57.3c0,3.2-2.6,5.8-5.8,5.8s-5.8-2.6-5.8-5.8v-16.5h-6.6v16.5c0,6.8,5.5,12.4,12.4,12.4s12.4-5.5,12.4-12.4v-16.5h-6.6v16.5M75.8,41.2c-2.9,0-5.8,1-7.8,3.1v-12.6h-6.6v23.3c0,8.7,6.3,14.7,13.4,14.7s14.8-6.1,14.8-14.3-6.4-14.3-13.9-14.3h0ZM76,63.7c-4.5,0-7.9-3.8-7.9-8.1s3.4-8.1,7.9-8.1,7.2,3.8,7.2,8.1-3.4,8.1-7.2,8.1ZM100.8,42.9c0-3.3,2.2-4.4,4.7-4.4s4.5,1.5,6.2,3.3l4.3-5.1c-2.2-2.9-6.6-4.9-10.2-4.9-7.2,0-12.4,4.2-12.4,11.1,0,12.9,15.8,8.8,15.8,16s-2.2,4.2-4.7,4.2c-3.9,0-5.2-1.9-7-3.9l-4.8,5c3.1,3.8,6.9,5.7,11.4,5.7,6.8,0,12.3-4.2,12.3-10.8,0-14.3-15.8-9.8-15.8-16M134,40.9c-7.1,0-13.4,6.1-13.4,14.7v23.4h6.6v-12.6c2.2,2.2,4.5,3.1,7.8,3.1,7.4,0,13.9-6.2,13.9-14.3s-6.9-14.3-14.8-14.3h0ZM135.2,63.4c-4.5,0-7.9-3.8-7.9-8.1s3.4-8.1,7.9-8.1,7.2,3.8,7.2,8.1-3.4,8.1-7.2,8.1ZM197.7,63.8c-3.9,0-5-1.7-5-4.3v-11.7h6.1v-5.8h-6.1v-7.7l-6.7,3v23.4c0,6.1,4.1,9,9.8,9s1.8,0,2.7-.2l1.6-6h-2.3"/>
  <path class="st0" d="M180.1,48.2c-1.3-2.2-3.1-3.9-5.3-5.3-1.6-1-3.5-1.6-5.4-1.9v-7c1.9-.8,3.2-2.7,3.2-4.8s-2.3-5.2-5.3-5.2-5.3,2.3-5.3,5.3h0c0,2.1,1.1,4,3.1,4.8v7c-1.6.2-3.2.7-4.7,1.5l-18.7-14.2c.1-.5.2-1,.2-1.5,0-3.2-2.6-5.9-5.9-5.9s-5.8,2.6-5.8,5.9,2.6,5.9,5.9,5.9,2.1-.3,3-.8l1.2.9,16.8,12.1c-.9.8-1.7,1.7-2.4,2.8-1.4,2.1-2.1,4.5-2.2,7v.5c0,1.8.3,3.5.9,5.1.5,1.4,1.3,2.6,2.2,3.8l-5.6,5.6c-2.3-.9-4.9.3-5.8,2.7-.2.5-.3,1-.3,1.6,0,2.5,2,4.5,4.5,4.5h0c2.5,0,4.5-2,4.5-4.5h0c0-.5,0-.9-.2-1.4l5.8-5.8c.8.6,1.7,1,2.6,1.4,1.9.8,3.9,1.3,6,1.3h.4c2.4,0,4.7-.6,6.8-1.7,2.3-1.2,4-2.9,5.4-5s2.1-4.6,2.1-7.1h0c0-2.7-.6-5.1-1.8-7.2h0v-.4ZM173.1,60.3c-1.6,1.7-3.4,2.8-5.4,2.8h-.3c-1.2,0-2.3-.3-3.4-.9-1.2-.6-2.2-1.6-3-2.7-.8-1.1-1.2-2.4-1.2-3.7v-.4c0-1.3.3-2.5.9-3.7.6-1.2,1.6-2.3,2.8-3,1.2-.9,2.4-1.2,3.9-1.2h.1c1.3,0,2.5.3,3.6.8,1.2.6,2.1,1.5,2.9,2.6.7,1.1,1.1,2.3,1.3,3.6v.8c0,1.8-.7,3.6-2,4.9h-.2Z"/>
</svg>