<?xml version="1.0" encoding="UTF-8"?>
<svg id="Layer_1" xmlns="http://www.w3.org/2000/svg" version="1.1" viewBox="0 0 200 100">
  <!-- Generator: Adobe Illustrator 29.1.0, SVG Export Plug-In . SVG Version: 2.1.0 Build 142)  -->
  <defs>
    <style>
      .st0 {
        fill: #50525f;
      }
    </style>
  </defs>
  <path class="st0" d="M189.3,48.7l10.7,28.3c-3.2-.5-6.3-1-9.5-1.5l-6-15.7-6.2,14.4c-3-.5-6-.7-9.1-1.1l10.9-24.8-9.9-25.4h9.1l5.5,14.2,5.9-14.2h9.2l-10.7,25.7ZM163,23h-8.3v49.1c2.7.2,5.5.3,8.3.6V23ZM147.6,71.5c-7.5-.5-15.1-1-22.8-1.1V23h8.4v39.4c4.8.1,9.7.5,14.4.7v8.4ZM115.8,42.2v8.4h-11.5v19.2h-8.3V23h23.6v8.4h-15.3v10.8h11.5,0ZM81.7,31.4v38.9c-2.8,0-5.7,0-8.4.1V31.4h-8.7v-8.4h26v8.4h-8.8ZM55.4,51.1c-3.7,0-8.1,0-11.3.2v12.6c5-.3,9.9-.7,14.9-.9v8.1l-23.4,1.9V23h23.4v8.4h-14.9v11.4c3.3,0,8.3-.2,11.3-.2v8.4h0ZM8.6,46.3v29.5c-3,.3-5.7.7-8.6,1.2V23h8.1l11,30.7v-30.7h8.4v50.6c-3,.5-6,.7-9.2,1.1l-9.6-28.3Z"/>
</svg>