<?xml version="1.0" encoding="UTF-8"?>
<svg id="Layer_1" xmlns="http://www.w3.org/2000/svg" version="1.1" xmlns:xlink="http://www.w3.org/1999/xlink" viewBox="0 0 200 100">
  <!-- Generator: Adobe Illustrator 29.1.0, SVG Export Plug-In . SVG Version: 2.1.0 Build 142)  -->
  <defs>
    <style>
      .st0 {
        fill: #fff;
      }

      .st1 {
        mask: url(#mask);
      }

      .st2 {
        fill: none;
      }

      .st3 {
        fill-rule: evenodd;
      }

      .st4 {
        clip-path: url(#clippath);
      }
    </style>
    <clipPath id="clippath">
      <rect class="st2" y="21.2" width="200" height="57.6"/>
    </clipPath>
    <mask id="mask" x="0" y="21.2" width="55.1" height="57.6" maskUnits="userSpaceOnUse">
      <g id="b">
        <path class="st0" d="M55.1,21.2H0v57.6h55.1V21.2Z"/>
      </g>
    </mask>
  </defs>
  <g class="st4">
    <g>
      <g class="st1">
        <g>
          <path class="st0" d="M3.5,23.7l31.8-2.3c3.9-.3,4.9-.1,7.4,1.7l10.2,7.1c1.7,1.2,2.2,1.6,2.2,2.9v39.2c0,2.5-.9,3.9-4,4.1l-37,2.2c-2.3.1-3.5-.2-4.7-1.8l-7.5-9.7c-1.3-1.8-1.9-3.1-1.9-4.7V27.6c0-2,.9-3.7,3.5-3.9h0Z"/>
          <path class="st3" d="M35.3,21.3l-31.8,2.3c-2.6.2-3.5,1.9-3.5,3.9v34.8c0,1.6.6,2.9,1.9,4.7l7.5,9.7c1.2,1.6,2.3,1.9,4.7,1.8l37-2.2c3.1-.2,4-1.7,4-4.1v-39.2c0-1.3-.5-1.6-2-2.7,0,0-.2-.1-.3-.2l-10.2-7.1c-2.5-1.8-3.5-2-7.4-1.7ZM14.9,32.4c-3,.2-3.7.2-5.4-1.1l-4.4-3.5c-.4-.4-.2-1,.9-1.1l30.6-2.2c2.6-.2,3.9.7,4.9,1.5l5.3,3.8c.2.1.8.8.1.8l-31.6,1.9h-.4ZM11.4,71.9v-33.3c0-1.5.4-2.1,1.8-2.2l36.3-2.1c1.2-.1,1.8.7,1.8,2.1v33c0,1.5-.2,2.7-2.2,2.8l-34.8,2c-2,.1-2.9-.6-2.9-2.3ZM45.7,40.4c.2,1,0,2-1,2.1l-1.7.3v24.6c-1.5.8-2.8,1.2-3.9,1.2-1.8,0-2.2-.6-3.6-2.2l-11-17.2v16.6l3.5.8s0,2-2.8,2l-7.7.4c-.2-.4,0-1.6.8-1.8l2-.6v-22l-2.8-.2c-.2-1,.3-2.5,1.9-2.6l8.3-.6,11.4,17.4v-15.4l-2.9-.3c-.2-1.2.7-2.1,1.8-2.2,0,0,7.7-.4,7.7-.4Z"/>
        </g>
      </g>
      <path d="M97.9,34.7v31.1h-5l-14.7-21.3h-.3v21.3h-5.6v-31.1h5l14.7,21.3h.3v-21.3h5.5,0ZM112.7,66.2c-2.3,0-4.3-.5-5.9-1.5-1.7-1-3-2.5-3.9-4.2-.9-1.8-1.4-3.9-1.4-6.3s.5-4.5,1.4-6.3,2.2-3.2,3.9-4.2c1.7-1,3.6-1.5,5.9-1.5s4.2.5,5.9,1.5,3,2.4,3.9,4.2c.9,1.8,1.4,3.9,1.4,6.3s-.5,4.5-1.4,6.3c-.9,1.7-2.2,3.2-3.9,4.2-1.7,1-3.6,1.5-5.9,1.5ZM112.7,61.9c1.3,0,2.3-.3,3.1-1,.8-.7,1.5-1.6,1.9-2.8.4-1.2.6-2.5.6-3.9s-.2-2.7-.6-3.9c-.4-1.2-1-2.1-1.9-2.8-.8-.7-1.9-1-3.1-1s-2.3.3-3.2,1c-.8.7-1.5,1.6-1.9,2.8-.4,1.2-.6,2.5-.6,3.9s.2,2.7.6,3.9c.4,1.2,1,2.1,1.9,2.8.8.7,1.9,1,3.2,1ZM138.8,42.5v4.2h-13.4v-4.2h13.4ZM128.7,36.9h5.5v21.9c0,.7.1,1.3.3,1.7.2.4.5.7.9.8.4.1.8.2,1.3.2.3,0,.6,0,.9,0,.3,0,.5,0,.7-.1l.9,4.3c-.4.1-.8.2-1.2.3-.5.1-1.2.2-2,.2-1.4,0-2.6-.2-3.7-.6-1.1-.4-2-1.2-2.6-2.1-.6-1-1-2.2-.9-3.7v-22.8h0ZM142.1,65.8v-23.3h5.5v23.3h-5.5ZM144.9,39.1c-.9,0-1.6-.3-2.2-.9-.6-.5-.9-1.3-.9-2.1,0-.8.3-1.5.9-2.1.6-.6,1.4-.9,2.2-.9.9,0,1.6.3,2.2.9.6.6.9,1.3.9,2.1s-.3,1.5-.9,2.1c-.6.6-1.4.9-2.2.9h0ZM162.1,66.2c-2.3,0-4.3-.5-5.9-1.5-1.7-1-3-2.5-3.9-4.2-.9-1.8-1.4-3.9-1.4-6.3s.5-4.5,1.4-6.3c.9-1.8,2.2-3.2,3.9-4.2,1.7-1,3.6-1.5,5.9-1.5s4.2.5,5.9,1.5c1.7,1,3,2.4,3.9,4.2.9,1.8,1.4,3.9,1.4,6.3s-.5,4.5-1.4,6.3c-.9,1.7-2.2,3.2-3.9,4.2-1.7,1-3.6,1.5-5.9,1.5ZM162.2,61.9c1.3,0,2.3-.3,3.1-1,.8-.7,1.5-1.6,1.9-2.8.4-1.2.6-2.5.6-3.9s-.2-2.7-.6-3.9c-.4-1.2-1-2.1-1.9-2.8-.8-.7-1.9-1-3.1-1s-2.3.3-3.2,1c-.8.7-1.5,1.6-1.9,2.8-.4,1.2-.6,2.5-.6,3.9s.2,2.7.6,3.9c.4,1.2,1,2.1,1.9,2.8.8.7,1.9,1,3.2,1ZM182.1,52.1v13.7h-5.5v-23.3h5.2v3.9h.3c.5-1.3,1.4-2.4,2.6-3.1,1.2-.8,2.6-1.2,4.4-1.2s3,.3,4.2,1c1.2.7,2.2,1.7,2.8,3,.7,1.3,1,2.9,1,4.8v14.9h-5.4v-14c0-1.6-.4-2.8-1.2-3.7-.8-.9-1.9-1.3-3.4-1.3s-1.8.2-2.6.6c-.7.4-1.3,1-1.8,1.8-.4.8-.6,1.7-.6,2.9h0Z"/>
    </g>
  </g>
</svg>