<?xml version="1.0" encoding="UTF-8"?>
<svg id="Layer_1" xmlns="http://www.w3.org/2000/svg" version="1.1" viewBox="0 0 200 100">
  <!-- Generator: Adobe Illustrator 29.1.0, SVG Export Plug-In . SVG Version: 2.1.0 Build 142)  -->
  <defs>
    <style>
      .st0 {
        fill: #50525f;
        fill-rule: evenodd;
      }
    </style>
  </defs>
  <path class="st0" d="M162.8,41c.8,1.3,1,2.8,1.1,4.5v2.2c.1,0,.1,15.7.1,15.7v2.3c.3,3.7,3,6.4,6.7,6.6h2.2c0,0,0-24.6,0-24.6v-2.2c.2-1.7.5-3.2,1.2-4.5,2.5-4.3,8-5.7,12.3-3.3,1.4.8,2.5,1.9,3.3,3.3.8,1.3,1,2.8,1.1,4.5v2.2c.1,0,.1,15.7.1,15.7v2.3c.3,3.7,3,6.4,6.7,6.6h2.2c0,0,0-26.8,0-26.8,0-9.9-8-18-18-18s-10.1,2.2-13.5,6.1c-3.4-3.9-8.3-6.1-13.5-6.1s-7.2,1.1-10.1,3.1c-1.8-2-5.7-3.1-7.9-3.1v44.9h2.2c3.8-.4,6.5-3,6.6-6.7v-2.3c.1,0,.1-15.7.1-15.7v-2.2c.2-1.7.4-3.2,1.2-4.5,1.6-2.8,4.6-4.5,7.8-4.5s6.2,1.7,7.8,4.5h.3ZM9,72.4h2.2c0,0,33.7,0,33.7,0v-2.2c-.4-3.7-3-6.4-6.7-6.6h-2.2c0,0-20.2,0-20.2,0l27-27v-2.2c-.3-3.7-3-6.4-6.7-6.6h-2.2c0-.1-33.7-.1-33.7-.1v2.2c.4,3.7,3.1,6.4,6.7,6.6h2.3c0,0,20.2,0,20.2,0L2.2,63.5v2.2c.3,3.7,3,6.4,6.7,6.6h.1ZM128.3,34.1c8.8,8.8,8.8,23,0,31.8h0c-8.8,8.8-23,8.8-31.8,0-8.8-8.8-8.8-23,0-31.8,4.2-4.2,9.9-6.6,15.9-6.6s11.7,2.4,15.9,6.6h0ZM121.9,40.5c5.3,5.3,5.3,13.8,0,19.1-5.3,5.3-13.8,5.3-19.1,0-5.3-5.3-5.3-13.8,0-19.1s13.8-5.3,19.1,0ZM65.2,27.5c6,0,11.7,2.4,15.9,6.6,8.8,8.8,8.8,23,0,31.8-8.8,8.8-23,8.8-31.8,0-8.8-8.8-8.8-23,0-31.8s9.9-6.6,15.9-6.6h0ZM74.7,40.5c5.3,5.3,5.3,13.8,0,19.1-5.3,5.3-13.8,5.3-19.1,0-5.3-5.3-5.3-13.8,0-19.1s13.8-5.3,19.1,0h0Z"/>
</svg>